<?xml version="1.0" encoding="UTF-8" standalone="no"?>
<!-- Created with Inkscape (http://www.inkscape.org/) -->

<svg
   xmlns:dc="http://purl.org/dc/elements/1.1/"
   xmlns:cc="http://creativecommons.org/ns#"
   xmlns:rdf="http://www.w3.org/1999/02/22-rdf-syntax-ns#"
   xmlns:svg="http://www.w3.org/2000/svg"
   xmlns="http://www.w3.org/2000/svg"
   xmlns:xlink="http://www.w3.org/1999/xlink"
   xmlns:sodipodi="http://sodipodi.sourceforge.net/DTD/sodipodi-0.dtd"
   xmlns:inkscape="http://www.inkscape.org/namespaces/inkscape"
   width="360"
   height="360"
   viewBox="0 0 95.249998 95.250003"
   version="1.1"
   id="svg8"
   sodipodi:docname="biangai_w.svg"
   inkscape:version="0.92.4 5da689c313, 2019-01-14">
  <defs
     id="defs2">
    <linearGradient
       id="linearGradient9584"
       inkscape:collect="always">
      <stop
         id="stop9580"
         offset="0"
         style="stop-color:#ffffff;stop-opacity:1" />
      <stop
         style="stop-color:#fff6d5;stop-opacity:1"
         offset="0.53125"
         id="stop9586" />
      <stop
         id="stop9582"
         offset="1"
         style="stop-color:#ffffff;stop-opacity:1" />
    </linearGradient>
    <linearGradient
       inkscape:collect="always"
       id="linearGradient9574">
      <stop
         style="stop-color:#fff6d5;stop-opacity:1"
         offset="0"
         id="stop9570" />
      <stop
         style="stop-color:#554400;stop-opacity:1"
         offset="1"
         id="stop9572" />
    </linearGradient>
    <radialGradient
       inkscape:collect="always"
       xlink:href="#linearGradient9574"
       id="radialGradient9576"
       cx="180"
       cy="180.00014"
       fx="180"
       fy="180.00014"
       r="66.567605"
       gradientTransform="matrix(2.0364426e-4,-3.905804,3.9058042,5.3741123e-7,-523.08191,883.04466)"
       gradientUnits="userSpaceOnUse" />
    <radialGradient
       inkscape:collect="always"
       xlink:href="#linearGradient9584"
       id="radialGradient9578"
       cx="180"
       cy="180.00002"
       fx="180"
       fy="180.00002"
       r="96.688338"
       gradientTransform="matrix(-1.1784524e-4,-1.6548018,1.6548014,1.0989919e-7,-117.84306,477.86431)"
       gradientUnits="userSpaceOnUse" />
  </defs>
  <sodipodi:namedview
     id="base"
     pagecolor="#ffffff"
     bordercolor="#666666"
     borderopacity="1.0"
     inkscape:pageopacity="0.0"
     inkscape:pageshadow="2"
     inkscape:zoom="1.4"
     inkscape:cx="91.691486"
     inkscape:cy="284.10918"
     inkscape:document-units="mm"
     inkscape:current-layer="layer1"
     showgrid="true"
     units="px"
     inkscape:window-width="1516"
     inkscape:window-height="833"
     inkscape:window-x="4"
     inkscape:window-y="48"
     inkscape:window-maximized="0">
    <inkscape:grid
       type="xygrid"
       id="grid3721" />
  </sodipodi:namedview>
  <metadata
     id="metadata5">
    <rdf:RDF>
      <cc:Work
         rdf:about="">
        <dc:format>image/svg+xml</dc:format>
        <dc:type
           rdf:resource="http://purl.org/dc/dcmitype/StillImage" />
        <dc:title></dc:title>
      </cc:Work>
    </rdf:RDF>
  </metadata>
  <g
     inkscape:label="Layer 1"
     inkscape:groupmode="layer"
     id="layer1"
     transform="translate(0,-201.74997)">
    <path
       style="fill:none;stroke:#000000;stroke-width:1.5875;stroke-miterlimit:4;stroke-dasharray:none"
       id="path4194"
       sodipodi:type="arc"
       sodipodi:cx="47.625"
       sodipodi:cy="249.37497"
       sodipodi:rx="26.458332"
       sodipodi:ry="26.458332"
       sodipodi:start="3.1415927"
       sodipodi:end="3.1413309"
       sodipodi:open="true"
       d="M 21.166668,249.37497 A 26.458332,26.458332 0 0 1 47.62327,222.91664 26.458332,26.458332 0 0 1 74.083332,249.37151 26.458332,26.458332 0 0 1 47.630194,275.8333 26.458332,26.458332 0 0 1 21.166669,249.3819" />
    <path
       style="fill:none;stroke:#000000;stroke-width:1.5875;stroke-miterlimit:4;stroke-dasharray:none"
       id="path5378"
       sodipodi:type="arc"
       sodipodi:cx="47.625"
       sodipodi:cy="249.37497"
       sodipodi:rx="18.520834"
       sodipodi:ry="18.520834"
       sodipodi:start="3.1415927"
       sodipodi:end="3.1413309"
       sodipodi:open="true"
       d="M 29.104166,249.37497 A 18.520834,18.520834 0 0 1 47.623789,230.85414 18.520834,18.520834 0 0 1 66.145834,249.37255 18.520834,18.520834 0 0 1 47.628636,267.8958 18.520834,18.520834 0 0 1 29.104167,249.37982" />
    <path
       style="fill:url(#radialGradient9576);stroke:#1b1b1b;stroke-width:0;stroke-miterlimit:4;stroke-dasharray:none;stroke-opacity:1;fill-opacity:1"
       d="m 174.22215,246.54058 c -22.56176,-1.77478 -43.69805,-16.36047 -54.26552,-37.44745 -2.31419,-4.61786 -4.52729,-11.31993 -5.65134,-17.11427 -1.14108,-5.88208 -1.16427,-17.49023 -0.0472,-23.62237 3.66431,-20.11516 16.67761,-37.87834 34.73107,-47.40798 9.7031,-5.12184 19.59759,-7.51832 31.04137,-7.51832 18.4536,0 33.90526,6.42776 46.98206,19.54414 13.22644,13.26647 19.61317,28.7799 19.55693,47.50399 -0.052,17.29831 -6.23973,32.68224 -18.22705,45.31575 -14.14799,14.91066 -33.5855,22.36184 -54.12032,20.74651 z"
       id="path9566"
       inkscape:connector-curvature="0"
       transform="matrix(0.26458333,0,0,0.26458333,0,201.74997)" />
    <path
       style="fill:url(#radialGradient9578);stroke:#1b1b1b;stroke-width:0;stroke-miterlimit:4;stroke-dasharray:none;stroke-opacity:1;fill-opacity:1"
       d="m 167.15108,275.87256 c -16.87996,-2.28818 -34.29925,-9.68506 -47.22463,-20.05335 -3.87542,-3.10873 -11.6259,-10.79425 -14.85626,-14.73174 -21.301127,-25.964 -27.436361,-61.35993 -16.195951,-93.43911 8.211938,-23.43618 26.332051,-43.72378 48.729881,-54.55885 38.25588,-18.506487 83.22238,-10.35197 112.48583,20.39891 35.7233,37.53908 35.47558,96.39453 -0.5622,133.57071 -16.08189,16.5899 -36.50249,26.61975 -59.24952,29.10119 -6.57397,0.71714 -16.63767,0.59192 -23.12715,-0.28776 z m 24.74874,-23.68989 c 26.68138,-4.34448 48.97726,-23.35662 57.54394,-49.06889 2.78332,-8.35392 3.31775,-12.08145 3.31775,-23.14054 0,-11.05908 -0.53443,-14.78661 -3.31775,-23.14054 -3.50075,-10.50726 -8.9861,-19.43074 -17.03123,-27.70616 -10.57651,-10.87926 -23.08612,-17.78396 -37.98733,-20.96717 -3.33496,-0.71242 -6.54772,-0.91711 -14.39467,-0.91711 -11.08156,0 -14.7826,0.53297 -23.21704,3.34338 -25.58526,8.52517 -44.31489,30.40422 -49.02253,57.26577 -1.07899,6.15662 -1.07652,17.77198 0.005,24.24366 3.29339,19.70456 14.61309,37.26376 31.35633,48.64013 15.14694,10.29175 34.30734,14.45002 52.74739,11.44747 z"
       id="path9568"
       inkscape:connector-curvature="0"
       transform="matrix(0.26458333,0,0,0.26458333,0,201.74997)" />
  </g>
</svg>
