<?xml version="1.0" encoding="UTF-8" standalone="no"?>
<!-- Created with Inkscape (http://www.inkscape.org/) -->

<svg
   xmlns:dc="http://purl.org/dc/elements/1.1/"
   xmlns:cc="http://creativecommons.org/ns#"
   xmlns:rdf="http://www.w3.org/1999/02/22-rdf-syntax-ns#"
   xmlns:svg="http://www.w3.org/2000/svg"
   xmlns="http://www.w3.org/2000/svg"
   xmlns:sodipodi="http://sodipodi.sourceforge.net/DTD/sodipodi-0.dtd"
   xmlns:inkscape="http://www.inkscape.org/namespaces/inkscape"
   width="360"
   height="360"
   viewBox="0 0 95.249998 95.250003"
   version="1.1"
   id="svg8"
   sodipodi:docname="biangai_w.svg"
   inkscape:version="0.92.4 5da689c313, 2019-01-14">
  <defs
     id="defs2" />
  <sodipodi:namedview
     id="base"
     pagecolor="#ffffff"
     bordercolor="#666666"
     borderopacity="1.0"
     inkscape:pageopacity="0.0"
     inkscape:pageshadow="2"
     inkscape:zoom="1.979899"
     inkscape:cx="185.93993"
     inkscape:cy="176.3397"
     inkscape:document-units="mm"
     inkscape:current-layer="layer1"
     showgrid="true"
     units="px"
     inkscape:window-width="1904"
     inkscape:window-height="972"
     inkscape:window-x="37"
     inkscape:window-y="70"
     inkscape:window-maximized="0">
    <inkscape:grid
       type="xygrid"
       id="grid3721" />
  </sodipodi:namedview>
  <metadata
     id="metadata5">
    <rdf:RDF>
      <cc:Work
         rdf:about="">
        <dc:format>image/svg+xml</dc:format>
        <dc:type
           rdf:resource="http://purl.org/dc/dcmitype/StillImage" />
        <dc:title></dc:title>
      </cc:Work>
    </rdf:RDF>
  </metadata>
  <g
     inkscape:label="Layer 1"
     inkscape:groupmode="layer"
     id="layer1"
     transform="translate(0,-201.74997)">
    <path
       style="fill:none;stroke:#000000;stroke-width:0.26458332"
       id="path3746"
       sodipodi:type="arc"
       sodipodi:cx="47.625"
       sodipodi:cy="249.37497"
       sodipodi:rx="37.041668"
       sodipodi:ry="37.041668"
       sodipodi:start="3.1415927"
       sodipodi:end="3.1413309"
       sodipodi:open="true"
       d="M 10.583332,249.37497 A 37.041668,37.041668 0 0 1 47.622577,212.3333 37.041668,37.041668 0 0 1 84.666668,249.37012 37.041668,37.041668 0 0 1 47.632271,286.41664 37.041668,37.041668 0 0 1 10.583333,249.38467" />
    <path
       style="fill:none;stroke:#000000;stroke-width:0.26458332"
       id="path268"
       sodipodi:type="arc"
       sodipodi:cx="47.625"
       sodipodi:cy="249.37497"
       sodipodi:rx="29.104166"
       sodipodi:ry="29.104166"
       sodipodi:start="3.1415927"
       sodipodi:end="3.1413309"
       sodipodi:open="true"
       d="M 18.520834,249.37497 A 29.104166,29.104166 0 0 1 47.623096,220.2708 29.104166,29.104166 0 0 1 76.729166,249.37116 29.104166,29.104166 0 0 1 47.630713,278.47913 29.104166,29.104166 0 0 1 18.520835,249.38259" />
    <path
       style="fill:#fff6d5;stroke:#000000;stroke-width:0.50507629"
       d="M 166.39348,318.6908 C 124.05531,314.15829 86.590139,291.38448 63.48914,256.13874 51.533568,237.89785 44.171539,217.41685 41.612007,195.27705 40.577197,186.32602 40.844389,168.22062 42.133766,159.92172 45.919139,135.55766 54.959221,114.42961 70.119662,94.514374 74.670113,88.536759 86.847162,76.147503 92.904881,71.33208 111.4866,56.561042 133.57157,46.634028 156.44509,42.771274 c 27.67054,-4.672851 55.57902,-1.083308 81.16414,10.439199 39.09104,17.605025 69.03718,54.399747 78.21673,96.104637 3.84663,17.47612 4.383,36.17253 1.53593,53.53809 -8.8835,54.18445 -49.83254,98.64276 -103.28755,112.13914 -11.93646,3.01374 -17.1731,3.63174 -32.0235,3.77927 -7.50038,0.0745 -14.54619,0.0381 -15.65736,-0.0808 z m 31.31473,-29.43753 c 36.02692,-6.07575 66.15504,-28.4942 81.83497,-60.89372 7.60374,-15.71163 11.05703,-31.1128 10.9852,-48.9924 -0.0538,-13.39858 -1.73407,-23.3152 -6.07605,-35.86041 -13.76876,-39.78184 -49.26145,-68.27068 -91.5291,-73.467466 -6.07515,-0.746936 -21.03326,-0.634176 -27.28737,0.205703 -12.34169,1.657397 -23.6813,5.138552 -34.82812,10.69191 -12.04383,6.000247 -20.76638,12.389053 -30.36275,22.239103 -16.357943,16.79038 -26.433879,37.31364 -30.091137,61.29141 -1.078871,7.07331 -1.208412,22.84414 -0.242697,29.54696 4.717564,32.74364 21.822948,60.28864 48.471484,78.05423 14.87484,9.9165 32.04775,16.11045 50.33622,18.15533 6.44309,0.72041 21.84015,0.2013 28.78935,-0.97065 z"
       id="path289"
       inkscape:connector-curvature="0"
       transform="matrix(0.26458333,0,0,0.26458333,0,201.74997)" />
    <path
       style="fill:#ffeeaa;stroke:#000000;stroke-width:0.50507629"
       d="M 166.89751,288.43854 C 105.55182,280.99385 62.207574,223.44758 72.183585,162.69099 76.012992,139.36887 86.230234,119.49163 102.95774,102.8211 123.98189,81.868569 150.16022,71.006043 179.778,70.945045 c 29.70635,-0.06118 56.33337,10.922506 77.2953,31.884425 17.04845,17.04846 27.38112,37.53405 31.08939,61.63793 1.21229,7.87993 1.22602,22.85725 0.0282,30.80965 -8.91082,59.16144 -62.47181,100.29988 -121.29341,93.16149 z"
       id="path295"
       inkscape:connector-curvature="0"
       transform="matrix(0.26458333,0,0,0.26458333,0,201.74997)" />
  </g>
</svg>
