<?xml version="1.0" encoding="UTF-8" standalone="no"?>
<!-- Created with Inkscape (http://www.inkscape.org/) -->

<svg
   xmlns:dc="http://purl.org/dc/elements/1.1/"
   xmlns:cc="http://creativecommons.org/ns#"
   xmlns:rdf="http://www.w3.org/1999/02/22-rdf-syntax-ns#"
   xmlns:svg="http://www.w3.org/2000/svg"
   xmlns="http://www.w3.org/2000/svg"
   xmlns:xlink="http://www.w3.org/1999/xlink"
   xmlns:sodipodi="http://sodipodi.sourceforge.net/DTD/sodipodi-0.dtd"
   xmlns:inkscape="http://www.inkscape.org/namespaces/inkscape"
   width="360"
   height="360"
   viewBox="0 0 95.249998 95.250003"
   version="1.1"
   id="svg8"
   inkscape:version="0.92.4 5da689c313, 2019-01-14"
   sodipodi:docname="khon_w.svg">
  <defs
     id="defs2">
    <linearGradient
       inkscape:collect="always"
       id="linearGradient4892">
      <stop
         style="stop-color:#fff6d5;stop-opacity:1;"
         offset="0"
         id="stop4888" />
      <stop
         style="stop-color:#ffeeaa;stop-opacity:1"
         offset="1"
         id="stop4890" />
    </linearGradient>
    <linearGradient
       inkscape:collect="always"
       id="linearGradient4884">
      <stop
         style="stop-color:#fff6d5;stop-opacity:1;"
         offset="0"
         id="stop4880" />
      <stop
         style="stop-color:#ffeeaa;stop-opacity:1"
         offset="1"
         id="stop4882" />
    </linearGradient>
    <linearGradient
       inkscape:collect="always"
       xlink:href="#linearGradient4884"
       id="linearGradient4886"
       x1="180"
       y1="155"
       x2="180"
       y2="275"
       gradientUnits="userSpaceOnUse" />
    <linearGradient
       inkscape:collect="always"
       xlink:href="#linearGradient4892"
       id="linearGradient4894"
       x1="180"
       y1="75"
       x2="180"
       y2="135"
       gradientUnits="userSpaceOnUse" />
  </defs>
  <sodipodi:namedview
     id="base"
     pagecolor="#ffffff"
     bordercolor="#666666"
     borderopacity="1.0"
     inkscape:pageopacity="0.0"
     inkscape:pageshadow="2"
     inkscape:zoom="1.979899"
     inkscape:cx="2.2068875"
     inkscape:cy="128.59808"
     inkscape:document-units="mm"
     inkscape:current-layer="layer1"
     showgrid="true"
     units="px"
     inkscape:window-width="1845"
     inkscape:window-height="911"
     inkscape:window-x="4"
     inkscape:window-y="48"
     inkscape:window-maximized="0">
    <inkscape:grid
       type="xygrid"
       id="grid3721" />
  </sodipodi:namedview>
  <metadata
     id="metadata5">
    <rdf:RDF>
      <cc:Work
         rdf:about="">
        <dc:format>image/svg+xml</dc:format>
        <dc:type
           rdf:resource="http://purl.org/dc/dcmitype/StillImage" />
        <dc:title></dc:title>
      </cc:Work>
    </rdf:RDF>
  </metadata>
  <g
     inkscape:label="Layer 1"
     inkscape:groupmode="layer"
     id="layer1"
     transform="translate(0,-201.74997)">
    <path
       style="fill:none;stroke:#000000;stroke-width:1.5875;stroke-miterlimit:4;stroke-dasharray:none"
       d="M 47.624998,291.7083 H 31.749999 v -3.96875 h 15.875"
       id="path180"
       inkscape:connector-curvature="0" />
    <path
       style="fill:none;stroke:#000000;stroke-width:1.5875;stroke-miterlimit:4;stroke-dasharray:none"
       d="m 31.749999,287.73955 7.9375,-10.58333"
       id="path184"
       inkscape:connector-curvature="0" />
    <path
       style="fill:none;stroke:#000000;stroke-width:1.5875;stroke-miterlimit:4;stroke-dasharray:none"
       d="m 47.624998,277.15622 h -7.937499 l -1.322917,-1.32292 1.322917,-1.32291 h 7.937499"
       id="path186"
       inkscape:connector-curvature="0" />
    <path
       style="fill:none;stroke:#000000;stroke-width:1.5875;stroke-miterlimit:4;stroke-dasharray:none"
       d="m 39.687499,274.51039 c -9.675001,-9.58117 -16.711174,-19.85105 -7.9375,-31.75 h 15.875"
       id="path194"
       inkscape:connector-curvature="0"
       sodipodi:nodetypes="ccc" />
    <path
       style="fill:none;stroke:#000000;stroke-width:1.5875;stroke-linecap:butt;stroke-linejoin:miter;stroke-miterlimit:4;stroke-dasharray:none;stroke-opacity:1"
       d="m 34.395832,242.76039 1.322917,-2.64584 h 11.90625"
       id="path196"
       inkscape:connector-curvature="0" />
    <path
       style="fill:none;stroke:#000000;stroke-width:1.5875;stroke-linecap:butt;stroke-linejoin:miter;stroke-miterlimit:4;stroke-dasharray:none;stroke-opacity:1"
       d="m 38.364582,240.11455 1.322917,-2.64583 h 7.9375"
       id="path198"
       inkscape:connector-curvature="0" />
    <path
       style="fill:none;stroke:#000000;stroke-width:1.5875;stroke-linecap:butt;stroke-linejoin:miter;stroke-miterlimit:4;stroke-dasharray:none;stroke-opacity:1"
       d="m 43.656248,237.46872 c 1.322262,-5.73325 1.061097,-12.95149 3.96875,-17.19792"
       id="path200"
       inkscape:connector-curvature="0"
       sodipodi:nodetypes="cc" />
    <path
       style="fill:none;stroke:#000000;stroke-width:1.5875;stroke-miterlimit:4;stroke-dasharray:none"
       d="m 47.625,291.7083 h 15.874999 v -3.96875 h -15.875"
       id="path180-3"
       inkscape:connector-curvature="0" />
    <path
       style="fill:none;stroke:#000000;stroke-width:1.5875;stroke-miterlimit:4;stroke-dasharray:none"
       d="m 63.499999,287.73955 -7.9375,-10.58333"
       id="path184-6"
       inkscape:connector-curvature="0" />
    <path
       style="fill:none;stroke:#000000;stroke-width:1.5875;stroke-miterlimit:4;stroke-dasharray:none"
       d="m 47.625,277.15622 h 7.937499 l 1.322917,-1.32292 -1.322917,-1.32291 H 47.625"
       id="path186-0"
       inkscape:connector-curvature="0" />
    <path
       style="fill:none;stroke:#000000;stroke-width:1.5875;stroke-miterlimit:4;stroke-dasharray:none"
       d="m 55.562499,274.51039 c 9.675001,-9.58117 16.711174,-19.85105 7.9375,-31.75 h -15.875"
       id="path194-6"
       inkscape:connector-curvature="0"
       sodipodi:nodetypes="ccc" />
    <path
       style="fill:none;stroke:#000000;stroke-width:1.5875;stroke-linecap:butt;stroke-linejoin:miter;stroke-miterlimit:4;stroke-dasharray:none;stroke-opacity:1"
       d="m 60.854166,242.76039 -1.322917,-2.64584 h -11.90625"
       id="path196-2"
       inkscape:connector-curvature="0" />
    <path
       style="fill:none;stroke:#000000;stroke-width:1.5875;stroke-linecap:butt;stroke-linejoin:miter;stroke-miterlimit:4;stroke-dasharray:none;stroke-opacity:1"
       d="m 56.885416,240.11455 -1.322917,-2.64583 h -7.9375"
       id="path198-6"
       inkscape:connector-curvature="0" />
    <path
       style="fill:none;stroke:#000000;stroke-width:1.5875;stroke-linecap:butt;stroke-linejoin:miter;stroke-miterlimit:4;stroke-dasharray:none;stroke-opacity:1"
       d="M 51.59375,237.46872 C 50.271488,231.73547 50.532653,224.51723 47.625,220.2708"
       id="path200-1"
       inkscape:connector-curvature="0"
       sodipodi:nodetypes="cc" />
    <path
       style="fill:#fff6d5;stroke:#1b1b1b;stroke-width:0;stroke-miterlimit:4;stroke-dasharray:none;stroke-opacity:1"
       d="m 135.34499,151.72631 c 0,-0.15269 0.34742,-0.94945 0.77204,-1.77058 l 0.77205,-1.49297 43.25888,0.12909 43.25888,0.12908 0.66977,1.6415 0.66978,1.6415 h -44.7007 c -24.58538,0 -44.7007,-0.12493 -44.7007,-0.27762 z"
       id="path4866"
       inkscape:connector-curvature="0"
       transform="matrix(0.26458333,0,0,0.26458333,0,201.74997)" />
    <path
       style="fill:#fff6d5;stroke:#1b1b1b;stroke-width:0;stroke-miterlimit:4;stroke-dasharray:none;stroke-opacity:1"
       d="m 150.49728,141.62478 c 0,-0.15269 0.34676,-0.94818 0.77058,-1.76776 l 0.77059,-1.49015 h 28.00579 28.00579 l 0.77059,1.49015 c 0.42382,0.81958 0.77058,1.61507 0.77058,1.76776 0,0.1527 -13.29613,0.27763 -29.54696,0.27763 -16.25083,0 -29.54696,-0.12493 -29.54696,-0.27763 z"
       id="path4868"
       inkscape:connector-curvature="0"
       transform="matrix(0.26458333,0,0,0.26458333,0,201.74997)" />
    <path
       style="fill:url(#linearGradient4894);stroke:#1b1b1b;stroke-width:0;stroke-miterlimit:4;stroke-dasharray:none;stroke-opacity:1;fill-opacity:1"
       d="m 169.1851,131.1122 c 0,-0.37877 0.22202,-1.85938 0.49338,-3.29025 0.27136,-1.43086 1.30826,-8.67816 2.30423,-16.10511 0.99596,-7.42694 2.37635,-16.188366 3.06753,-19.46983 1.18997,-5.64959 3.87193,-14.2587 4.72098,-15.154418 0.51409,-0.542349 2.72752,5.0385 4.04525,10.199508 1.57023,6.149985 2.33603,10.626793 4.31827,25.24415 0.99293,7.32203 2.02207,14.45569 2.28698,15.85257 0.26491,1.39688 0.48166,2.73605 0.48166,2.97592 0,0.23988 -4.88661,0.43614 -10.85914,0.43614 -8.83273,0 -10.85914,-0.12851 -10.85914,-0.68868 z"
       id="path4870"
       inkscape:connector-curvature="0"
       transform="matrix(0.26458333,0,0,0.26458333,0,201.74997)" />
    <path
       style="fill:url(#linearGradient4886);stroke:#1b1b1b;stroke-width:0;stroke-miterlimit:4;stroke-dasharray:none;stroke-opacity:1;fill-opacity:1"
       d="m 143.63963,263.75206 c -13.46397,-14.45697 -21.49395,-25.26072 -27.36283,-36.81474 -11.68757,-23.00919 -10.70546,-43.70808 3.0954,-65.23883 l 2.32911,-3.63364 h 58.29098 58.29099 l 2.50731,3.91434 c 4.875,7.61072 8.26725,15.64859 10.0005,23.69602 1.02337,4.75151 1.17012,15.57256 0.27626,20.37188 -3.2973,17.70392 -14.04492,35.55565 -34.89327,57.9575 l -7.16826,7.70242 H 180.027 151.04819 Z"
       id="path4872"
       inkscape:connector-curvature="0"
       transform="matrix(0.26458333,0,0,0.26458333,0,201.74997)" />
    <path
       style="fill:#ffeeaa;stroke:#1b1b1b;stroke-width:0;stroke-miterlimit:4;stroke-dasharray:none;stroke-opacity:1"
       d="m 150.31893,280.88036 c -0.785,-0.86742 -0.77895,-0.9834 0.0924,-1.77194 0.85186,-0.77092 3.43102,-0.83251 29.87488,-0.71333 26.37363,0.11887 28.98964,0.20514 29.4733,0.97199 0.38513,0.61065 0.3486,1.06104 -0.13314,1.6415 -0.59159,0.71283 -3.81155,0.79995 -29.56566,0.79995 -27.4094,0 -28.94514,-0.0479 -29.74175,-0.92817 z"
       id="path4874"
       inkscape:connector-curvature="0"
       transform="matrix(0.26458333,0,0,0.26458333,0,201.74997)" />
    <path
       style="fill:#ffeeaa;stroke:#1b1b1b;stroke-width:0;stroke-miterlimit:4;stroke-dasharray:none;stroke-opacity:1"
       d="m 127.0803,321.07821 c 0.20968,-0.34724 5.79429,-7.84762 12.41025,-16.66752 l 12.02901,-16.03617 h 28.46817 28.46818 l 11.25853,15.02602 c 6.19219,8.26431 11.81579,15.7647 12.49689,16.66752 l 1.23835,1.6415 h -53.3753 c -42.56684,0 -53.2981,-0.12785 -52.99408,-0.63135 z"
       id="path4876"
       inkscape:connector-curvature="0"
       transform="matrix(0.26458333,0,0,0.26458333,0,201.74997)" />
    <path
       style="fill:#ffeeaa;stroke:#1b1b1b;stroke-width:0;stroke-miterlimit:4;stroke-dasharray:none;stroke-opacity:1"
       d="m 123.22316,332.5687 v -4.29315 h 56.82108 56.82108 v 4.29315 4.29314 h -56.82108 -56.82108 z"
       id="path4878"
       inkscape:connector-curvature="0"
       transform="matrix(0.26458333,0,0,0.26458333,0,201.74997)" />
  </g>
</svg>
