<?xml version="1.0" encoding="UTF-8" standalone="no"?>
<!-- Created with Inkscape (http://www.inkscape.org/) -->

<svg
   xmlns:dc="http://purl.org/dc/elements/1.1/"
   xmlns:cc="http://creativecommons.org/ns#"
   xmlns:rdf="http://www.w3.org/1999/02/22-rdf-syntax-ns#"
   xmlns:svg="http://www.w3.org/2000/svg"
   xmlns="http://www.w3.org/2000/svg"
   xmlns:xlink="http://www.w3.org/1999/xlink"
   xmlns:sodipodi="http://sodipodi.sourceforge.net/DTD/sodipodi-0.dtd"
   xmlns:inkscape="http://www.inkscape.org/namespaces/inkscape"
   width="360"
   height="360"
   viewBox="0 0 95.249998 95.250003"
   version="1.1"
   id="svg8"
   inkscape:version="0.92.4 5da689c313, 2019-01-14"
   sodipodi:docname="khon_w.svg">
  <defs
     id="defs2">
    <linearGradient
       inkscape:collect="always"
       id="linearGradient924">
      <stop
         style="stop-color:#fff6d5;stop-opacity:1;"
         offset="0"
         id="stop920" />
      <stop
         style="stop-color:#ffeeaa;stop-opacity:1"
         offset="1"
         id="stop922" />
    </linearGradient>
    <linearGradient
       inkscape:collect="always"
       id="linearGradient916">
      <stop
         style="stop-color:#fff6d5;stop-opacity:1;"
         offset="0"
         id="stop912" />
      <stop
         style="stop-color:#ffeeaa;stop-opacity:1"
         offset="1"
         id="stop914" />
    </linearGradient>
    <linearGradient
       inkscape:collect="always"
       xlink:href="#linearGradient916"
       id="linearGradient918"
       x1="180"
       y1="155"
       x2="180"
       y2="275"
       gradientUnits="userSpaceOnUse" />
    <linearGradient
       inkscape:collect="always"
       xlink:href="#linearGradient924"
       id="linearGradient926"
       x1="180"
       y1="70"
       x2="180"
       y2="135"
       gradientUnits="userSpaceOnUse" />
  </defs>
  <sodipodi:namedview
     id="base"
     pagecolor="#ffffff"
     bordercolor="#666666"
     borderopacity="1.0"
     inkscape:pageopacity="0.0"
     inkscape:pageshadow="2"
     inkscape:zoom="1.979899"
     inkscape:cx="30.704526"
     inkscape:cy="151.97741"
     inkscape:document-units="mm"
     inkscape:current-layer="layer1"
     showgrid="true"
     units="px"
     inkscape:window-width="1734"
     inkscape:window-height="1006"
     inkscape:window-x="4"
     inkscape:window-y="48"
     inkscape:window-maximized="0">
    <inkscape:grid
       type="xygrid"
       id="grid3721" />
  </sodipodi:namedview>
  <metadata
     id="metadata5">
    <rdf:RDF>
      <cc:Work
         rdf:about="">
        <dc:format>image/svg+xml</dc:format>
        <dc:type
           rdf:resource="http://purl.org/dc/dcmitype/StillImage" />
        <dc:title></dc:title>
      </cc:Work>
    </rdf:RDF>
  </metadata>
  <g
     inkscape:label="Layer 1"
     inkscape:groupmode="layer"
     id="layer1"
     transform="translate(0,-201.74997)">
    <path
       style="fill:none;stroke:#000000;stroke-width:1.05833333;stroke-miterlimit:4;stroke-dasharray:none"
       d="M 47.624999,291.7083 H 31.75 l 0,-3.96875 h 15.875"
       id="path180"
       inkscape:connector-curvature="0" />
    <path
       style="fill:none;stroke:#000000;stroke-width:1.05833333;stroke-miterlimit:4;stroke-dasharray:none"
       d="m 31.75,287.73955 7.9375,-10.58333"
       id="path184"
       inkscape:connector-curvature="0" />
    <path
       style="fill:none;stroke:#000000;stroke-width:1.05833333;stroke-miterlimit:4;stroke-dasharray:none"
       d="M 47.624999,277.15622 H 39.6875 l -1.322917,-1.32292 1.322917,-1.32291 h 7.937499"
       id="path186"
       inkscape:connector-curvature="0" />
    <path
       style="fill:none;stroke:#000000;stroke-width:1.05833333;stroke-miterlimit:4;stroke-dasharray:none"
       d="m 39.6875,274.51039 c -9.675001,-9.58117 -16.711174,-19.85105 -7.9375,-31.75 h 15.875"
       id="path194"
       inkscape:connector-curvature="0"
       sodipodi:nodetypes="ccc" />
    <path
       style="fill:none;stroke:#000000;stroke-width:1.05833333;stroke-linecap:butt;stroke-linejoin:miter;stroke-opacity:1;stroke-miterlimit:4;stroke-dasharray:none"
       d="m 34.395833,242.76039 1.322917,-2.64584 11.90625,0"
       id="path196"
       inkscape:connector-curvature="0" />
    <path
       style="fill:none;stroke:#000000;stroke-width:1.05833333;stroke-linecap:butt;stroke-linejoin:miter;stroke-opacity:1;stroke-miterlimit:4;stroke-dasharray:none"
       d="m 38.364583,240.11455 1.322917,-2.64583 7.9375,0"
       id="path198"
       inkscape:connector-curvature="0" />
    <path
       style="fill:none;stroke:#000000;stroke-width:1.05833333;stroke-linecap:butt;stroke-linejoin:miter;stroke-opacity:1;stroke-miterlimit:4;stroke-dasharray:none"
       d="m 43.656249,237.46872 c 1.322262,-5.73325 1.061097,-12.95149 3.96875,-17.19792"
       id="path200"
       inkscape:connector-curvature="0"
       sodipodi:nodetypes="cc" />
    <path
       style="fill:none;stroke:#000000;stroke-width:1.05833333;stroke-miterlimit:4;stroke-dasharray:none"
       d="M 47.625001,291.7083 H 63.5 v -3.96875 H 47.625"
       id="path180-3"
       inkscape:connector-curvature="0" />
    <path
       style="fill:none;stroke:#000000;stroke-width:1.05833333;stroke-miterlimit:4;stroke-dasharray:none"
       d="M 63.5,287.73955 55.5625,277.15622"
       id="path184-6"
       inkscape:connector-curvature="0" />
    <path
       style="fill:none;stroke:#000000;stroke-width:1.05833333;stroke-miterlimit:4;stroke-dasharray:none"
       d="M 47.625001,277.15622 H 55.5625 l 1.322917,-1.32292 -1.322917,-1.32291 h -7.937499"
       id="path186-0"
       inkscape:connector-curvature="0" />
    <path
       style="fill:none;stroke:#000000;stroke-width:1.05833333;stroke-miterlimit:4;stroke-dasharray:none"
       d="m 55.5625,274.51039 c 9.675001,-9.58117 16.711174,-19.85105 7.9375,-31.75 H 47.625"
       id="path194-6"
       inkscape:connector-curvature="0"
       sodipodi:nodetypes="ccc" />
    <path
       style="fill:none;stroke:#000000;stroke-width:1.05833333;stroke-linecap:butt;stroke-linejoin:miter;stroke-opacity:1;stroke-miterlimit:4;stroke-dasharray:none"
       d="M 60.854167,242.76039 59.53125,240.11455 H 47.625"
       id="path196-2"
       inkscape:connector-curvature="0" />
    <path
       style="fill:none;stroke:#000000;stroke-width:1.05833333;stroke-linecap:butt;stroke-linejoin:miter;stroke-opacity:1;stroke-miterlimit:4;stroke-dasharray:none"
       d="M 56.885417,240.11455 55.5625,237.46872 H 47.625"
       id="path198-6"
       inkscape:connector-curvature="0" />
    <path
       style="fill:none;stroke:#000000;stroke-width:1.05833333;stroke-linecap:butt;stroke-linejoin:miter;stroke-opacity:1;stroke-miterlimit:4;stroke-dasharray:none"
       d="m 51.593751,237.46872 c -1.322262,-5.73325 -1.061097,-12.95149 -3.96875,-17.19792"
       id="path200-1"
       inkscape:connector-curvature="0"
       sodipodi:nodetypes="cc" />
    <path
       style="fill:url(#linearGradient926);stroke:#1b1b1b;stroke-width:0.5152216;stroke-miterlimit:4;stroke-dasharray:none;stroke-opacity:1;fill-opacity:1"
       d="m 168.01362,131.52879 c 0.58779,-2.66506 1.38086,-7.98282 3.03182,-20.32932 2.50824,-18.757462 4.23607,-26.563275 7.43467,-33.587573 l 1.49495,-3.282995 0.80135,1.509405 c 2.94523,5.547566 5.5079,15.96753 7.4545,30.310403 1.53449,11.30637 3.25531,23.16957 3.64489,25.12754 l 0.27636,1.38896 h -12.19459 -12.19459 z"
       id="path890"
       inkscape:connector-curvature="0"
       transform="matrix(0.26458333,0,0,0.26458333,0,201.74997)" />
    <path
       style="fill:#fff6d5;stroke:#1b1b1b;stroke-width:0.5152216;stroke-miterlimit:4;stroke-dasharray:none;stroke-opacity:1"
       d="m 149.96272,139.98882 1.36242,-2.77792 h 28.67562 28.67563 l 1.27119,2.50859 c 0.69917,1.37972 1.2712,2.62979 1.2712,2.77792 0,0.14813 -14.08915,0.26933 -31.30924,0.26933 H 148.6003 Z"
       id="path892"
       inkscape:connector-curvature="0"
       transform="matrix(0.26458333,0,0,0.26458333,0,201.74997)" />
    <path
       style="fill:#fff6d5;stroke:#1b1b1b;stroke-width:0.5152216;stroke-miterlimit:4;stroke-dasharray:none;stroke-opacity:1"
       d="m 133.94212,152.59893 c 0,-0.14813 0.57203,-1.39819 1.27119,-2.77792 l 1.2712,-2.50859 h 43.57538 43.57537 l 1.36242,2.77792 1.36242,2.77792 h -46.20899 c -25.41495,0 -46.20899,-0.1212 -46.20899,-0.26933 z"
       id="path894"
       inkscape:connector-curvature="0"
       transform="matrix(0.26458333,0,0,0.26458333,0,201.74997)" />
    <path
       style="fill:url(#linearGradient918);stroke:#1b1b1b;stroke-width:0.5152216;stroke-miterlimit:4;stroke-dasharray:none;stroke-opacity:1;fill-opacity:1"
       d="m 143.85119,265.374 c -20.53535,-21.62971 -31.68366,-39.5548 -35.44445,-56.99021 -0.44431,-2.05987 -0.92668,-6.47262 -1.07194,-9.80613 -0.54603,-12.53086 2.87918,-24.22739 10.74557,-36.69435 l 2.82007,-4.46936 h 59.02995 59.02995 l 1.96404,2.90419 c 12.1308,17.93763 14.93643,37.64788 8.11964,57.04251 -5.17741,14.73038 -16.27306,30.77094 -34.08545,49.27604 l -5.71249,5.93465 h -29.28085 -29.28085 z"
       id="path896"
       inkscape:connector-curvature="0"
       transform="matrix(0.26458333,0,0,0.26458333,0,201.74997)" />
    <path
       style="fill:#ffeeaa;stroke:#1b1b1b;stroke-width:0.5152216;stroke-miterlimit:4;stroke-dasharray:none;stroke-opacity:1"
       d="m 149.43937,281.25411 -1.35925,-1.41875 1.41866,-1.35917 1.41866,-1.35917 h 29.04603 29.04602 l 1.35925,1.41876 1.35925,1.41875 -1.41866,1.35917 -1.41866,1.35916 h -29.04603 -29.04602 z"
       id="path898"
       inkscape:connector-curvature="0"
       transform="matrix(0.26458333,0,0,0.26458333,0,201.74997)" />
    <path
       style="fill:#ffeeaa;stroke:#1b1b1b;stroke-width:0.5152216;stroke-miterlimit:4;stroke-dasharray:none;stroke-opacity:1"
       d="m 125.17251,321.94254 c 0.20976,-0.34724 6.13514,-8.30219 13.16751,-17.67767 l 12.78612,-17.04632 28.9099,0.021 28.9099,0.021 12.87945,17.22136 c 7.08369,9.47175 12.9552,17.41727 13.0478,17.6567 0.0936,0.24209 -24.30105,0.43533 -54.95685,0.43533 -43.96686,0 -55.04801,-0.1278 -54.74383,-0.63135 z"
       id="path900"
       inkscape:connector-curvature="0"
       transform="matrix(0.26458333,0,0,0.26458333,0,201.74997)" />
    <path
       style="fill:#ffeeaa;stroke:#1b1b1b;stroke-width:0.5152216;stroke-miterlimit:4;stroke-dasharray:none;stroke-opacity:1"
       d="m 122.32536,332.42288 v -5.30331 h 57.83123 57.83124 v 5.30331 5.3033 h -57.83124 -57.83123 z"
       id="path902"
       inkscape:connector-curvature="0"
       transform="matrix(0.26458333,0,0,0.26458333,0,201.74997)" />
  </g>
</svg>
