<?xml version="1.0" encoding="UTF-8" standalone="no"?>
<!-- Created with Inkscape (http://www.inkscape.org/) -->

<svg
   xmlns:dc="http://purl.org/dc/elements/1.1/"
   xmlns:cc="http://creativecommons.org/ns#"
   xmlns:rdf="http://www.w3.org/1999/02/22-rdf-syntax-ns#"
   xmlns:svg="http://www.w3.org/2000/svg"
   xmlns="http://www.w3.org/2000/svg"
   xmlns:xlink="http://www.w3.org/1999/xlink"
   xmlns:sodipodi="http://sodipodi.sourceforge.net/DTD/sodipodi-0.dtd"
   xmlns:inkscape="http://www.inkscape.org/namespaces/inkscape"
   width="360"
   height="360"
   viewBox="0 0 95.249998 95.250003"
   version="1.1"
   id="svg8"
   inkscape:version="0.92.4 5da689c313, 2019-01-14"
   sodipodi:docname="khun_w.svg">
  <defs
     id="defs2">
    <linearGradient
       inkscape:collect="always"
       id="linearGradient1394">
      <stop
         style="stop-color:#fff6d5;stop-opacity:1;"
         offset="0"
         id="stop1390" />
      <stop
         style="stop-color:#ffeeaa;stop-opacity:1"
         offset="1"
         id="stop1392" />
    </linearGradient>
    <linearGradient
       inkscape:collect="always"
       xlink:href="#linearGradient1394"
       id="linearGradient1396"
       x1="180"
       y1="95"
       x2="180"
       y2="260"
       gradientUnits="userSpaceOnUse" />
    <linearGradient
       inkscape:collect="always"
       xlink:href="#linearGradient1394"
       id="linearGradient1404"
       x1="180"
       y1="10"
       x2="180"
       y2="65"
       gradientUnits="userSpaceOnUse" />
  </defs>
  <sodipodi:namedview
     id="base"
     pagecolor="#ffffff"
     bordercolor="#666666"
     borderopacity="1.0"
     inkscape:pageopacity="0.0"
     inkscape:pageshadow="2"
     inkscape:zoom="1.979899"
     inkscape:cx="160.28077"
     inkscape:cy="169.22948"
     inkscape:document-units="mm"
     inkscape:current-layer="layer1"
     showgrid="true"
     units="px"
     inkscape:window-width="1617"
     inkscape:window-height="1019"
     inkscape:window-x="4"
     inkscape:window-y="48"
     inkscape:window-maximized="0">
    <inkscape:grid
       type="xygrid"
       id="grid3721" />
  </sodipodi:namedview>
  <metadata
     id="metadata5">
    <rdf:RDF>
      <cc:Work
         rdf:about="">
        <dc:format>image/svg+xml</dc:format>
        <dc:type
           rdf:resource="http://purl.org/dc/dcmitype/StillImage" />
        <dc:title />
      </cc:Work>
    </rdf:RDF>
  </metadata>
  <g
     inkscape:label="Layer 1"
     inkscape:groupmode="layer"
     id="layer1"
     transform="translate(0,-201.74997)">
    <path
       style="fill:none;stroke:#000000;stroke-width:1.32291667;stroke-miterlimit:4;stroke-dasharray:none"
       d="m 47.624999,270.54164 h -9.260416 l -1.322917,1.32291 1.322917,1.32292 h 9.260416"
       id="path601"
       inkscape:connector-curvature="0" />
    <path
       style="fill:none;stroke:#000000;stroke-width:1.32291667;stroke-miterlimit:4;stroke-dasharray:none"
       d="m 38.364583,273.18747 v 2.64583 h 9.260416"
       id="path603"
       inkscape:connector-curvature="0" />
    <path
       style="fill:none;stroke:#000000;stroke-width:1.32291667;stroke-miterlimit:4;stroke-dasharray:none"
       d="M 47.624999,294.35414 H 26.458333 l 0,-2.64584 H 47.625"
       id="path1287"
       inkscape:connector-curvature="0" />
    <path
       style="fill:none;stroke:#000000;stroke-width:1.32291667;stroke-miterlimit:4;stroke-dasharray:none"
       d="m 27.78125,291.7083 v -5.29166 h 19.843749"
       id="path1289"
       inkscape:connector-curvature="0" />
    <path
       style="fill:none;stroke:#000000;stroke-width:1.32291667;stroke-miterlimit:4;stroke-dasharray:none"
       d="M 38.364583,275.8333 27.78125,286.41664"
       id="path1291"
       inkscape:connector-curvature="0" />
    <path
       style="fill:none;stroke:#000000;stroke-width:1.32291667;stroke-miterlimit:4;stroke-dasharray:none"
       d="M 38.364583,270.54164 C 18.321248,252.66669 15.736257,238.05119 27.78125,226.88539"
       id="path1293"
       inkscape:connector-curvature="0"
       sodipodi:nodetypes="cc" />
    <path
       style="fill:none;stroke:#000000;stroke-width:1.32291667;stroke-miterlimit:4;stroke-dasharray:none"
       d="M 27.78125,226.88539 H 47.624999"
       id="path1295"
       inkscape:connector-curvature="0" />
    <path
       style="fill:none;stroke:#000000;stroke-width:1.32291667;stroke-miterlimit:4;stroke-dasharray:none"
       d="M 30.427083,226.88539 31.75,224.23955 h 15.874999"
       id="path1303"
       inkscape:connector-curvature="0" />
    <path
       style="fill:none;stroke:#000000;stroke-width:1.32291667;stroke-miterlimit:4;stroke-dasharray:none"
       d="m 34.395833,224.23955 1.322917,-2.64583 h 11.906249"
       id="path1305"
       inkscape:connector-curvature="0" />
    <path
       style="fill:none;stroke:#000000;stroke-width:1.32291667;stroke-miterlimit:4;stroke-dasharray:none"
       d="m 38.364583,221.59372 1.322917,-2.64583 h 7.937499"
       id="path1307"
       inkscape:connector-curvature="0" />
    <path
       style="fill:none;stroke:#000000;stroke-width:1.32291667;stroke-miterlimit:4;stroke-dasharray:none"
       d="m 43.656249,218.94789 c 0.550322,-9.57433 2.241521,-12.17336 3.96875,-14.55209"
       id="path1309"
       inkscape:connector-curvature="0"
       sodipodi:nodetypes="cc" />
    <path
       style="fill:none;stroke:#000000;stroke-width:1.32291667;stroke-miterlimit:4;stroke-dasharray:none"
       d="m 47.625001,270.54164 h 9.260416 l 1.322917,1.32291 -1.322917,1.32292 h -9.260416"
       id="path601-2"
       inkscape:connector-curvature="0" />
    <path
       style="fill:none;stroke:#000000;stroke-width:1.32291667;stroke-miterlimit:4;stroke-dasharray:none"
       d="m 56.885417,273.18747 v 2.64583 h -9.260416"
       id="path603-6"
       inkscape:connector-curvature="0" />
    <path
       style="fill:none;stroke:#000000;stroke-width:1.32291667;stroke-miterlimit:4;stroke-dasharray:none"
       d="M 47.625001,294.35414 H 68.791667 V 291.7083 H 47.625001"
       id="path1287-1"
       inkscape:connector-curvature="0" />
    <path
       style="fill:none;stroke:#000000;stroke-width:1.32291667;stroke-miterlimit:4;stroke-dasharray:none"
       d="m 67.46875,291.7083 v -5.29166 H 47.625001"
       id="path1289-8"
       inkscape:connector-curvature="0" />
    <path
       style="fill:none;stroke:#000000;stroke-width:1.32291667;stroke-miterlimit:4;stroke-dasharray:none"
       d="M 56.885417,275.8333 67.46875,286.41664"
       id="path1291-7"
       inkscape:connector-curvature="0" />
    <path
       style="fill:none;stroke:#000000;stroke-width:1.32291667;stroke-miterlimit:4;stroke-dasharray:none"
       d="M 56.885417,270.54164 C 76.928752,252.66669 79.513743,238.05119 67.46875,226.88539"
       id="path1293-9"
       inkscape:connector-curvature="0"
       sodipodi:nodetypes="cc" />
    <path
       style="fill:none;stroke:#000000;stroke-width:1.32291667;stroke-miterlimit:4;stroke-dasharray:none"
       d="M 67.46875,226.88539 H 47.625001"
       id="path1295-2"
       inkscape:connector-curvature="0" />
    <path
       style="fill:none;stroke:#000000;stroke-width:1.32291667;stroke-miterlimit:4;stroke-dasharray:none"
       d="M 64.822917,226.88539 63.5,224.23955 H 47.625001"
       id="path1303-0"
       inkscape:connector-curvature="0" />
    <path
       style="fill:none;stroke:#000000;stroke-width:1.32291667;stroke-miterlimit:4;stroke-dasharray:none"
       d="M 60.854167,224.23955 59.53125,221.59372 H 47.625001"
       id="path1305-2"
       inkscape:connector-curvature="0" />
    <path
       style="fill:none;stroke:#000000;stroke-width:1.32291667;stroke-miterlimit:4;stroke-dasharray:none"
       d="M 56.885417,221.59372 55.5625,218.94789 h -7.937499"
       id="path1307-3"
       inkscape:connector-curvature="0" />
    <path
       style="fill:none;stroke:#000000;stroke-width:1.32291667;stroke-miterlimit:4;stroke-dasharray:none"
       d="M 51.593751,218.94789 C 51.043429,209.37356 49.35223,206.77453 47.625001,204.3958"
       id="path1309-7"
       inkscape:connector-curvature="0"
       sodipodi:nodetypes="cc" />
    <path
       style="fill:url(#linearGradient1404);stroke:#000000;stroke-width:5.00000006;fill-opacity:1;stroke-miterlimit:4;stroke-dasharray:none"
       d="m 165.95726,60.991173 c 1.32555,-15.04873 3.1126,-25.746515 5.54393,-33.187441 1.49794,-4.584372 4.67247,-11.110359 6.9416,-14.270063 l 1.54263,-2.148072 1.21794,1.632414 c 6.75865,9.058659 11.39101,25.89026 12.57754,45.700318 l 0.34033,5.682108 H 179.8891 165.65696 Z"
       id="path1360"
       inkscape:connector-curvature="0"
       transform="matrix(0.26458333,0,0,0.26458333,0,201.74997)" />
    <path
       style="fill:#fff6d5;stroke:#000000;stroke-width:5.00000006;stroke-miterlimit:4;stroke-dasharray:none"
       d="m 148.12366,70.208815 2.12919,-4.293149 h 29.6813 29.6813 l 2.02595,4.029399 c 1.11426,2.216169 2.02594,4.148086 2.02594,4.293149 0,0.145061 -15.2264,0.263749 -33.83643,0.263749 h -33.83643 z"
       id="path1362"
       inkscape:connector-curvature="0"
       transform="matrix(0.26458333,0,0,0.26458333,0,201.74997)" />
    <path
       style="fill:#fff6d5;stroke:#000000;stroke-width:5.00000006;stroke-miterlimit:4;stroke-dasharray:none"
       d="m 118.32416,89.906789 2.12919,-4.293148 h 59.4808 59.4808 l 2.02595,4.029399 c 1.11426,2.216169 2.02594,4.148086 2.02594,4.293148 0,0.145062 -28.63617,0.263749 -63.63593,0.263749 h -63.63593 z"
       id="path1364"
       inkscape:connector-curvature="0"
       transform="matrix(0.26458333,0,0,0.26458333,0,201.74997)" />
    <path
       style="fill:#fff6d5;stroke:#000000;stroke-width:5.00000006;stroke-miterlimit:4;stroke-dasharray:none"
       d="m 133.47645,79.805264 2.12918,-4.293149 h 44.47414 44.47413 l 2.12918,4.293149 2.12918,4.293148 h -48.73249 -48.7325 z"
       id="path1366"
       inkscape:connector-curvature="0"
       transform="matrix(0.26458333,0,0,0.26458333,0,201.74997)" />
    <path
       style="fill:url(#linearGradient1396);stroke:#000000;stroke-width:5.00000006;fill-opacity:1;stroke-miterlimit:4;stroke-dasharray:none"
       d="m 134.60029,249.13208 c -12.21897,-11.90411 -18.80697,-19.0012 -26.26,-28.28922 C 93.065916,201.80784 82.734648,181.49951 79.500979,164.153 c -1.270789,-6.81695 -1.27133,-19.47927 -0.0011,-25.38926 3.08301,-14.34414 9.702048,-26.31203 21.216351,-38.36132 l 4.47914,-4.687254 h 74.90893 74.90893 l 4.57187,4.924494 c 18.76074,20.20777 25.39139,41.42259 20.4919,65.56398 -5.28117,26.02206 -25.64561,56.16463 -58.72302,86.91928 l -6.70802,6.23696 H 179.87229 145.0986 Z"
       id="path1368"
       inkscape:connector-curvature="0"
       transform="matrix(0.26458333,0,0,0.26458333,0,201.74997)" />
    <path
       style="fill:#ffeeaa;stroke:#000000;stroke-width:5.00000006;stroke-miterlimit:4;stroke-dasharray:none"
       d="m 143.46307,267.18992 -2.2293,-2.27149 1.9741,-2.02166 1.9741,-2.02166 h 34.8978 34.89779 l 1.9741,2.02166 1.9741,2.02166 -2.2293,2.27149 -2.22929,2.27148 h -34.3874 -34.38741 z"
       id="path1370"
       inkscape:connector-curvature="0"
       transform="matrix(0.26458333,0,0,0.26458333,0,201.74997)" />
    <path
       style="fill:#ffeeaa;stroke:#000000;stroke-width:5.00000006;stroke-miterlimit:4;stroke-dasharray:none"
       d="m 145.48204,275.01724 v -4.04061 h 34.34519 34.34518 v 4.04061 4.04061 h -34.34518 -34.34519 z"
       id="path1372"
       inkscape:connector-curvature="0"
       transform="matrix(0.26458333,0,0,0.26458333,0,201.74997)" />
    <path
       style="fill:#ffeeaa;stroke:#000000;stroke-width:5.00000006;stroke-miterlimit:4;stroke-dasharray:none"
       d="m 126.28914,300.01852 19.44052,-19.44544 h 34.35011 34.3501 l 19.44052,19.44544 19.44051,19.44543 h -73.23113 -73.23114 z"
       id="path1374"
       inkscape:connector-curvature="0"
       transform="matrix(0.26458333,0,0,0.26458333,0,201.74997)" />
    <path
       style="fill:#ffeeaa;stroke:#000000;stroke-width:5.00000006;stroke-miterlimit:4;stroke-dasharray:none"
       d="m 105.58102,330.07056 v -9.09138 h 74.24621 74.24621 v 9.09138 9.09137 h -74.24621 -74.24621 z"
       id="path1376"
       inkscape:connector-curvature="0"
       transform="matrix(0.26458333,0,0,0.26458333,0,201.74997)" />
    <path
       style="fill:#ffeeaa;stroke:#000000;stroke-width:5.00000006;stroke-miterlimit:4;stroke-dasharray:none"
       d="m 100.53025,344.9703 v -4.29314 h 79.29698 79.29697 v 4.29314 4.29315 h -79.29697 -79.29698 z"
       id="path1380"
       inkscape:connector-curvature="0"
       transform="matrix(0.26458333,0,0,0.26458333,0,201.74997)" />
  </g>
</svg>
