<?xml version="1.0" encoding="UTF-8" standalone="no"?>
<!-- Created with Inkscape (http://www.inkscape.org/) -->

<svg
   xmlns:dc="http://purl.org/dc/elements/1.1/"
   xmlns:cc="http://creativecommons.org/ns#"
   xmlns:rdf="http://www.w3.org/1999/02/22-rdf-syntax-ns#"
   xmlns:svg="http://www.w3.org/2000/svg"
   xmlns="http://www.w3.org/2000/svg"
   xmlns:xlink="http://www.w3.org/1999/xlink"
   xmlns:sodipodi="http://sodipodi.sourceforge.net/DTD/sodipodi-0.dtd"
   xmlns:inkscape="http://www.inkscape.org/namespaces/inkscape"
   width="360"
   height="360"
   viewBox="0 0 95.249998 95.250003"
   version="1.1"
   id="svg8"
   inkscape:version="0.92.4 5da689c313, 2019-01-14"
   sodipodi:docname="khun_w.svg">
  <defs
     id="defs2">
    <linearGradient
       inkscape:collect="always"
       id="linearGradient12274">
      <stop
         style="stop-color:#fff6d5;stop-opacity:1;"
         offset="0"
         id="stop12270" />
      <stop
         style="stop-color:#ffeeaa;stop-opacity:1"
         offset="1"
         id="stop12272" />
    </linearGradient>
    <linearGradient
       inkscape:collect="always"
       id="linearGradient12266">
      <stop
         style="stop-color:#fff6d5;stop-opacity:1;"
         offset="0"
         id="stop12262" />
      <stop
         style="stop-color:#ffeeaa;stop-opacity:1"
         offset="1"
         id="stop12264" />
    </linearGradient>
    <linearGradient
       inkscape:collect="always"
       xlink:href="#linearGradient12266"
       id="linearGradient12268"
       x1="180"
       y1="95"
       x2="180"
       y2="260"
       gradientUnits="userSpaceOnUse" />
    <linearGradient
       inkscape:collect="always"
       xlink:href="#linearGradient12274"
       id="linearGradient12276"
       x1="180"
       y1="10"
       x2="180"
       y2="65"
       gradientUnits="userSpaceOnUse" />
  </defs>
  <sodipodi:namedview
     id="base"
     pagecolor="#ffffff"
     bordercolor="#666666"
     borderopacity="1.0"
     inkscape:pageopacity="0.0"
     inkscape:pageshadow="2"
     inkscape:zoom="1.979899"
     inkscape:cx="92.095472"
     inkscape:cy="169.22948"
     inkscape:document-units="mm"
     inkscape:current-layer="layer1"
     showgrid="true"
     units="px"
     inkscape:window-width="1849"
     inkscape:window-height="979"
     inkscape:window-x="4"
     inkscape:window-y="48"
     inkscape:window-maximized="0">
    <inkscape:grid
       type="xygrid"
       id="grid3721" />
  </sodipodi:namedview>
  <metadata
     id="metadata5">
    <rdf:RDF>
      <cc:Work
         rdf:about="">
        <dc:format>image/svg+xml</dc:format>
        <dc:type
           rdf:resource="http://purl.org/dc/dcmitype/StillImage" />
        <dc:title></dc:title>
      </cc:Work>
    </rdf:RDF>
  </metadata>
  <g
     inkscape:label="Layer 1"
     inkscape:groupmode="layer"
     id="layer1"
     transform="translate(0,-201.74997)">
    <path
       style="fill:none;stroke:#000000;stroke-width:0.79375;stroke-miterlimit:4;stroke-dasharray:none"
       d="m 47.624999,270.54164 h -9.260416 l -1.322917,1.32291 1.322917,1.32292 h 9.260416"
       id="path601"
       inkscape:connector-curvature="0" />
    <path
       style="fill:none;stroke:#000000;stroke-width:0.79375;stroke-miterlimit:4;stroke-dasharray:none"
       d="m 38.364583,273.18747 v 2.64583 h 9.260416"
       id="path603"
       inkscape:connector-curvature="0" />
    <path
       style="fill:none;stroke:#000000;stroke-width:0.79375;stroke-miterlimit:4;stroke-dasharray:none"
       d="M 47.624999,294.35414 H 26.458333 l 0,-2.64584 H 47.625"
       id="path1287"
       inkscape:connector-curvature="0" />
    <path
       style="fill:none;stroke:#000000;stroke-width:0.79375;stroke-miterlimit:4;stroke-dasharray:none"
       d="m 27.78125,291.7083 v -5.29166 h 19.843749"
       id="path1289"
       inkscape:connector-curvature="0" />
    <path
       style="fill:none;stroke:#000000;stroke-width:0.79375;stroke-miterlimit:4;stroke-dasharray:none"
       d="M 38.364583,275.8333 27.78125,286.41664"
       id="path1291"
       inkscape:connector-curvature="0" />
    <path
       style="fill:none;stroke:#000000;stroke-width:0.79375;stroke-miterlimit:4;stroke-dasharray:none"
       d="M 38.364583,270.54164 C 18.321248,252.66669 15.736257,238.05119 27.78125,226.88539"
       id="path1293"
       inkscape:connector-curvature="0"
       sodipodi:nodetypes="cc" />
    <path
       style="fill:none;stroke:#000000;stroke-width:0.79375;stroke-miterlimit:4;stroke-dasharray:none"
       d="M 27.78125,226.88539 H 47.624999"
       id="path1295"
       inkscape:connector-curvature="0" />
    <path
       style="fill:none;stroke:#000000;stroke-width:0.79375;stroke-miterlimit:4;stroke-dasharray:none"
       d="M 30.427083,226.88539 31.75,224.23955 h 15.874999"
       id="path1303"
       inkscape:connector-curvature="0" />
    <path
       style="fill:none;stroke:#000000;stroke-width:0.79375;stroke-miterlimit:4;stroke-dasharray:none"
       d="m 34.395833,224.23955 1.322917,-2.64583 h 11.906249"
       id="path1305"
       inkscape:connector-curvature="0" />
    <path
       style="fill:none;stroke:#000000;stroke-width:0.79375;stroke-miterlimit:4;stroke-dasharray:none"
       d="m 38.364583,221.59372 1.322917,-2.64583 h 7.937499"
       id="path1307"
       inkscape:connector-curvature="0" />
    <path
       style="fill:none;stroke:#000000;stroke-width:0.79375;stroke-miterlimit:4;stroke-dasharray:none"
       d="m 43.656249,218.94789 c 0.550322,-9.57433 2.241521,-12.17336 3.96875,-14.55209"
       id="path1309"
       inkscape:connector-curvature="0"
       sodipodi:nodetypes="cc" />
    <path
       style="fill:none;stroke:#000000;stroke-width:0.79375;stroke-miterlimit:4;stroke-dasharray:none"
       d="m 47.625001,270.54164 h 9.260416 l 1.322917,1.32291 -1.322917,1.32292 h -9.260416"
       id="path601-2"
       inkscape:connector-curvature="0" />
    <path
       style="fill:none;stroke:#000000;stroke-width:0.79375;stroke-miterlimit:4;stroke-dasharray:none"
       d="m 56.885417,273.18747 v 2.64583 h -9.260416"
       id="path603-6"
       inkscape:connector-curvature="0" />
    <path
       style="fill:none;stroke:#000000;stroke-width:0.79375;stroke-miterlimit:4;stroke-dasharray:none"
       d="M 47.625001,294.35414 H 68.791667 V 291.7083 H 47.625001"
       id="path1287-1"
       inkscape:connector-curvature="0" />
    <path
       style="fill:none;stroke:#000000;stroke-width:0.79375;stroke-miterlimit:4;stroke-dasharray:none"
       d="m 67.46875,291.7083 v -5.29166 H 47.625001"
       id="path1289-8"
       inkscape:connector-curvature="0" />
    <path
       style="fill:none;stroke:#000000;stroke-width:0.79375;stroke-miterlimit:4;stroke-dasharray:none"
       d="M 56.885417,275.8333 67.46875,286.41664"
       id="path1291-7"
       inkscape:connector-curvature="0" />
    <path
       style="fill:none;stroke:#000000;stroke-width:0.79375;stroke-miterlimit:4;stroke-dasharray:none"
       d="M 56.885417,270.54164 C 76.928752,252.66669 79.513743,238.05119 67.46875,226.88539"
       id="path1293-9"
       inkscape:connector-curvature="0"
       sodipodi:nodetypes="cc" />
    <path
       style="fill:none;stroke:#000000;stroke-width:0.79375;stroke-miterlimit:4;stroke-dasharray:none"
       d="M 67.46875,226.88539 H 47.625001"
       id="path1295-2"
       inkscape:connector-curvature="0" />
    <path
       style="fill:none;stroke:#000000;stroke-width:0.79375;stroke-miterlimit:4;stroke-dasharray:none"
       d="M 64.822917,226.88539 63.5,224.23955 H 47.625001"
       id="path1303-0"
       inkscape:connector-curvature="0" />
    <path
       style="fill:none;stroke:#000000;stroke-width:0.79375;stroke-miterlimit:4;stroke-dasharray:none"
       d="M 60.854167,224.23955 59.53125,221.59372 H 47.625001"
       id="path1305-2"
       inkscape:connector-curvature="0" />
    <path
       style="fill:none;stroke:#000000;stroke-width:0.79375;stroke-miterlimit:4;stroke-dasharray:none"
       d="M 56.885417,221.59372 55.5625,218.94789 h -7.937499"
       id="path1307-3"
       inkscape:connector-curvature="0" />
    <path
       style="fill:none;stroke:#000000;stroke-width:0.79375;stroke-miterlimit:4;stroke-dasharray:none"
       d="M 51.593751,218.94789 C 51.043429,209.37356 49.35223,206.77453 47.625001,204.3958"
       id="path1309-7"
       inkscape:connector-curvature="0"
       sodipodi:nodetypes="cc" />
    <path
       style="fill:url(#linearGradient12268);stroke:#1b1b1b;stroke-width:2.52538133;stroke-miterlimit:4;stroke-dasharray:none;stroke-opacity:1;fill-opacity:1"
       d="M 136.9609,250.13164 C 121.97356,236.08098 108.54854,220.6525 99.211575,206.74885 80.425963,178.77525 74.902172,152.51346 83.013932,129.7403 c 3.365767,-9.44914 10.449265,-20.42827 18.742508,-29.05013 l 4.00807,-4.166882 h 74.28378 74.28378 l 4.36271,4.634482 c 18.4608,19.61083 25.09134,40.38115 20.48656,64.1747 -4.9727,25.69467 -25.07923,55.82269 -57.41466,86.03128 l -7.26157,6.78394 h -34.49689 -34.49688 z"
       id="path12242"
       inkscape:connector-curvature="0"
       transform="matrix(0.26458333,0,0,0.26458333,0,201.74997)" />
    <path
       style="fill:#fff6d5;stroke:#1b1b1b;stroke-width:2.52538133;stroke-miterlimit:4;stroke-dasharray:none;stroke-opacity:1"
       d="m 118.05639,93.225889 c 0,-0.146817 0.68513,-1.624165 1.5225,-3.282995 l 1.5225,-3.016055 h 58.97825 58.97825 l 1.61891,3.282996 1.61892,3.282996 h -62.11966 c -34.16582,0 -62.11967,-0.120124 -62.11967,-0.266942 z"
       id="path12244"
       inkscape:connector-curvature="0"
       transform="matrix(0.26458333,0,0,0.26458333,0,201.74997)" />
    <path
       style="fill:#fff6d5;stroke:#1b1b1b;stroke-width:2.52538133;stroke-miterlimit:4;stroke-dasharray:none;stroke-opacity:1"
       d="m 134.33195,80.108309 1.61892,-3.282995 h 43.97737 43.97736 l 1.61892,3.282995 1.61892,3.282996 h -47.2152 -47.2152 z"
       id="path12246"
       inkscape:connector-curvature="0"
       transform="matrix(0.26458333,0,0,0.26458333,0,201.74997)" />
    <path
       style="fill:#fff6d5;stroke:#1b1b1b;stroke-width:2.52538133;stroke-miterlimit:4;stroke-dasharray:none;stroke-opacity:1"
       d="m 149.48424,70.006784 1.61892,-3.282996 h 28.92621 28.92621 l 1.5225,3.016055 c 0.83737,1.65883 1.5225,3.136178 1.5225,3.282995 0,0.146818 -14.43043,0.266942 -32.06763,0.266942 h -32.06763 z"
       id="path12248"
       inkscape:connector-curvature="0"
       transform="matrix(0.26458333,0,0,0.26458333,0,201.74997)" />
    <path
       style="fill:url(#linearGradient12276);stroke:#1b1b1b;stroke-width:2.52538133;stroke-miterlimit:4;stroke-dasharray:none;stroke-opacity:1;fill-opacity:1"
       d="m 167.05365,61.04168 c 0.003,-1.180615 0.34723,-5.214912 0.76569,-8.965103 1.84596,-16.543649 4.55322,-26.389651 9.64421,-35.075046 l 2.35216,-4.012855 1.17389,1.472196 c 1.88925,2.36935 5.56754,10.241967 6.95571,14.887272 2.32187,7.769812 4.01059,18.275646 5.01326,31.18846 l 0.2059,2.65165 h -13.05784 -13.05784 l 0.005,-2.146574 z"
       id="path12250"
       inkscape:connector-curvature="0"
       transform="matrix(0.26458333,0,0,0.26458333,0,201.74997)" />
    <path
       style="fill:#ffeeaa;stroke:#1b1b1b;stroke-width:2.52538133;stroke-miterlimit:4;stroke-dasharray:none;stroke-opacity:1"
       d="m 143.91279,266.58206 -1.61588,-1.66717 1.66711,-1.61583 1.66712,-1.61583 h 34.34833 34.34833 l 1.61588,1.66716 1.61588,1.66717 -1.66712,1.61583 -1.66711,1.61583 H 179.877 145.52867 Z"
       id="path12252"
       inkscape:connector-curvature="0"
       transform="matrix(0.26458333,0,0,0.26458333,0,201.74997)" />
    <path
       style="fill:#ffeeaa;stroke:#1b1b1b;stroke-width:2.52538133;stroke-miterlimit:4;stroke-dasharray:none;stroke-opacity:1"
       d="m 146.84574,275.06775 v -3.283 h 33.33503 33.33504 v 3.283 3.283 h -33.33504 -33.33503 z"
       id="path12254"
       inkscape:connector-curvature="0"
       transform="matrix(0.26458333,0,0,0.26458333,0,201.74997)" />
    <path
       style="fill:#ffeeaa;stroke:#1b1b1b;stroke-width:2.52538133;stroke-miterlimit:4;stroke-dasharray:none;stroke-opacity:1"
       d="m 127.4003,300.06902 18.17749,-18.18274 h 34.35045 34.35044 l 18.17749,18.18274 18.17748,18.18275 h -70.70541 -70.70542 z"
       id="path12256"
       inkscape:connector-curvature="0"
       transform="matrix(0.26458333,0,0,0.26458333,0,201.74997)" />
    <path
       style="fill:#ffeeaa;stroke:#1b1b1b;stroke-width:2.52538133;stroke-miterlimit:4;stroke-dasharray:none;stroke-opacity:1"
       d="m 106.94471,330.12106 v -8.33376 h 73.23606 73.23606 v 8.33376 8.33376 h -73.23606 -73.23606 z"
       id="path12258"
       inkscape:connector-curvature="0"
       transform="matrix(0.26458333,0,0,0.26458333,0,201.74997)" />
    <path
       style="fill:#ffeeaa;stroke:#1b1b1b;stroke-width:2.52538133;stroke-miterlimit:4;stroke-dasharray:none;stroke-opacity:1"
       d="m 101.89395,344.76827 v -3.28299 h 78.28682 78.28682 v 3.28299 3.283 h -78.28682 -78.28682 z"
       id="path12260"
       inkscape:connector-curvature="0"
       transform="matrix(0.26458333,0,0,0.26458333,0,201.74997)" />
  </g>
</svg>
