<?xml version="1.0" encoding="UTF-8" standalone="no"?>
<!-- Created with Inkscape (http://www.inkscape.org/) -->

<svg
   xmlns:dc="http://purl.org/dc/elements/1.1/"
   xmlns:cc="http://creativecommons.org/ns#"
   xmlns:rdf="http://www.w3.org/1999/02/22-rdf-syntax-ns#"
   xmlns:svg="http://www.w3.org/2000/svg"
   xmlns="http://www.w3.org/2000/svg"
   xmlns:xlink="http://www.w3.org/1999/xlink"
   xmlns:sodipodi="http://sodipodi.sourceforge.net/DTD/sodipodi-0.dtd"
   xmlns:inkscape="http://www.inkscape.org/namespaces/inkscape"
   width="360"
   height="360"
   viewBox="0 0 95.249998 95.250003"
   version="1.1"
   id="svg8"
   inkscape:version="0.92.4 5da689c313, 2019-01-14"
   sodipodi:docname="khun_w.svg">
  <defs
     id="defs2">
    <linearGradient
       inkscape:collect="always"
       id="linearGradient2589">
      <stop
         style="stop-color:#fff6d5;stop-opacity:1;"
         offset="0"
         id="stop2585" />
      <stop
         style="stop-color:#ffeeaa;stop-opacity:1"
         offset="1"
         id="stop2587" />
    </linearGradient>
    <linearGradient
       inkscape:collect="always"
       xlink:href="#linearGradient2589"
       id="linearGradient2591"
       x1="180"
       y1="100"
       x2="180"
       y2="255"
       gradientUnits="userSpaceOnUse" />
    <linearGradient
       inkscape:collect="always"
       xlink:href="#linearGradient2589"
       id="linearGradient2599"
       x1="180"
       y1="20"
       x2="180"
       y2="70"
       gradientUnits="userSpaceOnUse" />
  </defs>
  <sodipodi:namedview
     id="base"
     pagecolor="#ffffff"
     bordercolor="#666666"
     borderopacity="1.0"
     inkscape:pageopacity="0.0"
     inkscape:pageshadow="2"
     inkscape:zoom="1.979899"
     inkscape:cx="119.34063"
     inkscape:cy="172.30668"
     inkscape:document-units="mm"
     inkscape:current-layer="layer1"
     showgrid="true"
     units="px"
     inkscape:window-width="1451"
     inkscape:window-height="1006"
     inkscape:window-x="4"
     inkscape:window-y="48"
     inkscape:window-maximized="0">
    <inkscape:grid
       type="xygrid"
       id="grid3721" />
  </sodipodi:namedview>
  <metadata
     id="metadata5">
    <rdf:RDF>
      <cc:Work
         rdf:about="">
        <dc:format>image/svg+xml</dc:format>
        <dc:type
           rdf:resource="http://purl.org/dc/dcmitype/StillImage" />
        <dc:title />
      </cc:Work>
    </rdf:RDF>
  </metadata>
  <g
     inkscape:label="Layer 1"
     inkscape:groupmode="layer"
     id="layer1"
     transform="translate(0,-201.74997)">
    <path
       style="fill:none;stroke:#000000;stroke-width:1.5875;stroke-miterlimit:4;stroke-dasharray:none"
       d="m 47.624998,269.29655 h -8.715685 l -1.245099,1.24509 1.245099,1.2451 h 8.715685"
       id="path601"
       inkscape:connector-curvature="0" />
    <path
       style="fill:none;stroke:#000000;stroke-width:1.5875;stroke-miterlimit:4;stroke-dasharray:none"
       d="m 38.909313,271.78674 v 2.49019 h 8.715685"
       id="path603"
       inkscape:connector-curvature="0" />
    <path
       style="fill:none;stroke:#000000;stroke-width:1.5875;stroke-miterlimit:4;stroke-dasharray:none"
       d="M 47.624998,291.70831 H 27.703431 v -2.4902 h 19.921568"
       id="path1287"
       inkscape:connector-curvature="0" />
    <path
       style="fill:none;stroke:#000000;stroke-width:1.5875;stroke-miterlimit:4;stroke-dasharray:none"
       d="m 28.948529,289.21811 v -4.98039 h 18.676469"
       id="path1289"
       inkscape:connector-curvature="0" />
    <path
       style="fill:none;stroke:#000000;stroke-width:1.5875;stroke-miterlimit:4;stroke-dasharray:none"
       d="m 38.909313,274.27693 -9.960784,9.96079"
       id="path1291"
       inkscape:connector-curvature="0" />
    <path
       style="fill:none;stroke:#000000;stroke-width:1.5875;stroke-miterlimit:4;stroke-dasharray:none"
       d="M 38.909313,269.29655 C 20.044998,252.47306 17.612065,238.7173 28.948529,228.20831"
       id="path1293"
       inkscape:connector-curvature="0"
       sodipodi:nodetypes="cc" />
    <path
       style="fill:none;stroke:#000000;stroke-width:1.5875;stroke-miterlimit:4;stroke-dasharray:none"
       d="M 28.948529,228.20831 H 47.624998"
       id="path1295"
       inkscape:connector-curvature="0" />
    <path
       style="fill:none;stroke:#000000;stroke-width:1.5875;stroke-miterlimit:4;stroke-dasharray:none"
       d="m 31.438725,228.20831 1.245098,-2.4902 h 14.941175"
       id="path1303"
       inkscape:connector-curvature="0" />
    <path
       style="fill:none;stroke:#000000;stroke-width:1.5875;stroke-miterlimit:4;stroke-dasharray:none"
       d="m 35.174019,225.71811 1.245098,-2.49019 h 11.205881"
       id="path1305"
       inkscape:connector-curvature="0" />
    <path
       style="fill:none;stroke:#000000;stroke-width:1.5875;stroke-miterlimit:4;stroke-dasharray:none"
       d="m 38.909313,223.22792 1.245098,-2.4902 h 7.470587"
       id="path1307"
       inkscape:connector-curvature="0" />
    <path
       style="fill:none;stroke:#000000;stroke-width:1.5875;stroke-miterlimit:4;stroke-dasharray:none"
       d="m 43.889704,220.73772 c 0.51795,-9.01113 2.109667,-11.45728 3.735294,-13.69608"
       id="path1309"
       inkscape:connector-curvature="0"
       sodipodi:nodetypes="cc" />
    <path
       style="fill:none;stroke:#000000;stroke-width:1.5875;stroke-miterlimit:4;stroke-dasharray:none"
       d="m 47.625,269.29655 h 8.715685 l 1.245099,1.24509 -1.245099,1.2451 H 47.625"
       id="path601-2"
       inkscape:connector-curvature="0" />
    <path
       style="fill:none;stroke:#000000;stroke-width:1.5875;stroke-miterlimit:4;stroke-dasharray:none"
       d="m 56.340685,271.78674 v 2.49019 H 47.625"
       id="path603-6"
       inkscape:connector-curvature="0" />
    <path
       style="fill:none;stroke:#000000;stroke-width:1.5875;stroke-miterlimit:4;stroke-dasharray:none"
       d="m 47.625,291.70831 h 19.921567 v -2.4902 H 47.625"
       id="path1287-1"
       inkscape:connector-curvature="0" />
    <path
       style="fill:none;stroke:#000000;stroke-width:1.5875;stroke-miterlimit:4;stroke-dasharray:none"
       d="m 66.301469,289.21811 v -4.98039 H 47.625"
       id="path1289-8"
       inkscape:connector-curvature="0" />
    <path
       style="fill:none;stroke:#000000;stroke-width:1.5875;stroke-miterlimit:4;stroke-dasharray:none"
       d="m 56.340685,274.27693 9.960784,9.96079"
       id="path1291-7"
       inkscape:connector-curvature="0" />
    <path
       style="fill:none;stroke:#000000;stroke-width:1.5875;stroke-miterlimit:4;stroke-dasharray:none"
       d="M 56.340685,269.29655 C 75.205,252.47306 77.637932,238.7173 66.301469,228.20831"
       id="path1293-9"
       inkscape:connector-curvature="0"
       sodipodi:nodetypes="cc" />
    <path
       style="fill:none;stroke:#000000;stroke-width:1.5875;stroke-miterlimit:4;stroke-dasharray:none"
       d="M 66.301469,228.20831 H 47.625"
       id="path1295-2"
       inkscape:connector-curvature="0" />
    <path
       style="fill:none;stroke:#000000;stroke-width:1.5875;stroke-miterlimit:4;stroke-dasharray:none"
       d="m 63.811273,228.20831 -1.245098,-2.4902 H 47.625"
       id="path1303-0"
       inkscape:connector-curvature="0" />
    <path
       style="fill:none;stroke:#000000;stroke-width:1.5875;stroke-miterlimit:4;stroke-dasharray:none"
       d="m 60.075979,225.71811 -1.245098,-2.49019 H 47.625"
       id="path1305-2"
       inkscape:connector-curvature="0" />
    <path
       style="fill:none;stroke:#000000;stroke-width:1.5875;stroke-miterlimit:4;stroke-dasharray:none"
       d="m 56.340685,223.22792 -1.245098,-2.4902 H 47.625"
       id="path1307-3"
       inkscape:connector-curvature="0" />
    <path
       style="fill:none;stroke:#000000;stroke-width:1.5875;stroke-miterlimit:4;stroke-dasharray:none"
       d="M 51.360294,220.73772 C 50.842344,211.72659 49.250627,209.28044 47.625,207.04164"
       id="path1309-7"
       inkscape:connector-curvature="0"
       sodipodi:nodetypes="cc" />
    <path
       style="fill:url(#linearGradient2591);stroke:#1b1b1b;stroke-width:0;stroke-miterlimit:4;stroke-dasharray:none;stroke-opacity:1;fill-opacity:1"
       d="m 141.49682,245.74242 c -25.41178,-23.69386 -43.429217,-48.4963 -50.424501,-69.41332 -2.812034,-8.40843 -3.61051,-12.55501 -3.950043,-20.51303 -0.751932,-17.62386 4.858767,-31.96517 18.502454,-47.29346 l 4.60806,-5.17703 h 69.61649 69.61649 l 3.72904,3.91434 c 16.84373,17.68075 22.97511,37.58936 18.39394,59.72527 -2.1513,10.39494 -8.57946,24.71114 -16.36069,36.437 -8.63825,13.01733 -17.691,23.60326 -32.92681,38.50331 l -10.13587,9.9125 h -32.06551 -32.0655 z"
       id="path1774"
       inkscape:connector-curvature="0"
       transform="matrix(0.26458333,0,0,0.26458333,0,201.74997)" />
    <path
       style="fill:#fff6d5;stroke:#1b1b1b;stroke-width:0;stroke-miterlimit:4;stroke-dasharray:none;stroke-opacity:1"
       d="m 124.34089,96.550817 c 0,-0.125825 0.26377,-0.807678 0.58615,-1.515229 l 0.58615,-1.286456 h 54.45419 54.45419 l 0.78356,1.515229 0.78356,1.515229 h -55.8239 c -30.70315,0 -55.8239,-0.102948 -55.8239,-0.228773 z"
       id="path1776"
       inkscape:connector-curvature="0"
       transform="matrix(0.26458333,0,0,0.26458333,0,201.74997)" />
    <path
       style="fill:#fff6d5;stroke:#1b1b1b;stroke-width:0;stroke-miterlimit:4;stroke-dasharray:none;stroke-opacity:1"
       d="m 138.48302,86.897398 c 0,-0.157158 0.23529,-0.725369 0.52285,-1.26269 0.51026,-0.953429 1.49929,-0.976948 41.08265,-0.976948 h 40.55979 l 0.57532,1.26269 0.57532,1.262691 h -41.65796 c -22.91188,0 -41.65797,-0.128584 -41.65797,-0.285743 z"
       id="path1778"
       inkscape:connector-curvature="0"
       transform="matrix(0.26458333,0,0,0.26458333,0,201.74997)" />
    <path
       style="fill:#fff6d5;stroke:#1b1b1b;stroke-width:0;stroke-miterlimit:4;stroke-dasharray:none;stroke-opacity:1"
       d="m 152.8777,76.576539 0.78355,-1.515229 h 26.23803 26.23802 l 0.78356,1.515229 0.78355,1.515229 h -27.80513 -27.80514 z"
       id="path1780"
       inkscape:connector-curvature="0"
       transform="matrix(0.26458333,0,0,0.26458333,0,201.74997)" />
    <path
       style="fill:url(#linearGradient2599);stroke:#1b1b1b;stroke-width:0;stroke-miterlimit:4;stroke-dasharray:none;stroke-opacity:1;fill-opacity:1"
       d="m 169.55719,64.833516 c 0.65071,-7.31643 2.33184,-17.917831 3.62381,-22.852176 1.95789,-7.477654 5.76349,-16.131629 6.92791,-15.754141 0.78929,0.255872 4.21747,7.468352 5.5664,11.711006 2.20317,6.929444 4.82762,22.641251 4.82996,28.915616 l 6.1e-4,1.641498 H 179.8687 169.23151 Z"
       id="path1782"
       inkscape:connector-curvature="0"
       transform="matrix(0.26458333,0,0,0.26458333,0,201.74997)" />
    <path
       style="fill:#ffeeaa;stroke:#1b1b1b;stroke-width:0;stroke-miterlimit:4;stroke-dasharray:none;stroke-opacity:1"
       d="m 147.5744,260.67684 c -0.50164,-0.60443 -0.50164,-0.9108 0,-1.51523 0.54668,-0.65871 4.76672,-0.75761 32.32488,-0.75761 27.55816,0 31.7782,0.0989 32.32488,0.75761 0.50164,0.60443 0.50164,0.9108 0,1.51523 -0.95049,1.14526 -63.69928,1.14526 -64.64976,0 z"
       id="path1784"
       inkscape:connector-curvature="0"
       transform="matrix(0.26458333,0,0,0.26458333,0,201.74997)" />
    <path
       style="fill:#ffeeaa;stroke:#1b1b1b;stroke-width:0;stroke-miterlimit:4;stroke-dasharray:none;stroke-opacity:1"
       d="m 150.09978,269.51567 v -1.51522 h 29.7995 29.7995 v 1.51522 1.51523 h -29.7995 -29.7995 z"
       id="path1788"
       inkscape:connector-curvature="0"
       transform="matrix(0.26458333,0,0,0.26458333,0,201.74997)" />
    <path
       style="fill:#ffeeaa;stroke:#1b1b1b;stroke-width:0;stroke-miterlimit:4;stroke-dasharray:none;stroke-opacity:1"
       d="m 132.92719,293.00172 15.39861,-15.40483 h 31.82602 31.82601 l 15.39862,15.40483 15.39861,15.40483 h -62.62324 -62.62325 z"
       id="path1790"
       inkscape:connector-curvature="0"
       transform="matrix(0.26458333,0,0,0.26458333,0,201.74997)" />
    <path
       style="fill:#ffeeaa;stroke:#1b1b1b;stroke-width:0;stroke-miterlimit:4;stroke-dasharray:none;stroke-opacity:1"
       d="m 112.72413,321.28599 v -6.31345 h 67.42769 67.42768 v 6.31345 6.31345 h -67.42768 -67.42769 z"
       id="path1792"
       inkscape:connector-curvature="0"
       transform="matrix(0.26458333,0,0,0.26458333,0,201.74997)" />
    <path
       style="fill:#ffeeaa;stroke:#1b1b1b;stroke-width:0;stroke-miterlimit:4;stroke-dasharray:none;stroke-opacity:1"
       d="m 108.17845,335.17559 v -1.51523 h 71.97337 71.97337 v 1.51523 1.51523 h -71.97337 -71.97337 z"
       id="path1794"
       inkscape:connector-curvature="0"
       transform="matrix(0.26458333,0,0,0.26458333,0,201.74997)" />
  </g>
</svg>
