<?xml version="1.0" encoding="UTF-8" standalone="no"?>
<!-- Created with Inkscape (http://www.inkscape.org/) -->

<svg
   xmlns:dc="http://purl.org/dc/elements/1.1/"
   xmlns:cc="http://creativecommons.org/ns#"
   xmlns:rdf="http://www.w3.org/1999/02/22-rdf-syntax-ns#"
   xmlns:svg="http://www.w3.org/2000/svg"
   xmlns="http://www.w3.org/2000/svg"
   xmlns:sodipodi="http://sodipodi.sourceforge.net/DTD/sodipodi-0.dtd"
   xmlns:inkscape="http://www.inkscape.org/namespaces/inkscape"
   width="360"
   height="360"
   viewBox="0 0 95.249998 95.250003"
   version="1.1"
   id="svg8"
   inkscape:version="0.92.4 5da689c313, 2019-01-14"
   sodipodi:docname="ma.svg">
  <defs
     id="defs2" />
  <sodipodi:namedview
     id="base"
     pagecolor="#ffffff"
     bordercolor="#666666"
     borderopacity="1.0"
     inkscape:pageopacity="0.0"
     inkscape:pageshadow="2"
     inkscape:zoom="1.979899"
     inkscape:cx="185.1364"
     inkscape:cy="188.11469"
     inkscape:document-units="mm"
     inkscape:current-layer="layer1"
     showgrid="true"
     units="px"
     inkscape:window-width="1850"
     inkscape:window-height="1023"
     inkscape:window-x="4"
     inkscape:window-y="48"
     inkscape:window-maximized="0">
    <inkscape:grid
       type="xygrid"
       id="grid3721" />
  </sodipodi:namedview>
  <metadata
     id="metadata5">
    <rdf:RDF>
      <cc:Work
         rdf:about="">
        <dc:format>image/svg+xml</dc:format>
        <dc:type
           rdf:resource="http://purl.org/dc/dcmitype/StillImage" />
        <dc:title />
      </cc:Work>
    </rdf:RDF>
  </metadata>
  <g
     inkscape:label="Layer 1"
     inkscape:groupmode="layer"
     id="layer1"
     transform="translate(0,-201.74997)">
    <path
       style="fill:none;stroke:#1b1b1b;stroke-width:1.5875;stroke-miterlimit:4;stroke-dasharray:none;stroke-opacity:1"
       d="m 30.193629,286.7279 -2.490196,-2.49019 h 39.843136 l -2.490197,2.49019"
       id="path362"
       inkscape:connector-curvature="0"
       sodipodi:nodetypes="cccc" />
    <path
       style="fill:none;stroke:#1b1b1b;stroke-width:1.5875;stroke-miterlimit:4;stroke-dasharray:none;stroke-opacity:1"
       d="m 25.213237,265.56124 c -5.431671,-4.00016 -3.387866,-16.20737 -2.490196,-23.65686 0.683273,-6.44466 -0.862002,-10.44197 3.735294,-14.94118 15.545509,2.58147 27.754338,3.95502 16.186274,18.67648 -0.986959,11.32633 -15.439216,13.44705 -18.67647,22.41175 -0.706151,3.42448 0.74702,12.97632 3.735294,16.18628"
       id="path374"
       inkscape:connector-curvature="0"
       sodipodi:nodetypes="cccccc" />
    <path
       style="fill:none;stroke:#1b1b1b;stroke-width:1.58749998;stroke-miterlimit:4;stroke-dasharray:none;stroke-opacity:1"
       d="m 26.458333,261.28122 c -2.177643,-1.14888 -2.524949,-2.99998 -2.490196,-4.9804 1.497107,0.99684 2.323683,2.66044 2.490196,4.9804 z"
       id="path4074"
       inkscape:connector-curvature="0"
       sodipodi:nodetypes="ccc" />
    <path
       style="fill:none;stroke:#1b1b1b;stroke-width:1.5875;stroke-miterlimit:4;stroke-dasharray:none;stroke-opacity:1"
       d="m 24.715198,238.791 c 1.245099,-6.22548 3.735294,-8.71569 9.960784,-8.71569"
       id="path4076"
       inkscape:connector-curvature="0"
       sodipodi:nodetypes="cc" />
    <path
       style="fill:none;stroke:#1b1b1b;stroke-width:1.5875;stroke-miterlimit:4;stroke-dasharray:none;stroke-opacity:1"
       d="m 35.423042,231.81845 c -3.983833,0.17313 -7.507165,1.32445 -8.715687,7.47059 7.938816,0.91757 7.527151,-3.81819 8.715687,-7.47059"
       id="path4078"
       inkscape:connector-curvature="0"
       sodipodi:nodetypes="ccc" />
    <path
       style="fill:none;stroke:#1b1b1b;stroke-width:1.58749998;stroke-miterlimit:4;stroke-dasharray:none;stroke-opacity:1"
       d="m 67.546569,284.23771 c 3.15868,-3.51352 3.890931,-12.37316 3.735294,-16.18628"
       id="path4080"
       inkscape:connector-curvature="0"
       sodipodi:nodetypes="cc" />
    <path
       style="fill:none;stroke:#1b1b1b;stroke-width:1.5875;stroke-miterlimit:4;stroke-dasharray:none;stroke-opacity:1"
       id="path4084"
       sodipodi:type="arc"
       sodipodi:cx="30.816179"
       sodipodi:cy="236.1763"
       sodipodi:rx="2.3656862"
       sodipodi:ry="2.3656862"
       sodipodi:start="3.1415927"
       sodipodi:end="3.1413309"
       sodipodi:open="true"
       d="m 28.450493,236.1763 a 2.3656862,2.3656862 0 0 1 2.365532,-2.36569 2.3656862,2.3656862 0 0 1 2.36584,2.36538 2.3656862,2.3656862 0 0 1 -2.365221,2.366 2.3656862,2.3656862 0 0 1 -2.366151,-2.36507" />
    <path
       style="fill:none;stroke:#1b1b1b;stroke-width:1.5875;stroke-miterlimit:4;stroke-dasharray:none;stroke-opacity:1"
       d="m 25.213237,228.2083 c -0.741801,-2.95862 -0.582233,-5.85237 0,-8.71569 l 11.205882,-1.24509 c 18.070032,3.42262 34.316181,16.65396 34.862744,49.80391"
       id="path4086"
       inkscape:connector-curvature="0"
       sodipodi:nodetypes="cccc" />
    <path
       style="fill:none;stroke:#1b1b1b;stroke-width:1.5875;stroke-miterlimit:4;stroke-dasharray:none;stroke-opacity:1"
       d="m 25.213237,219.49261 c -2.105652,-3.9873 -1.837036,-9.79419 0,-12.45098 4.403593,2.03229 9.19915,6.76712 11.205882,11.20589"
       id="path4088"
       inkscape:connector-curvature="0"
       sodipodi:nodetypes="ccc" />
    <path
       style="fill:none;stroke:#1b1b1b;stroke-width:1.58749998;stroke-miterlimit:4;stroke-dasharray:none;stroke-opacity:1"
       d="m 27.516667,219.21247 c -1.397991,-3.33955 -1.556374,-5.99203 -1.058334,-8.73125 3.237254,2.24117 4.918138,3.95318 7.408334,7.9375"
       id="path4088-3"
       inkscape:connector-curvature="0"
       sodipodi:nodetypes="ccc" />
    <path
       style="fill:none;stroke:#1b1b1b;stroke-width:1.5875;stroke-miterlimit:4;stroke-dasharray:none;stroke-opacity:1"
       d="m 27.703433,219.49261 c 3.418619,3.32142 6.634947,7.4661 13.696077,8.71569 2.540464,2.47358 5.413134,2.75257 7.470588,4.98039 4.082406,8.14964 6.809908,19.31315 11.205883,22.41176 4.659522,5.0412 8.803125,6.77148 11.205882,9.96079"
       id="path4127"
       inkscape:connector-curvature="0"
       sodipodi:nodetypes="ccccc" />
    <path
       style="fill:none;stroke:#1b1b1b;stroke-width:1.5875;stroke-miterlimit:4;stroke-dasharray:none;stroke-opacity:1"
       d="m 60.07598,255.60045 c -0.923833,-3.78003 -1.781924,-7.55428 -1.245098,-11.20588"
       id="path4129"
       inkscape:connector-curvature="0"
       sodipodi:nodetypes="cc" />
    <path
       style="fill:none;stroke:#1b1b1b;stroke-width:1.5875;stroke-miterlimit:4;stroke-dasharray:none;stroke-opacity:1"
       d="m 53.850491,244.39457 c -1.401131,-3.65355 -1.569846,-6.89056 -1.245099,-9.96078"
       id="path4131"
       inkscape:connector-curvature="0"
       sodipodi:nodetypes="cc" />
    <path
       style="fill:none;stroke:#1b1b1b;stroke-width:1.5875;stroke-miterlimit:4;stroke-dasharray:none;stroke-opacity:1"
       d="m 47.625,231.9436 c -1.693533,-1.21065 -3.255301,-2.67533 -3.735294,-6.2255"
       id="path4133"
       inkscape:connector-curvature="0"
       sodipodi:nodetypes="cc" />
    <path
       style="fill:none;stroke:#1b1b1b;stroke-width:1.5875;stroke-miterlimit:4;stroke-dasharray:none;stroke-opacity:1"
       d="M 47.625,291.7083 H 30.193628 v -4.9804 H 47.625"
       id="path1764"
       inkscape:connector-curvature="0" />
    <path
       style="fill:none;stroke:#1b1b1b;stroke-width:1.5875;stroke-miterlimit:4;stroke-dasharray:none;stroke-opacity:1"
       d="m 47.625,286.7279 h 17.431372 v 4.9804 H 47.625"
       id="path1766"
       inkscape:connector-curvature="0" />
  </g>
</svg>
