<?xml version="1.0" encoding="UTF-8" standalone="no"?>
<!-- Created with Inkscape (http://www.inkscape.org/) -->

<svg
   xmlns:dc="http://purl.org/dc/elements/1.1/"
   xmlns:cc="http://creativecommons.org/ns#"
   xmlns:rdf="http://www.w3.org/1999/02/22-rdf-syntax-ns#"
   xmlns:svg="http://www.w3.org/2000/svg"
   xmlns="http://www.w3.org/2000/svg"
   xmlns:sodipodi="http://sodipodi.sourceforge.net/DTD/sodipodi-0.dtd"
   xmlns:inkscape="http://www.inkscape.org/namespaces/inkscape"
   width="360"
   height="360"
   viewBox="0 0 95.249998 95.250003"
   version="1.1"
   id="svg8"
   inkscape:version="0.92.4 5da689c313, 2019-01-14"
   sodipodi:docname="ma.svg">
  <defs
     id="defs2" />
  <sodipodi:namedview
     id="base"
     pagecolor="#ffffff"
     bordercolor="#666666"
     borderopacity="1.0"
     inkscape:pageopacity="0.0"
     inkscape:pageshadow="2"
     inkscape:zoom="1.979899"
     inkscape:cx="184.21443"
     inkscape:cy="193.74553"
     inkscape:document-units="mm"
     inkscape:current-layer="layer1"
     showgrid="true"
     units="px"
     inkscape:window-width="1773"
     inkscape:window-height="1002"
     inkscape:window-x="317"
     inkscape:window-y="52"
     inkscape:window-maximized="0">
    <inkscape:grid
       type="xygrid"
       id="grid3721" />
  </sodipodi:namedview>
  <metadata
     id="metadata5">
    <rdf:RDF>
      <cc:Work
         rdf:about="">
        <dc:format>image/svg+xml</dc:format>
        <dc:type
           rdf:resource="http://purl.org/dc/dcmitype/StillImage" />
        <dc:title />
      </cc:Work>
    </rdf:RDF>
  </metadata>
  <g
     inkscape:label="Layer 1"
     inkscape:groupmode="layer"
     id="layer1"
     transform="translate(0,-201.74997)">
    <path
       style="fill:none;stroke:#1b1b1b;stroke-width:0.79375;stroke-miterlimit:4;stroke-dasharray:none;stroke-opacity:1"
       d="m 29.104166,294.35414 h 37.041666 l 10e-7,-5.29167 H 29.104167 Z"
       id="path360"
       inkscape:connector-curvature="0"
       sodipodi:nodetypes="ccccc" />
    <path
       style="fill:none;stroke:#1b1b1b;stroke-width:0.79375;stroke-miterlimit:4;stroke-dasharray:none;stroke-opacity:1"
       d="m 29.104167,289.06247 -2.645834,-2.64583 h 42.333334 l -2.645834,2.64583"
       id="path362"
       inkscape:connector-curvature="0"
       sodipodi:nodetypes="cccc" />
    <path
       style="fill:none;stroke:#1b1b1b;stroke-width:0.79375;stroke-miterlimit:4;stroke-dasharray:none;stroke-opacity:1"
       d="m 23.8125,266.57289 c -5.771151,-4.25017 -3.599608,-17.22033 -2.645833,-25.13542 0.725977,-6.84745 -0.915877,-11.09459 3.96875,-15.875 16.517104,2.74281 29.488985,4.20221 17.197916,19.84376 -1.048643,12.03423 -16.404167,14.28749 -19.84375,23.81249 -0.750285,3.63851 0.793709,13.78733 3.96875,17.19792"
       id="path374"
       inkscape:connector-curvature="0"
       sodipodi:nodetypes="cccccc" />
    <path
       style="fill:none;stroke:#1b1b1b;stroke-width:0.79375;stroke-miterlimit:4;stroke-dasharray:none;stroke-opacity:1"
       d="m 25.135417,263.92705 c -2.313746,-1.22069 -2.682759,-3.18748 -2.645834,-5.29167 1.590677,1.05914 2.468914,2.82671 2.645834,5.29167 z"
       id="path4074"
       inkscape:connector-curvature="0"
       sodipodi:nodetypes="ccc" />
    <path
       style="fill:none;stroke:#1b1b1b;stroke-width:0.79374999;stroke-miterlimit:4;stroke-dasharray:none;stroke-opacity:1"
       d="m 23.283334,238.12951 c 1.322917,-6.61458 3.96875,-9.26042 10.583333,-9.26042"
       id="path4076"
       inkscape:connector-curvature="0"
       sodipodi:nodetypes="cc" />
    <path
       style="fill:none;stroke:#1b1b1b;stroke-width:0.79374999;stroke-miterlimit:4;stroke-dasharray:none;stroke-opacity:1"
       d="m 34.660418,230.72117 c -4.232822,0.18395 -7.976363,1.40723 -9.260417,7.9375 8.434992,0.97492 7.997598,-4.05682 9.260417,-7.9375"
       id="path4078"
       inkscape:connector-curvature="0"
       sodipodi:nodetypes="ccc" />
    <path
       style="fill:none;stroke:#1b1b1b;stroke-width:0.79375;stroke-miterlimit:4;stroke-dasharray:none;stroke-opacity:1"
       d="m 68.791667,286.41664 c 3.356098,-3.73312 4.625848,-13.7845 3.96875,-17.19792"
       id="path4080"
       inkscape:connector-curvature="0"
       sodipodi:nodetypes="cc" />
    <path
       style="fill:none;stroke:#1b1b1b;stroke-width:0.79374999;stroke-miterlimit:4;stroke-dasharray:none;stroke-opacity:1"
       id="path4084"
       sodipodi:type="arc"
       sodipodi:cx="29.765625"
       sodipodi:cy="235.35139"
       sodipodi:rx="2.5135417"
       sodipodi:ry="2.5135417"
       sodipodi:start="3.1415927"
       sodipodi:end="3.1413309"
       sodipodi:open="true"
       d="m 27.252083,235.35139 a 2.5135417,2.5135417 0 0 1 2.513378,-2.51354 2.5135417,2.5135417 0 0 1 2.513706,2.51322 2.5135417,2.5135417 0 0 1 -2.513049,2.51387 2.5135417,2.5135417 0 0 1 -2.514035,-2.51289" />
    <path
       style="fill:none;stroke:#1b1b1b;stroke-width:0.79375;stroke-miterlimit:4;stroke-dasharray:none;stroke-opacity:1"
       d="m 23.8125,226.88539 c -0.788163,-3.14354 -0.618622,-6.21815 0,-9.26042 l 11.90625,-1.32291 c 19.19941,3.63653 36.460944,17.69483 37.041667,52.91666"
       id="path4086"
       inkscape:connector-curvature="0"
       sodipodi:nodetypes="cccc" />
    <path
       style="fill:none;stroke:#1b1b1b;stroke-width:0.79375;stroke-miterlimit:4;stroke-dasharray:none;stroke-opacity:1"
       d="m 23.8125,217.62497 c -2.237255,-4.23651 -1.951851,-10.40633 0,-13.22917 4.678818,2.15931 9.774097,7.19007 11.90625,11.90626"
       id="path4088"
       inkscape:connector-curvature="0"
       sodipodi:nodetypes="ccc" />
    <path
       style="fill:none;stroke:#1b1b1b;stroke-width:0.79375;stroke-miterlimit:4;stroke-dasharray:none;stroke-opacity:1"
       d="m 25.664583,217.62497 c -1.485365,-3.54827 -1.5875,-7.9375 -1.058333,-10.84792 3.439583,2.38125 6.35,5.29167 8.995833,9.52501"
       id="path4088-3"
       inkscape:connector-curvature="0"
       sodipodi:nodetypes="ccc" />
    <path
       style="fill:none;stroke:#1b1b1b;stroke-width:0.79375;stroke-miterlimit:4;stroke-dasharray:none;stroke-opacity:1"
       d="m 26.458333,217.62497 c 3.632283,3.52901 7.049632,7.93273 14.552083,9.26042 2.699243,2.62818 5.751455,2.9246 7.9375,5.29166 4.337556,8.659 7.235527,20.52022 11.906251,23.8125 4.950742,5.35627 9.35332,7.1947 11.90625,10.58334"
       id="path4127"
       inkscape:connector-curvature="0"
       sodipodi:nodetypes="ccccc" />
    <path
       style="fill:none;stroke:#1b1b1b;stroke-width:0.79375;stroke-miterlimit:4;stroke-dasharray:none;stroke-opacity:1"
       d="m 60.854166,255.98955 c -0.981573,-4.01628 -1.893295,-8.02642 -1.322917,-11.90625"
       id="path4129"
       inkscape:connector-curvature="0"
       sodipodi:nodetypes="cc" />
    <path
       style="fill:none;stroke:#1b1b1b;stroke-width:0.79375;stroke-miterlimit:4;stroke-dasharray:none;stroke-opacity:1"
       d="m 54.239583,244.0833 c -1.488701,-3.8819 -1.667961,-7.32122 -1.322917,-10.58333"
       id="path4131"
       inkscape:connector-curvature="0"
       sodipodi:nodetypes="cc" />
    <path
       style="fill:none;stroke:#1b1b1b;stroke-width:0.79375;stroke-miterlimit:4;stroke-dasharray:none;stroke-opacity:1"
       d="m 47.624999,230.85414 c -1.799379,-1.28631 -3.458757,-2.84253 -3.96875,-6.61459"
       id="path4133"
       inkscape:connector-curvature="0"
       sodipodi:nodetypes="cc" />
  </g>
</svg>
