<?xml version="1.0" encoding="UTF-8" standalone="no"?>
<!-- Created with Inkscape (http://www.inkscape.org/) -->

<svg
   xmlns:dc="http://purl.org/dc/elements/1.1/"
   xmlns:cc="http://creativecommons.org/ns#"
   xmlns:rdf="http://www.w3.org/1999/02/22-rdf-syntax-ns#"
   xmlns:svg="http://www.w3.org/2000/svg"
   xmlns="http://www.w3.org/2000/svg"
   xmlns:xlink="http://www.w3.org/1999/xlink"
   xmlns:sodipodi="http://sodipodi.sourceforge.net/DTD/sodipodi-0.dtd"
   xmlns:inkscape="http://www.inkscape.org/namespaces/inkscape"
   width="360"
   height="360"
   viewBox="0 0 95.249998 95.250003"
   version="1.1"
   id="svg8"
   inkscape:version="0.92.4 5da689c313, 2019-01-14"
   sodipodi:docname="ma_w.svg">
  <defs
     id="defs2">
    <linearGradient
       inkscape:collect="always"
       id="linearGradient12054">
      <stop
         style="stop-color:#fff6d5;stop-opacity:1;"
         offset="0"
         id="stop12050" />
      <stop
         style="stop-color:#ffeeaa;stop-opacity:1"
         offset="1"
         id="stop12052" />
    </linearGradient>
    <linearGradient
       inkscape:collect="always"
       id="linearGradient12044">
      <stop
         style="stop-color:#fff6d5;stop-opacity:1"
         offset="0"
         id="stop12040" />
      <stop
         style="stop-color:#ffeeaa;stop-opacity:1"
         offset="1"
         id="stop12042" />
    </linearGradient>
    <linearGradient
       inkscape:collect="always"
       id="linearGradient12036">
      <stop
         style="stop-color:#fff6d5;stop-opacity:1;"
         offset="0"
         id="stop12032" />
      <stop
         style="stop-color:#ffeeaa;stop-opacity:1"
         offset="1"
         id="stop12034" />
    </linearGradient>
    <linearGradient
       inkscape:collect="always"
       xlink:href="#linearGradient12036"
       id="linearGradient12038"
       x1="180"
       y1="110"
       x2="180"
       y2="320"
       gradientUnits="userSpaceOnUse" />
    <linearGradient
       inkscape:collect="always"
       xlink:href="#linearGradient12044"
       id="linearGradient12046"
       x1="120"
       y1="60"
       x2="270"
       y2="220"
       gradientUnits="userSpaceOnUse" />
    <linearGradient
       inkscape:collect="always"
       xlink:href="#linearGradient12054"
       id="linearGradient12056"
       x1="80"
       y1="125"
       x2="150"
       y2="190"
       gradientUnits="userSpaceOnUse" />
  </defs>
  <sodipodi:namedview
     id="base"
     pagecolor="#ffffff"
     bordercolor="#666666"
     borderopacity="1.0"
     inkscape:pageopacity="0.0"
     inkscape:pageshadow="2"
     inkscape:zoom="1.979899"
     inkscape:cx="184.21443"
     inkscape:cy="193.74553"
     inkscape:document-units="mm"
     inkscape:current-layer="layer1"
     showgrid="true"
     units="px"
     inkscape:window-width="1773"
     inkscape:window-height="1002"
     inkscape:window-x="317"
     inkscape:window-y="52"
     inkscape:window-maximized="0">
    <inkscape:grid
       type="xygrid"
       id="grid3721" />
  </sodipodi:namedview>
  <metadata
     id="metadata5">
    <rdf:RDF>
      <cc:Work
         rdf:about="">
        <dc:format>image/svg+xml</dc:format>
        <dc:type
           rdf:resource="http://purl.org/dc/dcmitype/StillImage" />
        <dc:title></dc:title>
      </cc:Work>
    </rdf:RDF>
  </metadata>
  <g
     inkscape:label="Layer 1"
     inkscape:groupmode="layer"
     id="layer1"
     transform="translate(0,-201.74997)">
    <path
       style="fill:none;stroke:#1b1b1b;stroke-width:0.79375;stroke-miterlimit:4;stroke-dasharray:none;stroke-opacity:1"
       d="m 29.104166,294.35414 h 37.041666 l 10e-7,-5.29167 H 29.104167 Z"
       id="path360"
       inkscape:connector-curvature="0"
       sodipodi:nodetypes="ccccc" />
    <path
       style="fill:none;stroke:#1b1b1b;stroke-width:0.79375;stroke-miterlimit:4;stroke-dasharray:none;stroke-opacity:1"
       d="m 29.104167,289.06247 -2.645834,-2.64583 h 42.333334 l -2.645834,2.64583"
       id="path362"
       inkscape:connector-curvature="0"
       sodipodi:nodetypes="cccc" />
    <path
       style="fill:none;stroke:#1b1b1b;stroke-width:0.79375;stroke-miterlimit:4;stroke-dasharray:none;stroke-opacity:1"
       d="m 23.8125,266.57289 c -5.771151,-4.25017 -3.599608,-17.22033 -2.645833,-25.13542 0.725977,-6.84745 -0.915877,-11.09459 3.96875,-15.875 16.517104,2.74281 29.488985,4.20221 17.197916,19.84376 -1.048643,12.03423 -16.404167,14.28749 -19.84375,23.81249 -0.750285,3.63851 0.793709,13.78733 3.96875,17.19792"
       id="path374"
       inkscape:connector-curvature="0"
       sodipodi:nodetypes="cccccc" />
    <path
       style="fill:none;stroke:#1b1b1b;stroke-width:0.79375;stroke-miterlimit:4;stroke-dasharray:none;stroke-opacity:1"
       d="m 25.135417,263.92705 c -2.313746,-1.22069 -2.682759,-3.18748 -2.645834,-5.29167 1.590677,1.05914 2.468914,2.82671 2.645834,5.29167 z"
       id="path4074"
       inkscape:connector-curvature="0"
       sodipodi:nodetypes="ccc" />
    <path
       style="fill:none;stroke:#1b1b1b;stroke-width:0.79374999;stroke-miterlimit:4;stroke-dasharray:none;stroke-opacity:1"
       d="m 23.283334,238.12951 c 1.322917,-6.61458 3.96875,-9.26042 10.583333,-9.26042"
       id="path4076"
       inkscape:connector-curvature="0"
       sodipodi:nodetypes="cc" />
    <path
       style="fill:none;stroke:#1b1b1b;stroke-width:0.79374999;stroke-miterlimit:4;stroke-dasharray:none;stroke-opacity:1"
       d="m 34.660418,230.72117 c -4.232822,0.18395 -7.976363,1.40723 -9.260417,7.9375 8.434992,0.97492 7.997598,-4.05682 9.260417,-7.9375"
       id="path4078"
       inkscape:connector-curvature="0"
       sodipodi:nodetypes="ccc" />
    <path
       style="fill:none;stroke:#1b1b1b;stroke-width:0.79375;stroke-miterlimit:4;stroke-dasharray:none;stroke-opacity:1"
       d="m 68.791667,286.41664 c 3.356098,-3.73312 4.625848,-13.7845 3.96875,-17.19792"
       id="path4080"
       inkscape:connector-curvature="0"
       sodipodi:nodetypes="cc" />
    <path
       style="fill:none;stroke:#1b1b1b;stroke-width:0.79374999;stroke-miterlimit:4;stroke-dasharray:none;stroke-opacity:1"
       id="path4084"
       sodipodi:type="arc"
       sodipodi:cx="29.765625"
       sodipodi:cy="235.35139"
       sodipodi:rx="2.5135417"
       sodipodi:ry="2.5135417"
       sodipodi:start="3.1415927"
       sodipodi:end="3.1413309"
       sodipodi:open="true"
       d="m 27.252083,235.35139 a 2.5135417,2.5135417 0 0 1 2.513378,-2.51354 2.5135417,2.5135417 0 0 1 2.513706,2.51322 2.5135417,2.5135417 0 0 1 -2.513049,2.51387 2.5135417,2.5135417 0 0 1 -2.514035,-2.51289" />
    <path
       style="fill:none;stroke:#1b1b1b;stroke-width:0.79375;stroke-miterlimit:4;stroke-dasharray:none;stroke-opacity:1"
       d="m 23.8125,226.88539 c -0.788163,-3.14354 -0.618622,-6.21815 0,-9.26042 l 11.90625,-1.32291 c 19.19941,3.63653 36.460944,17.69483 37.041667,52.91666"
       id="path4086"
       inkscape:connector-curvature="0"
       sodipodi:nodetypes="cccc" />
    <path
       style="fill:none;stroke:#1b1b1b;stroke-width:0.79375;stroke-miterlimit:4;stroke-dasharray:none;stroke-opacity:1"
       d="m 23.8125,217.62497 c -2.237255,-4.23651 -1.951851,-10.40633 0,-13.22917 4.678818,2.15931 9.774097,7.19007 11.90625,11.90626"
       id="path4088"
       inkscape:connector-curvature="0"
       sodipodi:nodetypes="ccc" />
    <path
       style="fill:none;stroke:#1b1b1b;stroke-width:0.79375;stroke-miterlimit:4;stroke-dasharray:none;stroke-opacity:1"
       d="m 25.664583,217.62497 c -1.485365,-3.54827 -1.5875,-7.9375 -1.058333,-10.84792 3.439583,2.38125 6.35,5.29167 8.995833,9.52501"
       id="path4088-3"
       inkscape:connector-curvature="0"
       sodipodi:nodetypes="ccc" />
    <path
       style="fill:none;stroke:#1b1b1b;stroke-width:0.79375;stroke-miterlimit:4;stroke-dasharray:none;stroke-opacity:1"
       d="m 26.458333,217.62497 c 3.632283,3.52901 7.049632,7.93273 14.552083,9.26042 2.699243,2.62818 5.751455,2.9246 7.9375,5.29166 4.337556,8.659 7.235527,20.52022 11.906251,23.8125 4.950742,5.35627 9.35332,7.1947 11.90625,10.58334"
       id="path4127"
       inkscape:connector-curvature="0"
       sodipodi:nodetypes="ccccc" />
    <path
       style="fill:none;stroke:#1b1b1b;stroke-width:0.79375;stroke-miterlimit:4;stroke-dasharray:none;stroke-opacity:1"
       d="m 60.854166,255.98955 c -0.981573,-4.01628 -1.893295,-8.02642 -1.322917,-11.90625"
       id="path4129"
       inkscape:connector-curvature="0"
       sodipodi:nodetypes="cc" />
    <path
       style="fill:none;stroke:#1b1b1b;stroke-width:0.79375;stroke-miterlimit:4;stroke-dasharray:none;stroke-opacity:1"
       d="m 54.239583,244.0833 c -1.488701,-3.8819 -1.667961,-7.32122 -1.322917,-10.58333"
       id="path4131"
       inkscape:connector-curvature="0"
       sodipodi:nodetypes="cc" />
    <path
       style="fill:none;stroke:#1b1b1b;stroke-width:0.79375;stroke-miterlimit:4;stroke-dasharray:none;stroke-opacity:1"
       d="m 47.624999,230.85414 c -1.799379,-1.28631 -3.458757,-2.84253 -3.96875,-6.61459"
       id="path4133"
       inkscape:connector-curvature="0"
       sodipodi:nodetypes="cc" />
    <path
       style="fill:url(#linearGradient12056);stroke:#1b1b1b;stroke-width:1.51522875;stroke-miterlimit:4;stroke-dasharray:none;stroke-opacity:1;fill-opacity:1"
       d="m 87.995578,240.87949 c -4.440344,-4.66131 -7.880307,-12.69504 -9.591525,-22.40017 -0.690227,-3.9146 -0.882217,-7.90618 -0.884283,-18.38474 -0.0027,-13.85923 0.321912,-18.3612 2.768068,-38.38579 1.795395,-14.69738 1.927171,-16.38976 2.516949,-32.32488 0.299789,-8.09998 0.775937,-14.28517 1.283096,-16.66752 1.500107,-7.04666 4.482037,-12.980503 9.066747,-18.042237 l 2.530836,-2.794161 11.358764,1.873611 c 38.32156,6.321087 54.25601,11.215457 63.23711,19.423677 3.41749,3.12339 5.25513,6.47802 6.03277,11.01283 1.42582,8.31479 -3.00139,19.44278 -13.61376,34.21874 -3.91518,5.45124 -4.38033,6.34284 -4.74302,9.09138 -0.94183,7.13734 -4.2326,15.15815 -8.97649,21.879 -5.75184,8.14886 -11.62867,13.42577 -30.93607,27.77807 -7.14182,5.30893 -14.92631,11.37967 -17.29887,13.49055 l -4.31373,3.83795 v -1.68467 c 0,-4.57296 -2.948354,-11.83849 -6.27812,-15.47096 -2.175165,-2.37291 -5.656912,-5.11375 -6.496094,-5.11375 -0.316715,0 -0.401649,1.99595 -0.231044,5.42956 0.424941,8.55245 2.892923,13.67503 8.313075,17.25475 l 2.609823,1.72364 -2.316322,2.94831 c -1.273979,1.62157 -2.351852,2.94831 -2.395276,2.94831 -0.04342,0 -0.782608,-0.73867 -1.642634,-1.6415 z m 26.737062,-100.7947 c 8.53834,-3.07886 12.25701,-8.37065 15.93278,-22.67286 1.5589,-6.06558 1.83102,-7.73351 1.29526,-7.9391 -0.37303,-0.14315 -0.67825,-0.60833 -0.67825,-1.03374 0,-0.91671 -0.0735,-0.9201 -5.56909,-0.25725 -16.03161,1.93363 -25.5845,10.00889 -29.956629,25.32297 -2.0166,7.06346 -2.035625,7.39361 -0.441992,7.6701 0.753494,0.13073 4.779251,0.17387 8.946131,0.0959 6.13627,-0.11487 8.12647,-0.34027 10.47179,-1.18598 z m -24.599755,-4.26116 c 0.603151,-3.64198 3.655934,-12.38096 5.651898,-16.17929 1.044228,-1.98717 3.151243,-4.88393 4.682257,-6.43725 5.20266,-5.27847 11.2345,-7.70584 21.56847,-8.67975 l 6.21647,-0.58586 v -1.67346 c 0,-1.00228 -0.25322,-1.67329 -0.63135,-1.67304 -0.34724,2.3e-4 -3.13147,0.23354 -6.18718,0.51847 -18.65089,1.73905 -28.008548,9.76475 -33.256733,28.523 -1.979244,7.07428 -2.057586,7.7039 -0.992887,7.97968 2.263977,0.58641 2.587663,0.38967 2.949055,-1.7925 z"
       id="path12010"
       inkscape:connector-curvature="0"
       transform="matrix(0.26458333,0,0,0.26458333,0,201.74997)" />
    <path
       style="fill:#fff6d5;stroke:#1b1b1b;stroke-width:1.51522875;stroke-miterlimit:4;stroke-dasharray:none;stroke-opacity:1"
       d="m 123.71497,126.10091 c -0.0644,-3.16396 -2.94521,-7.47569 -6.07655,-9.09497 -0.70985,-0.36708 -2.17049,-0.83247 -3.24585,-1.03421 -1.92713,-0.36154 -1.93776,-0.37592 -0.74016,-1.00155 2.24774,-1.17425 7.41733,-2.67254 10.38863,-3.01093 1.62153,-0.18467 3.3295,-0.44087 3.79549,-0.56933 0.73273,-0.202 0.61911,0.63987 -0.84062,6.22856 -0.92832,3.55417 -2.03936,7.25762 -2.46897,8.22989 l -0.78111,1.76777 -0.0309,-1.51523 z"
       id="path12012"
       inkscape:connector-curvature="0"
       transform="matrix(0.26458333,0,0,0.26458333,0,201.74997)" />
    <path
       style="fill:#fff6d5;stroke:#1b1b1b;stroke-width:1.51522875;stroke-miterlimit:4;stroke-dasharray:none;stroke-opacity:1"
       d="m 98.176099,137.33886 c 2.488551,-7.97545 2.987671,-9.17195 3.317041,-7.95168 0.87471,3.24056 3.22033,6.12277 6.30325,7.74518 1.46302,0.76993 1.32,0.7981 -4.15103,0.81762 -4.308524,0.0154 -5.619054,-0.13106 -5.469261,-0.61112 z"
       id="path12016"
       inkscape:connector-curvature="0"
       transform="matrix(0.26458333,0,0,0.26458333,0,201.74997)" />
    <path
       style="fill:#fff6d5;stroke:#1b1b1b;stroke-width:1.51522875;stroke-miterlimit:4;stroke-dasharray:none;stroke-opacity:1"
       d="m 110.22845,134.39891 c -3.70508,-1.1082 -6.17673,-5.46538 -5.18645,-9.14299 1.86959,-6.94314 11.29592,-8.08959 14.30887,-1.74027 2.8933,6.09717 -2.72287,12.79738 -9.12242,10.88326 z"
       id="path12018"
       inkscape:connector-curvature="0"
       transform="matrix(0.26458333,0,0,0.26458333,0,201.74997)" />
    <path
       style="fill:url(#linearGradient12038);stroke:#1b1b1b;stroke-width:1.51522875;stroke-miterlimit:4;stroke-dasharray:none;stroke-opacity:1;fill-opacity:1"
       d="m 98.269352,314.62063 c -6.091336,-9.8037 -10.627502,-26.75235 -11.929589,-44.57298 -0.717984,-9.82647 -0.189144,-13.91827 2.476408,-19.16074 5.339422,-10.50132 11.222669,-16.09321 37.162959,-35.32251 17.61521,-13.058 25.49892,-21.36765 30.82577,-32.4912 1.97525,-4.12473 3.98202,-10.68486 4.5269,-14.79842 0.27002,-2.03847 0.80656,-3.31763 2.01562,-4.80545 0.90621,-1.11515 3.37567,-4.6138 5.48767,-7.77479 18.29728,-27.38513 14.23502,-44.67674 -12.80392,-54.50179 -10.15141,-3.68869 -21.82319,-6.340688 -45.74865,-10.394762 l -15.817931,-2.680285 -1.659966,1.71265 -1.659967,1.712651 -0.430277,-1.408868 c -0.854814,-2.798942 -0.965552,-17.301062 -0.17401,-22.788279 0.413906,-2.869334 0.894076,-5.35849 1.067043,-5.531458 0.172968,-0.172967 1.75237,-0.463313 3.509781,-0.645211 l 3.195294,-0.330725 8.530023,8.403238 c 15.84442,15.608919 26.00133,21.977417 41.35998,25.933165 4.40835,1.135407 6.50384,1.941089 7.68537,2.954902 2.88607,2.476372 7.305,5.230192 14.91302,9.293602 4.09536,2.18731 8.59498,4.98194 9.99916,6.21028 3.73374,3.26619 5.91328,7.90823 18.76133,39.9583 14.35618,35.81222 17.56791,41.56318 29.95356,53.6352 10.08919,9.83371 12.79043,12.17662 25.25865,21.90793 5.83363,4.55309 12.3821,10.07173 14.55215,12.26365 l 3.94554,3.98531 0.0951,15.10972 c 0.0863,13.71943 -0.0105,15.70937 -1.05212,21.62666 -2.6439,15.01945 -6.48659,26.40484 -11.395,33.76192 l -1.59995,2.39814 -79.38737,9.8e-4 -79.38736,9.7e-4 z"
       id="path12020"
       inkscape:connector-curvature="0"
       transform="matrix(0.26458333,0,0,0.26458333,0,201.74997)" />
    <path
       style="fill:url(#linearGradient12046);stroke:#1b1b1b;stroke-width:1.51522875;stroke-miterlimit:4;stroke-dasharray:none;stroke-opacity:1;fill-opacity:1"
       d="m 269.0519,236.21758 c -1.86964,-1.74221 -7.21082,-6.0923 -11.86929,-9.66686 -9.88958,-7.58852 -17.12869,-13.77762 -22.18057,-18.96334 l -3.60909,-3.70472 -1.53973,-7.07107 c -3.04523,-13.98499 -3.26334,-15.68663 -3.39884,-26.51651 L 226.32484,159.94102 224.836,159.788 c -1.36905,-0.1407 -1.51437,0.002 -1.80624,1.76777 -1.04212,6.30642 0.0344,19.9332 2.49569,31.59041 0.70214,3.32552 1.1911,6.13191 1.08658,6.23643 -0.28462,0.28462 -5.0083,-6.1647 -7.15435,-9.76796 -4.00757,-6.72879 -13.70077,-28.4763 -13.23422,-29.69209 0.1199,-0.31246 -0.53193,-3.0499 -1.44851,-6.0832 -2.70201,-8.94194 -3.44872,-14.36941 -3.41672,-24.83426 l 0.0282,-9.21764 h -1.46442 c -0.80543,0 -1.50879,0.0568 -1.56303,0.12627 -0.0542,0.0694 -0.22471,4.53176 -0.37881,9.91625 l -0.28019,9.78998 -2.2215,-5.49683 c -1.22182,-3.02326 -3.69415,-8.73363 -5.49407,-12.6897 l -3.27257,-7.19287 -4.60513,-4.17135 c -10.201,-9.24012 -12.58082,-12.690688 -14.53668,-21.077149 -0.8261,-3.542178 -1.2446,-4.548154 -1.80295,-4.333893 -0.39992,0.153465 -1.13209,0.279027 -1.62703,0.279027 -0.8073,0 -0.85255,0.272839 -0.43974,2.651651 0.71236,4.105082 2.81866,10.095197 4.45958,12.682674 0.81736,1.28884 1.29852,2.34334 1.06923,2.34334 -0.75637,0 -9.29756,-5.564987 -11.254,-7.332516 -1.05516,-0.953268 -2.54922,-1.876925 -3.32016,-2.052571 -14.02247,-3.194826 -21.56512,-6.607597 -32.21134,-14.57446 -4.27951,-3.202476 -19.80465,-18.096764 -19.10189,-18.325698 0.22774,-0.07419 7.47119,-0.91238 16.09656,-1.862649 l 15.68249,-1.727762 6.36775,1.434294 c 48.85963,11.005316 85.68245,39.341486 107.37893,82.631032 12.83811,25.61503 20.31343,54.91186 23.35549,91.53346 0.3078,3.70538 0.48509,6.80685 0.39397,6.89216 -0.0911,0.0853 -1.69535,-1.27035 -3.565,-3.01257 z"
       id="path12022"
       inkscape:connector-curvature="0"
       transform="matrix(0.26458333,0,0,0.26458333,0,201.74997)" />
    <path
       style="fill:#fff6d5;stroke:#1b1b1b;stroke-width:1.51522875;stroke-miterlimit:4;stroke-dasharray:none;stroke-opacity:1"
       d="M 96.428923,52.992169 C 94.480324,45.770563 93.8519,40.630926 93.82882,31.726918 c -0.01213,-4.681065 0.174338,-8.707427 0.414382,-8.947471 0.530623,-0.530623 5.403154,3.178565 11.415808,8.690221 4.8981,4.489979 11.48483,12.177666 16.02771,18.70673 l 2.96161,4.256446 -12.46658,1.372284 c -6.85662,0.754756 -12.953075,1.367916 -13.547675,1.362578 -0.92446,-0.0083 -1.243946,-0.613257 -2.205152,-4.175537 z"
       id="path12024"
       inkscape:connector-curvature="0"
       transform="matrix(0.26458333,0,0,0.26458333,0,201.74997)" />
    <path
       style="fill:#fff6d5;stroke:#1b1b1b;stroke-width:1.51522875;stroke-miterlimit:4;stroke-dasharray:none;stroke-opacity:1"
       d="M 89.877651,55.557498 C 89.259961,54.121637 88.170636,50.769193 87.45693,48.107623 86.290236,43.756757 86.159473,42.35094 86.161172,34.17703 c 0.002,-9.658338 0.609537,-13.311961 3.22418,-19.389863 l 1.095152,-2.54575 2.09195,1.055875 c 13.710086,6.919921 31.863706,24.853139 38.647816,38.1786 1.00793,1.979789 1.02337,2.14711 0.1987,2.153471 -0.49178,0.0038 -1.34872,0.125932 -1.9043,0.271419 -0.78535,0.205655 -1.3405,-0.262748 -2.49457,-2.104778 -4.8609,-7.75856 -13.54958,-18.082382 -20.23387,-24.041718 -5.35528,-4.774475 -14.351803,-11.593573 -14.871662,-11.272283 -0.200077,0.123655 -0.661184,2.471861 -1.024681,5.218235 -1.324361,10.006126 -0.08066,25.859498 2.649778,33.776397 0.696027,2.018131 0.681856,2.118712 -0.337033,2.392216 -1.919397,0.515231 -2.189913,0.327182 -3.324981,-2.311353 z"
       id="path12026"
       inkscape:connector-curvature="0"
       transform="matrix(0.26458333,0,0,0.26458333,0,201.74997)" />
    <path
       style="fill:#ffeeaa;stroke:#1b1b1b;stroke-width:1.51522875;stroke-miterlimit:4;stroke-dasharray:none;stroke-opacity:1"
       d="m 107.54385,325.10096 -3.25382,-3.28299 h 75.73226 75.73226 l -3.25381,3.28299 -3.25382,3.283 h -69.22463 -69.22463 z"
       id="path12028"
       inkscape:connector-curvature="0"
       transform="matrix(0.26458333,0,0,0.26458333,0,201.74997)" />
    <path
       style="fill:#ffeeaa;stroke:#1b1b1b;stroke-width:1.51522875;stroke-miterlimit:4;stroke-dasharray:none;stroke-opacity:1"
       d="m 111.58446,340.00071 v -8.08122 h 68.43783 68.43784 v 8.08122 8.08122 h -68.43784 -68.43783 z"
       id="path12030"
       inkscape:connector-curvature="0"
       transform="matrix(0.26458333,0,0,0.26458333,0,201.74997)" />
    <path
       style="fill:#ffeeaa;stroke:#1b1b1b;stroke-width:1.51522875;stroke-miterlimit:4;stroke-dasharray:none;stroke-opacity:1"
       d="m 91.2837,230.01509 c -2.004671,-2.1557 -2.947871,-3.87437 -3.721747,-6.78166 -1.087694,-4.08623 -0.975988,-4.82725 0.467436,-3.10082 0.656518,0.78525 1.654226,2.33685 2.217128,3.44802 1.055138,2.08284 2.771492,7.37059 2.485313,7.65677 -0.08876,0.0888 -0.740414,-0.46128 -1.44813,-1.22231 z"
       id="path12048"
       inkscape:connector-curvature="0"
       transform="matrix(0.26458333,0,0,0.26458333,0,201.74997)" />
  </g>
</svg>
