<?xml version="1.0" encoding="UTF-8" standalone="no"?>
<!-- Created with Inkscape (http://www.inkscape.org/) -->

<svg
   xmlns:dc="http://purl.org/dc/elements/1.1/"
   xmlns:cc="http://creativecommons.org/ns#"
   xmlns:rdf="http://www.w3.org/1999/02/22-rdf-syntax-ns#"
   xmlns:svg="http://www.w3.org/2000/svg"
   xmlns="http://www.w3.org/2000/svg"
   xmlns:xlink="http://www.w3.org/1999/xlink"
   xmlns:sodipodi="http://sodipodi.sourceforge.net/DTD/sodipodi-0.dtd"
   xmlns:inkscape="http://www.inkscape.org/namespaces/inkscape"
   width="360"
   height="360"
   viewBox="0 0 95.249998 95.250003"
   version="1.1"
   id="svg8"
   inkscape:version="0.92.4 5da689c313, 2019-01-14"
   sodipodi:docname="met_w.svg">
  <defs
     id="defs2">
    <linearGradient
       inkscape:collect="always"
       id="linearGradient2411">
      <stop
         style="stop-color:#ffeeaa;stop-opacity:1;"
         offset="0"
         id="stop2407" />
      <stop
         style="stop-color:#ffeeaa;stop-opacity:1"
         offset="1"
         id="stop2409" />
    </linearGradient>
    <linearGradient
       inkscape:collect="always"
       id="linearGradient2403">
      <stop
         style="stop-color:#fff6d5;stop-opacity:1;"
         offset="0"
         id="stop2399" />
      <stop
         style="stop-color:#ffeeaa;stop-opacity:1"
         offset="1"
         id="stop2401" />
    </linearGradient>
    <linearGradient
       inkscape:collect="always"
       xlink:href="#linearGradient2403"
       id="linearGradient2405"
       x1="180"
       y1="195"
       x2="180"
       y2="280"
       gradientUnits="userSpaceOnUse" />
    <linearGradient
       inkscape:collect="always"
       xlink:href="#linearGradient2411"
       id="linearGradient2413"
       x1="180"
       y1="105"
       x2="180"
       y2="175"
       gradientUnits="userSpaceOnUse" />
  </defs>
  <sodipodi:namedview
     id="base"
     pagecolor="#ffffff"
     bordercolor="#666666"
     borderopacity="1.0"
     inkscape:pageopacity="0.0"
     inkscape:pageshadow="2"
     inkscape:zoom="1.979899"
     inkscape:cx="103.34655"
     inkscape:cy="155.80105"
     inkscape:document-units="mm"
     inkscape:current-layer="layer1"
     showgrid="true"
     units="px"
     inkscape:window-width="1869"
     inkscape:window-height="979"
     inkscape:window-x="4"
     inkscape:window-y="48"
     inkscape:window-maximized="0">
    <inkscape:grid
       type="xygrid"
       id="grid3721" />
  </sodipodi:namedview>
  <metadata
     id="metadata5">
    <rdf:RDF>
      <cc:Work
         rdf:about="">
        <dc:format>image/svg+xml</dc:format>
        <dc:type
           rdf:resource="http://purl.org/dc/dcmitype/StillImage" />
        <dc:title></dc:title>
      </cc:Work>
    </rdf:RDF>
  </metadata>
  <g
     inkscape:label="Layer 1"
     inkscape:groupmode="layer"
     id="layer1"
     transform="translate(0,-201.74997)">
    <path
       style="fill:none;stroke:#1b1b1b;stroke-width:1.05833333;stroke-miterlimit:4;stroke-dasharray:none;stroke-opacity:1"
       d="M 43.65625,281.12497 H 47.625"
       id="path13060"
       inkscape:connector-curvature="0" />
    <path
       style="fill:none;stroke:#1b1b1b;stroke-width:1.05833333;stroke-miterlimit:4;stroke-dasharray:none;stroke-opacity:1"
       d="m 43.65625,281.12497 v -2.64583 H 47.625"
       id="path13066"
       inkscape:connector-curvature="0" />
    <path
       style="fill:none;stroke:#1b1b1b;stroke-width:1.05833333;stroke-miterlimit:4;stroke-dasharray:none;stroke-opacity:1"
       d="m 43.65625,278.47914 -1.322916,-1.32292 1.322916,-1.32291 H 47.625"
       id="path13068"
       inkscape:connector-curvature="0" />
    <path
       style="fill:none;stroke:#1b1b1b;stroke-width:1.05833333;stroke-miterlimit:4;stroke-dasharray:none;stroke-opacity:1"
       d="m 43.65625,275.83331 c -5.997894,-5.74112 -13.337127,-10.6734 -9.260416,-22.48959"
       id="path13076"
       inkscape:connector-curvature="0"
       sodipodi:nodetypes="cc" />
    <path
       style="fill:none;stroke:#1b1b1b;stroke-width:1.05833333;stroke-miterlimit:4;stroke-dasharray:none;stroke-opacity:1"
       d="M 34.395834,253.34372 H 47.625"
       id="path13078"
       inkscape:connector-curvature="0" />
    <path
       style="fill:none;stroke:#1b1b1b;stroke-width:1.05833333;stroke-miterlimit:4;stroke-dasharray:none;stroke-opacity:1"
       d="m 37.041667,253.34372 1.322917,-2.64583 H 47.625"
       id="path13088"
       inkscape:connector-curvature="0" />
    <path
       style="fill:none;stroke:#1b1b1b;stroke-width:1.05833333;stroke-miterlimit:4;stroke-dasharray:none;stroke-opacity:1"
       d="m 41.010417,250.69789 1.322917,-2.64583 H 47.625"
       id="path13090"
       inkscape:connector-curvature="0" />
    <path
       style="fill:none;stroke:#1b1b1b;stroke-width:1.05833333;stroke-miterlimit:4;stroke-dasharray:none;stroke-opacity:1"
       d="m 47.625,228.20831 c -2.282221,6.5283 -1.819154,13.22576 -2.645833,19.84375"
       id="path13092"
       inkscape:connector-curvature="0"
       sodipodi:nodetypes="cc" />
    <path
       style="fill:none;stroke:#1b1b1b;stroke-width:1.05833333;stroke-miterlimit:4;stroke-dasharray:none;stroke-opacity:1"
       d="M 47.624999,291.7083 H 37.041666 v -2.64583 h 10.583333"
       id="path13139"
       inkscape:connector-curvature="0" />
    <path
       style="fill:none;stroke:#1b1b1b;stroke-width:1.05833333;stroke-miterlimit:4;stroke-dasharray:none;stroke-opacity:1"
       d="m 38.364583,289.06247 v -2.64583 h 9.260416"
       id="path13141"
       inkscape:connector-curvature="0" />
    <path
       style="fill:none;stroke:#1b1b1b;stroke-width:1.05833333;stroke-miterlimit:4;stroke-dasharray:none;stroke-opacity:1"
       d="m 43.656249,281.12497 -5.291666,5.29167"
       id="path13299"
       inkscape:connector-curvature="0" />
    <path
       style="fill:none;stroke:#1b1b1b;stroke-width:1.05833333;stroke-miterlimit:4;stroke-dasharray:none;stroke-opacity:1"
       d="M 51.59375,281.12498 H 47.625"
       id="path13060-4"
       inkscape:connector-curvature="0" />
    <path
       style="fill:none;stroke:#1b1b1b;stroke-width:1.05833333;stroke-miterlimit:4;stroke-dasharray:none;stroke-opacity:1"
       d="m 51.59375,281.12498 v -2.64584 H 47.625"
       id="path13066-7"
       inkscape:connector-curvature="0" />
    <path
       style="fill:none;stroke:#1b1b1b;stroke-width:1.05833333;stroke-miterlimit:4;stroke-dasharray:none;stroke-opacity:1"
       d="m 51.59375,278.47914 1.322915,-1.32291 -1.322915,-1.32292 H 47.625"
       id="path13068-8"
       inkscape:connector-curvature="0" />
    <path
       style="fill:none;stroke:#1b1b1b;stroke-width:1.05833333;stroke-miterlimit:4;stroke-dasharray:none;stroke-opacity:1"
       d="m 51.59375,275.83331 c 5.997894,-5.74112 13.337127,-10.6734 9.260416,-22.48959"
       id="path13076-4"
       inkscape:connector-curvature="0"
       sodipodi:nodetypes="cc" />
    <path
       style="fill:none;stroke:#1b1b1b;stroke-width:1.05833333;stroke-miterlimit:4;stroke-dasharray:none;stroke-opacity:1"
       d="M 60.854166,253.34372 H 47.625"
       id="path13078-5"
       inkscape:connector-curvature="0" />
    <path
       style="fill:none;stroke:#1b1b1b;stroke-width:1.05833333;stroke-miterlimit:4;stroke-dasharray:none;stroke-opacity:1"
       d="m 58.208333,253.34372 -1.322918,-2.64583 H 47.625"
       id="path13088-0"
       inkscape:connector-curvature="0" />
    <path
       style="fill:none;stroke:#1b1b1b;stroke-width:1.05833333;stroke-miterlimit:4;stroke-dasharray:none;stroke-opacity:1"
       d="m 54.239583,250.69789 -1.322918,-2.64583 H 47.625"
       id="path13090-3"
       inkscape:connector-curvature="0" />
    <path
       style="fill:none;stroke:#1b1b1b;stroke-width:1.05833333;stroke-miterlimit:4;stroke-dasharray:none;stroke-opacity:1"
       d="m 47.625,228.20831 c 2.282221,6.5283 1.819154,13.22576 2.645833,19.84375"
       id="path13092-6"
       inkscape:connector-curvature="0"
       sodipodi:nodetypes="cc" />
    <path
       style="fill:none;stroke:#1b1b1b;stroke-width:1.05833333;stroke-miterlimit:4;stroke-dasharray:none;stroke-opacity:1"
       d="m 47.625001,291.70831 h 10.583333 v -2.64583 H 47.625001"
       id="path13139-1"
       inkscape:connector-curvature="0" />
    <path
       style="fill:none;stroke:#1b1b1b;stroke-width:1.05833333;stroke-miterlimit:4;stroke-dasharray:none;stroke-opacity:1"
       d="m 56.885416,289.06248 v -2.64584 h -9.260415"
       id="path13141-0"
       inkscape:connector-curvature="0" />
    <path
       style="fill:none;stroke:#1b1b1b;stroke-width:1.05833333;stroke-miterlimit:4;stroke-dasharray:none;stroke-opacity:1"
       d="m 51.593751,281.12498 5.291665,5.29166"
       id="path13299-6"
       inkscape:connector-curvature="0" />
    <path
       style="fill:url(#linearGradient2405);stroke:#1b1b1b;stroke-width:0.5152216;stroke-miterlimit:4;stroke-dasharray:none;stroke-opacity:1;fill-opacity:1"
       d="m 157.75376,270.14382 c -8.87674,-8.3241 -14.97855,-14.63793 -18.22122,-18.85433 -11.4912,-14.94188 -14.37784,-30.79102 -9.11531,-50.04775 l 1.0704,-3.91685 48.51147,0.12878 48.51148,0.12878 0.67773,2.27284 c 2.02334,6.78548 2.79701,11.99786 2.81131,18.94036 0.0178,8.64362 -1.0972,13.69996 -4.67779,21.21321 -4.42772,9.29078 -9.96615,16.00881 -24.0205,29.13644 l -9.09119,8.49174 H 179.9773 165.74445 Z"
       id="path2379"
       inkscape:connector-curvature="0"
       transform="matrix(0.26458333,0,0,0.26458333,0,201.74997)" />
    <path
       style="fill:#fff6d5;stroke:#1b1b1b;stroke-width:0.5152216;stroke-miterlimit:4;stroke-dasharray:none;stroke-opacity:1"
       d="m 143.95469,192.5149 c 0,-0.14813 0.57204,-1.3982 1.27119,-2.77792 l 1.2712,-2.50859 h 33.57056 33.57055 l 1.2712,2.50859 c 0.69916,1.37972 1.2712,2.62979 1.2712,2.77792 0,0.14813 -16.25083,0.26933 -36.11295,0.26933 -19.86213,0 -36.11295,-0.1212 -36.11295,-0.26933 z"
       id="path2381"
       inkscape:connector-curvature="0"
       transform="matrix(0.26458333,0,0,0.26458333,0,201.74997)" />
    <path
       style="fill:#fff6d5;stroke:#1b1b1b;stroke-width:0.5152216;stroke-miterlimit:4;stroke-dasharray:none;stroke-opacity:1"
       d="m 159.97529,179.90478 1.36242,-2.77792 h 18.5741 18.5741 l 1.27119,2.50859 c 0.69916,1.37973 1.2712,2.62979 1.2712,2.77792 0,0.14813 -9.54347,0.26933 -21.20771,0.26933 h -21.20772 z"
       id="path2383"
       inkscape:connector-curvature="0"
       transform="matrix(0.26458333,0,0,0.26458333,0,201.74997)" />
    <path
       style="fill:url(#linearGradient2413);stroke:#1b1b1b;stroke-width:0.5152216;stroke-miterlimit:4;stroke-dasharray:none;stroke-opacity:1;fill-opacity:1"
       d="m 172.74403,172.08077 c 0,-1.63668 2.6268,-36.98541 3.05926,-41.16839 0.65537,-6.33902 1.73553,-12.82818 3.11072,-18.68782 l 1.06681,-4.54569 0.90807,3.53554 c 2.11066,8.21772 3.55933,19.80169 4.73732,37.88072 0.4344,6.66701 1.00906,14.50831 1.27701,17.42513 0.26795,2.91682 0.48737,5.47376 0.4876,5.68211 2.3e-4,0.20834 -3.2952,0.37881 -7.32318,0.37881 -4.50017,0 -7.32361,-0.19292 -7.32361,-0.50041 z"
       id="path2385"
       inkscape:connector-curvature="0"
       transform="matrix(0.26458333,0,0,0.26458333,0,201.74997)" />
    <path
       style="fill:#ffeeaa;stroke:#1b1b1b;stroke-width:0.5152216;stroke-miterlimit:4;stroke-dasharray:none;stroke-opacity:1"
       d="m 164.5027,286.31981 -1.35925,-1.41875 1.41866,-1.35917 1.41867,-1.35916 h 14.14627 14.14627 l 1.35925,1.41875 1.35926,1.41875 -1.41867,1.35917 -1.41866,1.35916 h -14.14627 -14.14627 z"
       id="path2387"
       inkscape:connector-curvature="0"
       transform="matrix(0.26458333,0,0,0.26458333,0,201.74997)" />
    <path
       style="fill:#ffeeaa;stroke:#1b1b1b;stroke-width:0.5152216;stroke-miterlimit:4;stroke-dasharray:none;stroke-opacity:1"
       d="m 167.18819,295.06217 v -2.77792 h 12.87945 12.87944 v 2.77792 2.77792 h -12.87944 -12.87945 z"
       id="path2389"
       inkscape:connector-curvature="0"
       transform="matrix(0.26458333,0,0,0.26458333,0,201.74997)" />
    <path
       style="fill:#ffeeaa;stroke:#1b1b1b;stroke-width:0.5152216;stroke-miterlimit:4;stroke-dasharray:none;stroke-opacity:1"
       d="m 158.34936,309.96192 7.56351,-7.57614 h 14.15477 14.15476 l 7.56352,7.57614 7.56351,7.57614 h -29.28179 -29.28179 z"
       id="path2391"
       inkscape:connector-curvature="0"
       transform="matrix(0.26458333,0,0,0.26458333,0,201.74997)" />
    <path
       style="fill:#ffeeaa;stroke:#1b1b1b;stroke-width:0.5152216;stroke-miterlimit:4;stroke-dasharray:none;stroke-opacity:1"
       d="m 146.98514,324.86167 v -2.77792 h 32.82996 32.82996 v 2.77792 2.77792 H 179.8151 146.98514 Z"
       id="path2393"
       inkscape:connector-curvature="0"
       transform="matrix(0.26458333,0,0,0.26458333,0,201.74997)" />
    <path
       style="fill:#ffeeaa;stroke:#1b1b1b;stroke-width:0.5152216;stroke-miterlimit:4;stroke-dasharray:none;stroke-opacity:1"
       d="m 142.43946,334.9632 v -2.77792 h 37.62818 37.62818 v 2.77792 2.77792 h -37.62818 -37.62818 z"
       id="path2397"
       inkscape:connector-curvature="0"
       transform="matrix(0.26458333,0,0,0.26458333,0,201.74997)" />
  </g>
</svg>
