<?xml version="1.0" encoding="UTF-8" standalone="no"?>
<!-- Created with Inkscape (http://www.inkscape.org/) -->

<svg
   xmlns:dc="http://purl.org/dc/elements/1.1/"
   xmlns:cc="http://creativecommons.org/ns#"
   xmlns:rdf="http://www.w3.org/1999/02/22-rdf-syntax-ns#"
   xmlns:svg="http://www.w3.org/2000/svg"
   xmlns="http://www.w3.org/2000/svg"
   xmlns:xlink="http://www.w3.org/1999/xlink"
   xmlns:sodipodi="http://sodipodi.sourceforge.net/DTD/sodipodi-0.dtd"
   xmlns:inkscape="http://www.inkscape.org/namespaces/inkscape"
   width="360"
   height="360"
   viewBox="0 0 95.249998 95.250003"
   version="1.1"
   id="svg8"
   inkscape:version="0.92.4 5da689c313, 2019-01-14"
   sodipodi:docname="met_w.svg">
  <defs
     id="defs2">
    <linearGradient
       inkscape:collect="always"
       id="linearGradient5614">
      <stop
         style="stop-color:#fff6d5;stop-opacity:1;"
         offset="0"
         id="stop5610" />
      <stop
         style="stop-color:#ffeeaa;stop-opacity:1"
         offset="1"
         id="stop5612" />
    </linearGradient>
    <linearGradient
       inkscape:collect="always"
       id="linearGradient5606">
      <stop
         style="stop-color:#fff6d5;stop-opacity:1;"
         offset="0"
         id="stop5602" />
      <stop
         style="stop-color:#ffeeaa;stop-opacity:1"
         offset="1"
         id="stop5604" />
    </linearGradient>
    <linearGradient
       inkscape:collect="always"
       xlink:href="#linearGradient5606"
       id="linearGradient5608"
       x1="180"
       y1="195"
       x2="180"
       y2="280"
       gradientUnits="userSpaceOnUse" />
    <linearGradient
       inkscape:collect="always"
       xlink:href="#linearGradient5614"
       id="linearGradient5616"
       x1="180"
       y1="110"
       x2="180"
       y2="175"
       gradientUnits="userSpaceOnUse" />
  </defs>
  <sodipodi:namedview
     id="base"
     pagecolor="#ffffff"
     bordercolor="#666666"
     borderopacity="1.0"
     inkscape:pageopacity="0.0"
     inkscape:pageshadow="2"
     inkscape:zoom="1.979899"
     inkscape:cx="79.860503"
     inkscape:cy="155.80105"
     inkscape:document-units="mm"
     inkscape:current-layer="layer1"
     showgrid="true"
     units="px"
     inkscape:window-width="1856"
     inkscape:window-height="1027"
     inkscape:window-x="4"
     inkscape:window-y="48"
     inkscape:window-maximized="0">
    <inkscape:grid
       type="xygrid"
       id="grid3721" />
  </sodipodi:namedview>
  <metadata
     id="metadata5">
    <rdf:RDF>
      <cc:Work
         rdf:about="">
        <dc:format>image/svg+xml</dc:format>
        <dc:type
           rdf:resource="http://purl.org/dc/dcmitype/StillImage" />
        <dc:title></dc:title>
      </cc:Work>
    </rdf:RDF>
  </metadata>
  <g
     inkscape:label="Layer 1"
     inkscape:groupmode="layer"
     id="layer1"
     transform="translate(0,-201.74997)">
    <path
       style="fill:none;stroke:#1b1b1b;stroke-width:1.5875;stroke-miterlimit:4;stroke-dasharray:none;stroke-opacity:1"
       d="m 43.656251,281.12497 h 3.96875"
       id="path13060"
       inkscape:connector-curvature="0" />
    <path
       style="fill:none;stroke:#1b1b1b;stroke-width:1.5875;stroke-miterlimit:4;stroke-dasharray:none;stroke-opacity:1"
       d="m 43.656251,281.12497 v -2.64583 h 3.96875"
       id="path13066"
       inkscape:connector-curvature="0" />
    <path
       style="fill:none;stroke:#1b1b1b;stroke-width:1.5875;stroke-miterlimit:4;stroke-dasharray:none;stroke-opacity:1"
       d="m 43.656251,278.47914 -1.322916,-1.32292 1.322916,-1.32291 h 3.96875"
       id="path13068"
       inkscape:connector-curvature="0" />
    <path
       style="fill:none;stroke:#1b1b1b;stroke-width:1.5875;stroke-miterlimit:4;stroke-dasharray:none;stroke-opacity:1"
       d="m 43.656251,275.83331 c -5.997894,-5.74112 -13.337127,-10.6734 -9.260416,-22.48959"
       id="path13076"
       inkscape:connector-curvature="0"
       sodipodi:nodetypes="cc" />
    <path
       style="fill:none;stroke:#1b1b1b;stroke-width:1.5875;stroke-miterlimit:4;stroke-dasharray:none;stroke-opacity:1"
       d="M 34.395835,253.34372 H 47.625001"
       id="path13078"
       inkscape:connector-curvature="0" />
    <path
       style="fill:none;stroke:#1b1b1b;stroke-width:1.5875;stroke-miterlimit:4;stroke-dasharray:none;stroke-opacity:1"
       d="m 37.041668,253.34372 1.322917,-2.64583 h 9.260416"
       id="path13088"
       inkscape:connector-curvature="0" />
    <path
       style="fill:none;stroke:#1b1b1b;stroke-width:1.5875;stroke-miterlimit:4;stroke-dasharray:none;stroke-opacity:1"
       d="m 41.010418,250.69789 1.322917,-2.64583 h 5.291666"
       id="path13090"
       inkscape:connector-curvature="0" />
    <path
       style="fill:none;stroke:#1b1b1b;stroke-width:1.5875;stroke-miterlimit:4;stroke-dasharray:none;stroke-opacity:1"
       d="m 47.625001,228.20831 c -2.282221,6.5283 -1.819154,13.22576 -2.645833,19.84375"
       id="path13092"
       inkscape:connector-curvature="0"
       sodipodi:nodetypes="cc" />
    <path
       style="fill:none;stroke:#1b1b1b;stroke-width:1.5875;stroke-miterlimit:4;stroke-dasharray:none;stroke-opacity:1"
       d="M 47.625,291.7083 H 37.041667 v -2.64583 H 47.625"
       id="path13139"
       inkscape:connector-curvature="0" />
    <path
       style="fill:none;stroke:#1b1b1b;stroke-width:1.5875;stroke-miterlimit:4;stroke-dasharray:none;stroke-opacity:1"
       d="m 38.364584,289.06247 v -2.64583 H 47.625"
       id="path13141"
       inkscape:connector-curvature="0" />
    <path
       style="fill:none;stroke:#1b1b1b;stroke-width:1.5875;stroke-miterlimit:4;stroke-dasharray:none;stroke-opacity:1"
       d="m 43.65625,281.12497 -5.291666,5.29167"
       id="path13299"
       inkscape:connector-curvature="0" />
    <path
       style="fill:none;stroke:#1b1b1b;stroke-width:1.5875;stroke-miterlimit:4;stroke-dasharray:none;stroke-opacity:1"
       d="m 51.593751,281.12498 h -3.96875"
       id="path13060-4"
       inkscape:connector-curvature="0" />
    <path
       style="fill:none;stroke:#1b1b1b;stroke-width:1.5875;stroke-miterlimit:4;stroke-dasharray:none;stroke-opacity:1"
       d="m 51.593751,281.12498 v -2.64584 h -3.96875"
       id="path13066-7"
       inkscape:connector-curvature="0" />
    <path
       style="fill:none;stroke:#1b1b1b;stroke-width:1.5875;stroke-miterlimit:4;stroke-dasharray:none;stroke-opacity:1"
       d="m 51.593751,278.47914 1.322915,-1.32291 -1.322915,-1.32292 h -3.96875"
       id="path13068-8"
       inkscape:connector-curvature="0" />
    <path
       style="fill:none;stroke:#1b1b1b;stroke-width:1.5875;stroke-miterlimit:4;stroke-dasharray:none;stroke-opacity:1"
       d="m 51.593751,275.83331 c 5.997894,-5.74112 13.337127,-10.6734 9.260416,-22.48959"
       id="path13076-4"
       inkscape:connector-curvature="0"
       sodipodi:nodetypes="cc" />
    <path
       style="fill:none;stroke:#1b1b1b;stroke-width:1.5875;stroke-miterlimit:4;stroke-dasharray:none;stroke-opacity:1"
       d="M 60.854167,253.34372 H 47.625001"
       id="path13078-5"
       inkscape:connector-curvature="0" />
    <path
       style="fill:none;stroke:#1b1b1b;stroke-width:1.5875;stroke-miterlimit:4;stroke-dasharray:none;stroke-opacity:1"
       d="m 58.208334,253.34372 -1.322918,-2.64583 h -9.260415"
       id="path13088-0"
       inkscape:connector-curvature="0" />
    <path
       style="fill:none;stroke:#1b1b1b;stroke-width:1.5875;stroke-miterlimit:4;stroke-dasharray:none;stroke-opacity:1"
       d="m 54.239584,250.69789 -1.322918,-2.64583 h -5.291665"
       id="path13090-3"
       inkscape:connector-curvature="0" />
    <path
       style="fill:none;stroke:#1b1b1b;stroke-width:1.5875;stroke-miterlimit:4;stroke-dasharray:none;stroke-opacity:1"
       d="m 47.625001,228.20831 c 2.282221,6.5283 1.819154,13.22576 2.645833,19.84375"
       id="path13092-6"
       inkscape:connector-curvature="0"
       sodipodi:nodetypes="cc" />
    <path
       style="fill:none;stroke:#1b1b1b;stroke-width:1.5875;stroke-miterlimit:4;stroke-dasharray:none;stroke-opacity:1"
       d="m 47.625002,291.70831 h 10.583333 v -2.64583 H 47.625002"
       id="path13139-1"
       inkscape:connector-curvature="0" />
    <path
       style="fill:none;stroke:#1b1b1b;stroke-width:1.5875;stroke-miterlimit:4;stroke-dasharray:none;stroke-opacity:1"
       d="m 56.885417,289.06248 v -2.64584 h -9.260415"
       id="path13141-0"
       inkscape:connector-curvature="0" />
    <path
       style="fill:none;stroke:#1b1b1b;stroke-width:1.5875;stroke-miterlimit:4;stroke-dasharray:none;stroke-opacity:1"
       d="m 51.593752,281.12498 5.291665,5.29166"
       id="path13299-6"
       inkscape:connector-curvature="0" />
    <path
       style="fill:url(#linearGradient5608);stroke:#1b1b1b;stroke-width:0;stroke-miterlimit:4;stroke-dasharray:none;stroke-opacity:1;fill-opacity:1"
       d="m 158.80392,269.84541 c -19.96713,-18.56214 -26.83323,-28.63528 -29.35898,-43.07209 -1.25372,-7.16604 -0.45882,-17.03264 2.0742,-25.74593 l 0.83996,-2.88936 h 47.6744 47.6744 l 0.49288,1.89404 c 0.27109,1.04172 0.84538,3.25774 1.2762,4.92449 3.12433,12.08721 1.95265,24.73103 -3.26508,35.23408 -4.29195,8.63949 -9.90117,15.37467 -23.3227,28.00429 l -9.23501,8.69013 -13.63706,0.002 -13.63706,0.002 -7.57615,-7.04305 z"
       id="path5578"
       inkscape:connector-curvature="0"
       transform="matrix(0.26458333,0,0,0.26458333,0,201.74997)" />
    <path
       style="fill:#fff6d5;stroke:#1b1b1b;stroke-width:0;stroke-miterlimit:4;stroke-dasharray:none;stroke-opacity:1"
       d="m 146.27874,189.80428 0.84298,-1.76777 h 32.89541 32.8954 l 0.84299,1.76777 0.84299,1.76776 h -34.58138 -34.58138 z"
       id="path5584"
       inkscape:connector-curvature="0"
       transform="matrix(0.26458333,0,0,0.26458333,0,201.74997)" />
    <path
       style="fill:#fff6d5;stroke:#1b1b1b;stroke-width:0;stroke-miterlimit:4;stroke-dasharray:none;stroke-opacity:1"
       d="m 160.92595,180.20783 0.84299,-1.76777 h 18.24819 18.24819 l 0.84299,1.76777 0.84299,1.76776 h -19.93417 -19.93417 z"
       id="path5586"
       inkscape:connector-curvature="0"
       transform="matrix(0.26458333,0,0,0.26458333,0,201.74997)" />
    <path
       style="fill:url(#linearGradient5616);stroke:#1b1b1b;stroke-width:0;stroke-miterlimit:4;stroke-dasharray:none;stroke-opacity:1;fill-opacity:1"
       d="m 173.88975,168.96988 c 0.17411,-1.5973 0.77159,-9.60908 1.32772,-17.80394 1.18397,-17.44605 1.67268,-22.35026 3.04505,-30.55711 1.66093,-9.93243 1.67694,-9.95034 2.93317,-3.283 1.52629,8.10061 2.41524,16.51864 3.60021,34.09265 0.56192,8.33376 1.16329,16.34553 1.33638,17.80394 l 0.31469,2.65165 h -6.43688 -6.43689 z"
       id="path5588"
       inkscape:connector-curvature="0"
       transform="matrix(0.26458333,0,0,0.26458333,0,201.74997)" />
    <path
       style="fill:#ffeeaa;stroke:#1b1b1b;stroke-width:0;stroke-miterlimit:4;stroke-dasharray:none;stroke-opacity:1"
       d="m 165.44411,285.59821 c -0.78493,-0.86733 -0.77917,-0.98321 0.0878,-1.76777 0.81582,-0.73831 2.5434,-0.83959 14.32048,-0.83959 12.70903,0 13.43897,0.0511 14.29834,1.00068 0.74111,0.81891 0.78996,1.14001 0.26897,1.76776 -0.54085,0.65169 -2.70504,0.76709 -14.3861,0.76709 -12.70322,0 -13.81339,-0.0706 -14.58945,-0.92817 z"
       id="path5592"
       inkscape:connector-curvature="0"
       transform="matrix(0.26458333,0,0,0.26458333,0,201.74997)" />
    <path
       style="fill:#ffeeaa;stroke:#1b1b1b;stroke-width:0;stroke-miterlimit:4;stroke-dasharray:none;stroke-opacity:1"
       d="m 168.14784,294.86014 v -1.76777 h 11.86929 11.86929 v 1.76777 1.76777 h -11.86929 -11.86929 z"
       id="path5594"
       inkscape:connector-curvature="0"
       transform="matrix(0.26458333,0,0,0.26458333,0,201.74997)" />
    <path
       style="fill:#ffeeaa;stroke:#1b1b1b;stroke-width:0;stroke-miterlimit:4;stroke-dasharray:none;stroke-opacity:1"
       d="m 159.56154,310.01243 6.80449,-6.81853 h 13.6511 13.65109 l 6.8045,6.81853 6.80449,6.81853 h -27.26008 -27.26009 z"
       id="path5596"
       inkscape:connector-curvature="0"
       transform="matrix(0.26458333,0,0,0.26458333,0,201.74997)" />
    <path
       style="fill:#ffeeaa;stroke:#1b1b1b;stroke-width:0;stroke-miterlimit:4;stroke-dasharray:none;stroke-opacity:1"
       d="m 148.44986,325.16472 v -1.76777 h 31.56727 31.56726 v 1.76777 1.76776 h -31.56726 -31.56727 z"
       id="path5598"
       inkscape:connector-curvature="0"
       transform="matrix(0.26458333,0,0,0.26458333,0,201.74997)" />
    <path
       style="fill:#ffeeaa;stroke:#1b1b1b;stroke-width:0;stroke-miterlimit:4;stroke-dasharray:none;stroke-opacity:1"
       d="m 143.3991,334.76117 v -1.76777 h 36.61803 36.61803 v 1.76777 1.76776 H 180.01713 143.3991 Z"
       id="path5600"
       inkscape:connector-curvature="0"
       transform="matrix(0.26458333,0,0,0.26458333,0,201.74997)" />
  </g>
</svg>
