<?xml version="1.0" encoding="UTF-8" standalone="no"?>
<!-- Created with Inkscape (http://www.inkscape.org/) -->

<svg
   xmlns:dc="http://purl.org/dc/elements/1.1/"
   xmlns:cc="http://creativecommons.org/ns#"
   xmlns:rdf="http://www.w3.org/1999/02/22-rdf-syntax-ns#"
   xmlns:svg="http://www.w3.org/2000/svg"
   xmlns="http://www.w3.org/2000/svg"
   xmlns:xlink="http://www.w3.org/1999/xlink"
   xmlns:sodipodi="http://sodipodi.sourceforge.net/DTD/sodipodi-0.dtd"
   xmlns:inkscape="http://www.inkscape.org/namespaces/inkscape"
   width="360"
   height="360"
   viewBox="0 0 95.249998 95.250003"
   version="1.1"
   id="svg8"
   inkscape:version="0.92.4 5da689c313, 2019-01-14"
   sodipodi:docname="met_w.svg">
  <defs
     id="defs2">
    <linearGradient
       inkscape:collect="always"
       id="linearGradient13372">
      <stop
         style="stop-color:#fff6d5;stop-opacity:1;"
         offset="0"
         id="stop13368" />
      <stop
         style="stop-color:#ffeeaa;stop-opacity:1"
         offset="1"
         id="stop13370" />
    </linearGradient>
    <linearGradient
       inkscape:collect="always"
       xlink:href="#linearGradient13372"
       id="linearGradient13374"
       x1="180"
       y1="195"
       x2="180"
       y2="280"
       gradientUnits="userSpaceOnUse" />
    <linearGradient
       inkscape:collect="always"
       xlink:href="#linearGradient13372"
       id="linearGradient13388"
       x1="180"
       y1="110"
       x2="180"
       y2="175"
       gradientUnits="userSpaceOnUse" />
  </defs>
  <sodipodi:namedview
     id="base"
     pagecolor="#ffffff"
     bordercolor="#666666"
     borderopacity="1.0"
     inkscape:pageopacity="0.0"
     inkscape:pageshadow="2"
     inkscape:zoom="1.979899"
     inkscape:cx="150.31865"
     inkscape:cy="176.0041"
     inkscape:document-units="mm"
     inkscape:current-layer="layer1"
     showgrid="true"
     units="px"
     inkscape:window-width="1794"
     inkscape:window-height="1027"
     inkscape:window-x="34"
     inkscape:window-y="44"
     inkscape:window-maximized="0">
    <inkscape:grid
       type="xygrid"
       id="grid3721" />
  </sodipodi:namedview>
  <metadata
     id="metadata5">
    <rdf:RDF>
      <cc:Work
         rdf:about="">
        <dc:format>image/svg+xml</dc:format>
        <dc:type
           rdf:resource="http://purl.org/dc/dcmitype/StillImage" />
        <dc:title></dc:title>
      </cc:Work>
    </rdf:RDF>
  </metadata>
  <g
     inkscape:label="Layer 1"
     inkscape:groupmode="layer"
     id="layer1"
     transform="translate(0,-201.74997)">
    <path
       style="fill:none;stroke:#1b1b1b;stroke-width:1.32291663;stroke-miterlimit:4;stroke-dasharray:none;stroke-opacity:1"
       d="M 43.65625,281.12497 H 47.625"
       id="path13060"
       inkscape:connector-curvature="0" />
    <path
       style="fill:none;stroke:#1b1b1b;stroke-width:1.32291663;stroke-miterlimit:4;stroke-dasharray:none;stroke-opacity:1"
       d="m 43.65625,281.12497 v -2.64583 H 47.625"
       id="path13066"
       inkscape:connector-curvature="0" />
    <path
       style="fill:none;stroke:#1b1b1b;stroke-width:1.32291663;stroke-miterlimit:4;stroke-dasharray:none;stroke-opacity:1"
       d="m 43.65625,278.47914 -1.322916,-1.32292 1.322916,-1.32291 H 47.625"
       id="path13068"
       inkscape:connector-curvature="0" />
    <path
       style="fill:none;stroke:#1b1b1b;stroke-width:1.32291663;stroke-miterlimit:4;stroke-dasharray:none;stroke-opacity:1"
       d="m 43.65625,275.83331 c -5.997894,-5.74112 -13.337127,-10.6734 -9.260416,-22.48959"
       id="path13076"
       inkscape:connector-curvature="0"
       sodipodi:nodetypes="cc" />
    <path
       style="fill:none;stroke:#1b1b1b;stroke-width:1.32291663;stroke-miterlimit:4;stroke-dasharray:none;stroke-opacity:1"
       d="M 34.395834,253.34372 H 47.625"
       id="path13078"
       inkscape:connector-curvature="0" />
    <path
       style="fill:none;stroke:#1b1b1b;stroke-width:1.32291663;stroke-miterlimit:4;stroke-dasharray:none;stroke-opacity:1"
       d="m 37.041667,253.34372 1.322917,-2.64583 H 47.625"
       id="path13088"
       inkscape:connector-curvature="0" />
    <path
       style="fill:none;stroke:#1b1b1b;stroke-width:1.32291663;stroke-miterlimit:4;stroke-dasharray:none;stroke-opacity:1"
       d="m 41.010417,250.69789 1.322917,-2.64583 H 47.625"
       id="path13090"
       inkscape:connector-curvature="0" />
    <path
       style="fill:none;stroke:#1b1b1b;stroke-width:1.32291663;stroke-miterlimit:4;stroke-dasharray:none;stroke-opacity:1"
       d="m 47.625,228.20831 c -2.282221,6.5283 -1.819154,13.22576 -2.645833,19.84375"
       id="path13092"
       inkscape:connector-curvature="0"
       sodipodi:nodetypes="cc" />
    <path
       style="fill:none;stroke:#1b1b1b;stroke-width:1.32291663;stroke-miterlimit:4;stroke-dasharray:none;stroke-opacity:1"
       d="M 47.624999,291.7083 H 37.041666 v -2.64583 h 10.583333"
       id="path13139"
       inkscape:connector-curvature="0" />
    <path
       style="fill:none;stroke:#1b1b1b;stroke-width:1.32291663;stroke-miterlimit:4;stroke-dasharray:none;stroke-opacity:1"
       d="m 38.364583,289.06247 v -2.64583 h 9.260416"
       id="path13141"
       inkscape:connector-curvature="0" />
    <path
       style="fill:none;stroke:#1b1b1b;stroke-width:1.32291663;stroke-miterlimit:4;stroke-dasharray:none;stroke-opacity:1"
       d="m 43.656249,281.12497 -5.291666,5.29167"
       id="path13299"
       inkscape:connector-curvature="0" />
    <path
       style="fill:none;stroke:#1b1b1b;stroke-width:1.32291663;stroke-miterlimit:4;stroke-dasharray:none;stroke-opacity:1"
       d="M 51.59375,281.12498 H 47.625"
       id="path13060-4"
       inkscape:connector-curvature="0" />
    <path
       style="fill:none;stroke:#1b1b1b;stroke-width:1.32291663;stroke-miterlimit:4;stroke-dasharray:none;stroke-opacity:1"
       d="m 51.59375,281.12498 v -2.64584 H 47.625"
       id="path13066-7"
       inkscape:connector-curvature="0" />
    <path
       style="fill:none;stroke:#1b1b1b;stroke-width:1.32291663;stroke-miterlimit:4;stroke-dasharray:none;stroke-opacity:1"
       d="m 51.59375,278.47914 1.322915,-1.32291 -1.322915,-1.32292 H 47.625"
       id="path13068-8"
       inkscape:connector-curvature="0" />
    <path
       style="fill:none;stroke:#1b1b1b;stroke-width:1.32291663;stroke-miterlimit:4;stroke-dasharray:none;stroke-opacity:1"
       d="m 51.59375,275.83331 c 5.997894,-5.74112 13.337127,-10.6734 9.260416,-22.48959"
       id="path13076-4"
       inkscape:connector-curvature="0"
       sodipodi:nodetypes="cc" />
    <path
       style="fill:none;stroke:#1b1b1b;stroke-width:1.32291663;stroke-miterlimit:4;stroke-dasharray:none;stroke-opacity:1"
       d="M 60.854166,253.34372 H 47.625"
       id="path13078-5"
       inkscape:connector-curvature="0" />
    <path
       style="fill:none;stroke:#1b1b1b;stroke-width:1.32291663;stroke-miterlimit:4;stroke-dasharray:none;stroke-opacity:1"
       d="m 58.208333,253.34372 -1.322918,-2.64583 H 47.625"
       id="path13088-0"
       inkscape:connector-curvature="0" />
    <path
       style="fill:none;stroke:#1b1b1b;stroke-width:1.32291663;stroke-miterlimit:4;stroke-dasharray:none;stroke-opacity:1"
       d="m 54.239583,250.69789 -1.322918,-2.64583 H 47.625"
       id="path13090-3"
       inkscape:connector-curvature="0" />
    <path
       style="fill:none;stroke:#1b1b1b;stroke-width:1.32291663;stroke-miterlimit:4;stroke-dasharray:none;stroke-opacity:1"
       d="m 47.625,228.20831 c 2.282221,6.5283 1.819154,13.22576 2.645833,19.84375"
       id="path13092-6"
       inkscape:connector-curvature="0"
       sodipodi:nodetypes="cc" />
    <path
       style="fill:none;stroke:#1b1b1b;stroke-width:1.32291663;stroke-miterlimit:4;stroke-dasharray:none;stroke-opacity:1"
       d="m 47.625001,291.70831 h 10.583333 v -2.64583 H 47.625001"
       id="path13139-1"
       inkscape:connector-curvature="0" />
    <path
       style="fill:none;stroke:#1b1b1b;stroke-width:1.32291663;stroke-miterlimit:4;stroke-dasharray:none;stroke-opacity:1"
       d="m 56.885416,289.06248 v -2.64584 h -9.260415"
       id="path13141-0"
       inkscape:connector-curvature="0" />
    <path
       style="fill:none;stroke:#1b1b1b;stroke-width:1.32291663;stroke-miterlimit:4;stroke-dasharray:none;stroke-opacity:1"
       d="m 51.593751,281.12498 5.291665,5.29166"
       id="path13299-6"
       inkscape:connector-curvature="0" />
    <path
       style="fill:url(#linearGradient13374);stroke:#1b1b1b;stroke-width:2.52538133;stroke-miterlimit:4;stroke-dasharray:none;stroke-opacity:1;fill-opacity:1"
       d="m 156.94198,268.69736 c -5.05205,-4.77812 -10.50734,-10.16483 -12.12287,-11.97048 -8.86681,-9.91027 -13.54685,-18.32003 -15.51758,-27.88417 -1.59867,-7.75851 -0.70144,-20.62413 2.00697,-28.77837 l 0.80757,-2.43138 h 47.92027 47.92026 l 1.01249,3.40926 c 1.97947,6.66537 2.69365,12.52441 2.41648,19.82425 -0.39372,10.36907 -2.65423,17.24365 -8.60181,26.15942 -4.11557,6.1695 -9.25104,11.80159 -20.22315,22.17882 l -8.65388,8.18468 -13.8896,-0.003 -13.88959,-0.003 -9.18556,-8.68748 z"
       id="path13348"
       inkscape:connector-curvature="0"
       transform="matrix(0.26458333,0,0,0.26458333,0,201.74997)" />
    <path
       style="fill:#fff6d5;stroke:#1b1b1b;stroke-width:2.52538133;stroke-miterlimit:4;stroke-dasharray:none;stroke-opacity:1"
       d="m 144.6618,191.80446 c 0,-0.14996 0.45918,-1.17274 1.02041,-2.27284 l 1.02042,-2.00019 h 33.22412 33.22413 l 1.10423,2.27285 1.10424,2.27284 h -35.34878 c -19.44183,0 -35.34877,-0.1227 -35.34877,-0.27266 z"
       id="path13350"
       inkscape:connector-curvature="0"
       transform="matrix(0.26458333,0,0,0.26458333,0,201.74997)" />
    <path
       style="fill:#fff6d5;stroke:#1b1b1b;stroke-width:2.52538133;stroke-miterlimit:4;stroke-dasharray:none;stroke-opacity:1"
       d="m 160.42637,180.20783 1.10423,-2.27285 h 18.48653 18.48654 l 1.10423,2.27285 1.10423,2.27284 h -20.695 -20.69499 z"
       id="path13352"
       inkscape:connector-curvature="0"
       transform="matrix(0.26458333,0,0,0.26458333,0,201.74997)" />
    <path
       style="fill:url(#linearGradient13388);stroke:#1b1b1b;stroke-width:2.52538133;stroke-miterlimit:4;stroke-dasharray:none;stroke-opacity:1;fill-opacity:1"
       d="m 173.15834,170.99018 c 0.16089,-0.76392 0.74711,-8.09384 1.3027,-16.28871 1.31693,-19.42445 1.85854,-25.18797 3.08507,-32.82995 1.27845,-7.96543 2.19598,-11.96532 2.59618,-11.31778 0.44524,0.72041 2.2264,9.83019 2.85477,14.60077 0.85062,6.45794 1.46295,13.5977 2.57739,30.05204 0.57384,8.47266 1.1645,15.80257 1.31259,16.28871 0.24759,0.81283 -0.30517,0.88388 -6.876,0.88388 h -7.14524 z"
       id="path13354"
       inkscape:connector-curvature="0"
       transform="matrix(0.26458333,0,0,0.26458333,0,201.74997)" />
    <path
       style="fill:#ffeeaa;stroke:#1b1b1b;stroke-width:2.52538133;stroke-miterlimit:4;stroke-dasharray:none;stroke-opacity:1"
       d="m 165.11259,286.01601 c -0.89218,-0.98585 -0.88454,-1.05208 0.2623,-2.27284 l 1.18127,-1.2574 h 13.46097 13.46098 l 1.18126,1.2574 c 1.14685,1.22076 1.15449,1.28699 0.2623,2.27284 -0.87841,0.97064 -1.53611,1.01545 -14.90454,1.01545 -13.36842,0 -14.02612,-0.0448 -14.90454,-1.01545 z"
       id="path13356"
       inkscape:connector-curvature="0"
       transform="matrix(0.26458333,0,0,0.26458333,0,201.74997)" />
    <path
       style="fill:#ffeeaa;stroke:#1b1b1b;stroke-width:2.52538133;stroke-miterlimit:4;stroke-dasharray:none;stroke-opacity:1"
       d="m 167.8953,294.86014 v -2.27284 h 12.12183 12.12183 v 2.27284 2.27284 H 180.01713 167.8953 Z"
       id="path13358"
       inkscape:connector-curvature="0"
       transform="matrix(0.26458333,0,0,0.26458333,0,201.74997)" />
    <path
       style="fill:#ffeeaa;stroke:#1b1b1b;stroke-width:2.52538133;stroke-miterlimit:4;stroke-dasharray:none;stroke-opacity:1"
       d="m 158.80393,310.01243 7.31054,-7.32361 h 13.90266 13.90267 l 7.31054,7.32361 7.31054,7.3236 h -28.52375 -28.52374 z"
       id="path13360"
       inkscape:connector-curvature="0"
       transform="matrix(0.26458333,0,0,0.26458333,0,201.74997)" />
    <path
       style="fill:#ffeeaa;stroke:#1b1b1b;stroke-width:2.52538133;stroke-miterlimit:4;stroke-dasharray:none;stroke-opacity:1"
       d="m 147.69225,325.16472 v -2.27285 h 32.32488 32.32489 v 2.27285 2.27284 h -32.32489 -32.32488 z"
       id="path13362"
       inkscape:connector-curvature="0"
       transform="matrix(0.26458333,0,0,0.26458333,0,201.74997)" />
    <path
       style="fill:#ffeeaa;stroke:#1b1b1b;stroke-width:2.52538133;stroke-miterlimit:4;stroke-dasharray:none;stroke-opacity:1"
       d="m 142.64149,334.76116 v -2.27284 h 37.37564 37.37565 v 2.27284 2.27285 h -37.37565 -37.37564 z"
       id="path13366"
       inkscape:connector-curvature="0"
       transform="matrix(0.26458333,0,0,0.26458333,0,201.74997)" />
  </g>
</svg>
