<?xml version="1.0" encoding="UTF-8" standalone="no"?>
<!-- Created with Inkscape (http://www.inkscape.org/) -->

<svg
   xmlns:dc="http://purl.org/dc/elements/1.1/"
   xmlns:cc="http://creativecommons.org/ns#"
   xmlns:rdf="http://www.w3.org/1999/02/22-rdf-syntax-ns#"
   xmlns:svg="http://www.w3.org/2000/svg"
   xmlns="http://www.w3.org/2000/svg"
   xmlns:xlink="http://www.w3.org/1999/xlink"
   xmlns:sodipodi="http://sodipodi.sourceforge.net/DTD/sodipodi-0.dtd"
   xmlns:inkscape="http://www.inkscape.org/namespaces/inkscape"
   width="360"
   height="360"
   viewBox="0 0 95.249998 95.250003"
   version="1.1"
   id="svg8"
   inkscape:version="0.92.4 5da689c313, 2019-01-14"
   sodipodi:docname="rua_r.svg">
  <defs
     id="defs2">
    <linearGradient
       inkscape:collect="always"
       id="linearGradient567">
      <stop
         style="stop-color:#ff2a2a;stop-opacity:1;"
         offset="0"
         id="stop563" />
      <stop
         style="stop-color:#aa0000;stop-opacity:1"
         offset="1"
         id="stop565" />
    </linearGradient>
    <linearGradient
       inkscape:collect="always"
       xlink:href="#linearGradient567"
       id="linearGradient569"
       x1="180"
       y1="160"
       x2="180"
       y2="250"
       gradientUnits="userSpaceOnUse" />
  </defs>
  <sodipodi:namedview
     id="base"
     pagecolor="#ffffff"
     bordercolor="#666666"
     borderopacity="1.0"
     inkscape:pageopacity="0.0"
     inkscape:pageshadow="2"
     inkscape:zoom="1.979899"
     inkscape:cx="171.25424"
     inkscape:cy="182.55666"
     inkscape:document-units="mm"
     inkscape:current-layer="layer1"
     showgrid="true"
     units="px"
     inkscape:window-width="1892"
     inkscape:window-height="983"
     inkscape:window-x="4"
     inkscape:window-y="48"
     inkscape:window-maximized="0">
    <inkscape:grid
       type="xygrid"
       id="grid3721" />
  </sodipodi:namedview>
  <metadata
     id="metadata5">
    <rdf:RDF>
      <cc:Work
         rdf:about="">
        <dc:format>image/svg+xml</dc:format>
        <dc:type
           rdf:resource="http://purl.org/dc/dcmitype/StillImage" />
        <dc:title></dc:title>
      </cc:Work>
    </rdf:RDF>
  </metadata>
  <g
     inkscape:label="Layer 1"
     inkscape:groupmode="layer"
     id="layer1"
     transform="translate(0,-201.74997)">
    <path
       style="fill:none;stroke:#000000;stroke-width:0.26458332"
       d="m 23.8125,267.8958 v 7.9375"
       id="path131"
       inkscape:connector-curvature="0" />
    <path
       style="fill:none;stroke:#000000;stroke-width:0.26458332"
       d="m 23.8125,267.8958 c -11.324642,-8.29677 -9.819667,-16.18653 0,-23.8125"
       id="path135"
       inkscape:connector-curvature="0"
       sodipodi:nodetypes="cc" />
    <path
       style="fill:none;stroke:#000000;stroke-width:0.26458332"
       d="M 23.8125,244.0833 H 47.624999"
       id="path137"
       inkscape:connector-curvature="0" />
    <path
       style="fill:none;stroke:#000000;stroke-width:0.26458332"
       d="m 26.458333,244.0833 v -2.64583 h 21.166666"
       id="path139"
       inkscape:connector-curvature="0" />
    <path
       style="fill:none;stroke:#000000;stroke-width:0.26458332"
       d="m 29.104166,241.43747 v -2.64583 h 18.520833"
       id="path141"
       inkscape:connector-curvature="0" />
    <path
       style="fill:none;stroke:#000000;stroke-width:0.26458332"
       d="M 31.75,238.79164 47.624999,225.56247"
       id="path143"
       inkscape:connector-curvature="0" />
    <path
       style="fill:none;stroke:#000000;stroke-width:0.26458332"
       d="M 23.8125,267.8958 H 47.624999"
       id="path145"
       inkscape:connector-curvature="0" />
    <path
       style="fill:none;stroke:#000000;stroke-width:0.26458332"
       d="M 47.624999,275.8333 H 23.8125"
       id="path147"
       inkscape:connector-curvature="0" />
    <path
       style="fill:none;stroke:#000000;stroke-width:0.26458332"
       d="m 71.4375,267.8958 v 7.9375"
       id="path131-2"
       inkscape:connector-curvature="0" />
    <path
       style="fill:none;stroke:#000000;stroke-width:0.26458332"
       d="m 71.4375,267.8958 c 11.324642,-8.29677 9.819668,-16.18653 0,-23.8125"
       id="path135-7"
       inkscape:connector-curvature="0"
       sodipodi:nodetypes="cc" />
    <path
       style="fill:none;stroke:#000000;stroke-width:0.26458332"
       d="M 71.4375,244.0833 H 47.625001"
       id="path137-0"
       inkscape:connector-curvature="0" />
    <path
       style="fill:none;stroke:#000000;stroke-width:0.26458332"
       d="m 68.791667,244.0833 v -2.64583 H 47.625001"
       id="path139-9"
       inkscape:connector-curvature="0" />
    <path
       style="fill:none;stroke:#000000;stroke-width:0.26458332"
       d="m 66.145834,241.43747 v -2.64583 H 47.625001"
       id="path141-3"
       inkscape:connector-curvature="0" />
    <path
       style="fill:none;stroke:#000000;stroke-width:0.26458332"
       d="M 63.5,238.79164 47.625001,225.56247"
       id="path143-6"
       inkscape:connector-curvature="0" />
    <path
       style="fill:none;stroke:#000000;stroke-width:0.26458332"
       d="M 71.4375,267.8958 H 47.625001"
       id="path145-0"
       inkscape:connector-curvature="0" />
    <path
       style="fill:none;stroke:#000000;stroke-width:0.26458332"
       d="M 47.625001,275.8333 H 71.4375"
       id="path147-6"
       inkscape:connector-curvature="0" />
    <path
       style="fill:#d40000;stroke:#000000;stroke-width:0.50507629"
       d="m 90.517203,265.03765 v -14.39468 h 89.398497 89.3985 v 14.39468 14.39467 H 179.9157 90.517203 Z"
       id="path551"
       inkscape:connector-curvature="0"
       transform="matrix(0.26458333,0,0,0.26458333,0,201.74997)" />
    <path
       style="fill:url(#linearGradient569);stroke:#000000;stroke-width:0.50507629;fill-opacity:1"
       d="M 85.089172,245.14068 C 71.649997,234.3306 63.130387,222.16162 61.186572,210.99941 58.674043,196.5714 66.888641,180.61873 84.645098,165.44316 l 5.503732,-4.70376 h 89.81605 89.81605 l 4.43859,3.70095 c 2.44123,2.03552 6.65601,6.03678 9.36619,8.89169 21.01964,22.14214 20.74882,43.38839 -0.82621,64.82009 -2.47176,2.45534 -6.37033,5.92931 -8.66348,7.71994 l -4.16937,3.25567 H 179.98629 90.045927 Z"
       id="path555"
       inkscape:connector-curvature="0"
       transform="matrix(0.26458333,0,0,0.26458333,0,201.74997)" />
    <path
       style="fill:#ff2a2a;stroke:#000000;stroke-width:0.50507629"
       d="m 100.61873,154.93102 v -4.29315 h 79.29697 79.29698 v 4.29315 4.29315 H 179.9157 100.61873 Z"
       id="path557"
       inkscape:connector-curvature="0"
       transform="matrix(0.26458333,0,0,0.26458333,0,201.74997)" />
    <path
       style="fill:#ff2a2a;stroke:#000000;stroke-width:0.50507629"
       d="m 110.72025,144.82949 v -4.29315 h 69.19545 69.19545 v 4.29315 4.29315 H 179.9157 110.72025 Z"
       id="path559"
       inkscape:connector-curvature="0"
       transform="matrix(0.26458333,0,0,0.26458333,0,201.74997)" />
    <path
       style="fill:#ff2a2a;stroke:#000000;stroke-width:0.50507629"
       d="m 123.86372,137.82396 c 0.68816,-0.65843 13.60007,-11.47275 28.69312,-24.03182 24.67479,-20.532118 27.52685,-22.761735 28.28427,-22.111359 0.4633,0.397822 13.22935,11.017199 28.36902,23.598609 15.13966,12.58141 27.74257,23.07024 28.00647,23.30851 0.26713,0.24118 -25.02755,0.43322 -57.06213,0.43322 H 122.6125 Z"
       id="path561"
       inkscape:connector-curvature="0"
       transform="matrix(0.26458333,0,0,0.26458333,0,201.74997)" />
  </g>
</svg>
