<?xml version="1.0" encoding="UTF-8" standalone="no"?>
<!-- Created with Inkscape (http://www.inkscape.org/) -->

<svg
   xmlns:dc="http://purl.org/dc/elements/1.1/"
   xmlns:cc="http://creativecommons.org/ns#"
   xmlns:rdf="http://www.w3.org/1999/02/22-rdf-syntax-ns#"
   xmlns:svg="http://www.w3.org/2000/svg"
   xmlns="http://www.w3.org/2000/svg"
   xmlns:xlink="http://www.w3.org/1999/xlink"
   xmlns:sodipodi="http://sodipodi.sourceforge.net/DTD/sodipodi-0.dtd"
   xmlns:inkscape="http://www.inkscape.org/namespaces/inkscape"
   width="360"
   height="360"
   viewBox="0 0 95.249998 95.250003"
   version="1.1"
   id="svg8"
   inkscape:version="0.92.4 5da689c313, 2019-01-14"
   sodipodi:docname="rua_b.svg">
  <defs
     id="defs2">
    <linearGradient
       inkscape:collect="always"
       id="linearGradient706">
      <stop
         style="stop-color:#4d4d4d;stop-opacity:1;"
         offset="0"
         id="stop702" />
      <stop
         style="stop-color:#1a1a1a;stop-opacity:1"
         offset="1"
         id="stop704" />
    </linearGradient>
    <linearGradient
       inkscape:collect="always"
       xlink:href="#linearGradient706"
       id="linearGradient708"
       x1="180"
       y1="160"
       x2="180"
       y2="250"
       gradientUnits="userSpaceOnUse" />
  </defs>
  <sodipodi:namedview
     id="base"
     pagecolor="#ffffff"
     bordercolor="#666666"
     borderopacity="1.0"
     inkscape:pageopacity="0.0"
     inkscape:pageshadow="2"
     inkscape:zoom="1.4"
     inkscape:cx="124.50787"
     inkscape:cy="180.00492"
     inkscape:document-units="mm"
     inkscape:current-layer="layer1"
     showgrid="true"
     units="px"
     inkscape:window-width="1882"
     inkscape:window-height="989"
     inkscape:window-x="4"
     inkscape:window-y="48"
     inkscape:window-maximized="0">
    <inkscape:grid
       type="xygrid"
       id="grid3721" />
  </sodipodi:namedview>
  <metadata
     id="metadata5">
    <rdf:RDF>
      <cc:Work
         rdf:about="">
        <dc:format>image/svg+xml</dc:format>
        <dc:type
           rdf:resource="http://purl.org/dc/dcmitype/StillImage" />
        <dc:title></dc:title>
      </cc:Work>
    </rdf:RDF>
  </metadata>
  <g
     inkscape:label="Layer 1"
     inkscape:groupmode="layer"
     id="layer1"
     transform="translate(0,-201.74997)">
    <path
       style="fill:none;stroke:#000000;stroke-width:0.26458332"
       d="m 23.8125,267.8958 v 7.9375"
       id="path131"
       inkscape:connector-curvature="0" />
    <path
       style="fill:none;stroke:#000000;stroke-width:0.26458332"
       d="m 23.8125,267.8958 c -11.324642,-8.29677 -9.819667,-16.18653 0,-23.8125"
       id="path135"
       inkscape:connector-curvature="0"
       sodipodi:nodetypes="cc" />
    <path
       style="fill:none;stroke:#000000;stroke-width:0.26458332"
       d="M 23.8125,244.0833 H 47.624999"
       id="path137"
       inkscape:connector-curvature="0" />
    <path
       style="fill:none;stroke:#000000;stroke-width:0.26458332"
       d="m 26.458333,244.0833 v -2.64583 h 21.166666"
       id="path139"
       inkscape:connector-curvature="0" />
    <path
       style="fill:none;stroke:#000000;stroke-width:0.26458332"
       d="m 29.104166,241.43747 v -2.64583 h 18.520833"
       id="path141"
       inkscape:connector-curvature="0" />
    <path
       style="fill:none;stroke:#000000;stroke-width:0.26458332"
       d="M 31.75,238.79164 47.624999,225.56247"
       id="path143"
       inkscape:connector-curvature="0" />
    <path
       style="fill:none;stroke:#000000;stroke-width:0.26458332"
       d="M 23.8125,267.8958 H 47.624999"
       id="path145"
       inkscape:connector-curvature="0" />
    <path
       style="fill:none;stroke:#000000;stroke-width:0.26458332"
       d="M 47.624999,275.8333 H 23.8125"
       id="path147"
       inkscape:connector-curvature="0" />
    <path
       style="fill:none;stroke:#000000;stroke-width:0.26458332"
       d="m 71.4375,267.8958 v 7.9375"
       id="path131-2"
       inkscape:connector-curvature="0" />
    <path
       style="fill:none;stroke:#000000;stroke-width:0.26458332"
       d="m 71.4375,267.8958 c 11.324642,-8.29677 9.819668,-16.18653 0,-23.8125"
       id="path135-7"
       inkscape:connector-curvature="0"
       sodipodi:nodetypes="cc" />
    <path
       style="fill:none;stroke:#000000;stroke-width:0.26458332"
       d="M 71.4375,244.0833 H 47.625001"
       id="path137-0"
       inkscape:connector-curvature="0" />
    <path
       style="fill:none;stroke:#000000;stroke-width:0.26458332"
       d="m 68.791667,244.0833 v -2.64583 H 47.625001"
       id="path139-9"
       inkscape:connector-curvature="0" />
    <path
       style="fill:none;stroke:#000000;stroke-width:0.26458332"
       d="m 66.145834,241.43747 v -2.64583 H 47.625001"
       id="path141-3"
       inkscape:connector-curvature="0" />
    <path
       style="fill:none;stroke:#000000;stroke-width:0.26458332"
       d="M 63.5,238.79164 47.625001,225.56247"
       id="path143-6"
       inkscape:connector-curvature="0" />
    <path
       style="fill:none;stroke:#000000;stroke-width:0.26458332"
       d="M 71.4375,267.8958 H 47.625001"
       id="path145-0"
       inkscape:connector-curvature="0" />
    <path
       style="fill:none;stroke:#000000;stroke-width:0.26458332"
       d="M 47.625001,275.8333 H 71.4375"
       id="path147-6"
       inkscape:connector-curvature="0" />
    <path
       style="fill:url(#linearGradient708);stroke:#000000;stroke-width:0.50507629;fill-opacity:1"
       d="m 84.879315,244.96723 c -2.925639,-2.34384 -7.303496,-6.36929 -9.728572,-8.94543 -16.592486,-17.62612 -18.760346,-34.73548 -6.697152,-52.85582 3.818887,-5.73641 10.624364,-13.12281 17.085032,-18.54342 l 4.50783,-3.78215 h 89.938667 89.93866 l 3.86521,3.22386 c 5.54763,4.62712 14.02743,13.58855 17.13041,18.10335 7.11987,10.35933 9.73199,21.33097 7.41681,31.15278 -0.99768,4.23254 -4.15548,10.91306 -7.1476,15.1212 -3.22848,4.54054 -11.00732,12.50324 -16.66123,17.05502 l -4.63582,3.73214 H 180.04511 90.198658 Z"
       id="path700"
       inkscape:connector-curvature="0"
       transform="matrix(0.26458333,0,0,0.26458333,0,201.74997)" />
    <path
       style="fill:#1a1a1a;stroke:#000000;stroke-width:0.50507629"
       d="m 90.517203,264.88612 v -14.14213 h 89.398497 89.3985 v 14.14213 14.14214 H 179.9157 90.517203 Z"
       id="path712"
       inkscape:connector-curvature="0"
       transform="matrix(0.26458333,0,0,0.26458333,0,201.74997)" />
    <path
       style="fill:#4d4d4d;stroke:#000000;stroke-width:0.25253814"
       d="m 100.58504,154.95008 v -4.41942 h 79.42325 79.42324 v 4.41942 4.41941 h -79.42324 -79.42325 z"
       id="path722"
       inkscape:connector-curvature="0"
       transform="matrix(0.26458333,0,0,0.26458333,0,201.74997)" />
    <path
       style="fill:#4d4d4d;stroke:#000000;stroke-width:0.25253814"
       d="m 110.68657,144.97482 v -4.29315 H 180.00829 249.33 v 4.29315 4.29315 h -69.32171 -69.32172 z"
       id="path724"
       inkscape:connector-curvature="0"
       transform="matrix(0.26458333,0,0,0.26458333,0,201.74997)" />
    <path
       style="fill:#4d4d4d;stroke:#000000;stroke-width:0.25253814"
       d="m 121.93714,139.2015 c 1.0963,-0.99378 57.97187,-48.26984 58.07115,-48.26984 0.0993,0 56.97484,47.27606 58.07114,48.26984 0.13423,0.12168 -25.44684,0.21748 -58.07114,0.21748 -32.62431,0 -58.20538,-0.0958 -58.07115,-0.21748 z"
       id="path726"
       inkscape:connector-curvature="0"
       transform="matrix(0.26458333,0,0,0.26458333,0,201.74997)" />
  </g>
</svg>
