<?xml version="1.0" encoding="UTF-8" standalone="no"?>
<!-- Created with Inkscape (http://www.inkscape.org/) -->

<svg
   xmlns:dc="http://purl.org/dc/elements/1.1/"
   xmlns:cc="http://creativecommons.org/ns#"
   xmlns:rdf="http://www.w3.org/1999/02/22-rdf-syntax-ns#"
   xmlns:svg="http://www.w3.org/2000/svg"
   xmlns="http://www.w3.org/2000/svg"
   xmlns:xlink="http://www.w3.org/1999/xlink"
   xmlns:sodipodi="http://sodipodi.sourceforge.net/DTD/sodipodi-0.dtd"
   xmlns:inkscape="http://www.inkscape.org/namespaces/inkscape"
   width="360"
   height="360"
   viewBox="0 0 95.249998 95.250003"
   version="1.1"
   id="svg8"
   inkscape:version="0.92.4 5da689c313, 2019-01-14"
   sodipodi:docname="rua_w.svg">
  <defs
     id="defs2">
    <linearGradient
       inkscape:collect="always"
       id="linearGradient199">
      <stop
         style="stop-color:#fff6d5;stop-opacity:1;"
         offset="0"
         id="stop195" />
      <stop
         style="stop-color:#ffeeaa;stop-opacity:1"
         offset="1"
         id="stop197" />
    </linearGradient>
    <linearGradient
       inkscape:collect="always"
       xlink:href="#linearGradient199"
       id="linearGradient201"
       x1="180"
       y1="160"
       x2="180"
       y2="250"
       gradientUnits="userSpaceOnUse" />
  </defs>
  <sodipodi:namedview
     id="base"
     pagecolor="#ffffff"
     bordercolor="#666666"
     borderopacity="1.0"
     inkscape:pageopacity="0.0"
     inkscape:pageshadow="2"
     inkscape:zoom="1.979899"
     inkscape:cx="127.18574"
     inkscape:cy="173.60273"
     inkscape:document-units="mm"
     inkscape:current-layer="layer1"
     showgrid="true"
     units="px"
     inkscape:window-width="1676"
     inkscape:window-height="996"
     inkscape:window-x="4"
     inkscape:window-y="48"
     inkscape:window-maximized="0">
    <inkscape:grid
       type="xygrid"
       id="grid3721" />
  </sodipodi:namedview>
  <metadata
     id="metadata5">
    <rdf:RDF>
      <cc:Work
         rdf:about="">
        <dc:format>image/svg+xml</dc:format>
        <dc:type
           rdf:resource="http://purl.org/dc/dcmitype/StillImage" />
        <dc:title />
      </cc:Work>
    </rdf:RDF>
  </metadata>
  <g
     inkscape:label="Layer 1"
     inkscape:groupmode="layer"
     id="layer1"
     transform="translate(0,-201.74997)">
    <path
       style="fill:none;stroke:#000000;stroke-width:0.26458332"
       d="m 23.8125,267.8958 v 7.9375"
       id="path131"
       inkscape:connector-curvature="0" />
    <path
       style="fill:none;stroke:#000000;stroke-width:0.26458332"
       d="m 23.8125,267.8958 c -11.324642,-8.29677 -9.819667,-16.18653 0,-23.8125"
       id="path135"
       inkscape:connector-curvature="0"
       sodipodi:nodetypes="cc" />
    <path
       style="fill:none;stroke:#000000;stroke-width:0.26458332"
       d="M 23.8125,244.0833 H 47.624999"
       id="path137"
       inkscape:connector-curvature="0" />
    <path
       style="fill:none;stroke:#000000;stroke-width:0.26458332"
       d="m 26.458333,244.0833 v -2.64583 h 21.166666"
       id="path139"
       inkscape:connector-curvature="0" />
    <path
       style="fill:none;stroke:#000000;stroke-width:0.26458332"
       d="m 29.104166,241.43747 v -2.64583 h 18.520833"
       id="path141"
       inkscape:connector-curvature="0" />
    <path
       style="fill:none;stroke:#000000;stroke-width:0.26458332"
       d="M 31.75,238.79164 47.624999,225.56247"
       id="path143"
       inkscape:connector-curvature="0" />
    <path
       style="fill:none;stroke:#000000;stroke-width:0.26458332"
       d="M 23.8125,267.8958 H 47.624999"
       id="path145"
       inkscape:connector-curvature="0" />
    <path
       style="fill:#fff6d5;stroke:#000000;stroke-width:0.26458332"
       d="M 47.624999,275.8333 H 23.8125"
       id="path147"
       inkscape:connector-curvature="0" />
    <path
       style="fill:none;stroke:#000000;stroke-width:0.26458332"
       d="m 71.4375,267.8958 v 7.9375"
       id="path131-2"
       inkscape:connector-curvature="0" />
    <path
       style="fill:none;stroke:#000000;stroke-width:0.26458332"
       d="m 71.4375,267.8958 c 11.324642,-8.29677 9.819668,-16.18653 0,-23.8125"
       id="path135-7"
       inkscape:connector-curvature="0"
       sodipodi:nodetypes="cc" />
    <path
       style="fill:none;stroke:#000000;stroke-width:0.26458332"
       d="M 71.4375,244.0833 H 47.625001"
       id="path137-0"
       inkscape:connector-curvature="0" />
    <path
       style="fill:none;stroke:#000000;stroke-width:0.26458332"
       d="m 68.791667,244.0833 v -2.64583 H 47.625001"
       id="path139-9"
       inkscape:connector-curvature="0" />
    <path
       style="fill:none;stroke:#000000;stroke-width:0.26458332"
       d="m 66.145834,241.43747 v -2.64583 H 47.625001"
       id="path141-3"
       inkscape:connector-curvature="0" />
    <path
       style="fill:none;stroke:#000000;stroke-width:0.26458332"
       d="M 63.5,238.79164 47.625001,225.56247"
       id="path143-6"
       inkscape:connector-curvature="0" />
    <path
       style="fill:none;stroke:#000000;stroke-width:0.26458332"
       d="M 71.4375,267.8958 H 47.625001"
       id="path145-0"
       inkscape:connector-curvature="0" />
    <path
       style="fill:none;stroke:#000000;stroke-width:0.26458332"
       d="M 47.625001,275.8333 H 71.4375"
       id="path147-6"
       inkscape:connector-curvature="0" />
    <path
       style="fill:url(#linearGradient201);stroke:#000000;stroke-width:0.50507629;fill-opacity:1"
       d="m 86.829709,246.59998 c -5.010257,-3.77974 -13.458992,-12.12966 -16.933993,-16.73593 -11.707988,-15.51948 -11.986242,-31.4674 -0.832192,-47.69643 3.102982,-4.51481 11.582787,-13.47623 17.130419,-18.10335 l 3.865204,-3.22386 h 89.938663 89.93867 l 4.50782,3.78215 c 9.86076,8.27334 18.44153,18.90625 21.76877,26.97487 6.53491,15.84733 2.45687,30.39355 -12.84544,45.81923 -3.06248,3.08717 -7.34449,7.00782 -9.51557,8.71256 l -3.94743,3.09954 H 180.10946 90.314297 Z"
       id="path193"
       inkscape:connector-curvature="0"
       transform="matrix(0.26458333,0,0,0.26458333,0,201.74997)" />
    <path
       style="fill:#fff6d5;stroke:#000000;stroke-width:0.50507629"
       d="m 100.77025,155.03203 v -4.29315 h 79.29698 79.29697 v 4.29315 4.29315 h -79.29697 -79.29698 z"
       id="path213"
       inkscape:connector-curvature="0"
       transform="matrix(0.26458333,0,0,0.26458333,0,201.74997)" />
    <path
       style="fill:#fff6d5;stroke:#000000;stroke-width:0.50507629"
       d="m 110.87178,144.93051 v -4.29315 h 69.19545 69.19545 v 4.29315 4.29314 h -69.19545 -69.19545 z"
       id="path215"
       inkscape:connector-curvature="0"
       transform="matrix(0.26458333,0,0,0.26458333,0,201.74997)" />
    <path
       style="fill:#fff6d5;stroke:#000000;stroke-width:0.50507629"
       d="m 122.76632,138.68891 c 0.26391,-0.23827 12.86682,-10.7271 28.00648,-23.30851 15.13967,-12.58141 27.91509,-23.209263 28.38984,-23.617448 0.78547,-0.675343 3.46129,1.42301 29.72302,23.308508 l 28.85983,24.05067 H 180.016 c -32.13887,0 -57.5168,-0.19204 -57.24968,-0.43322 z"
       id="path217"
       inkscape:connector-curvature="0"
       transform="matrix(0.26458333,0,0,0.26458333,0,201.74997)" />
    <path
       style="fill:#ffeeaa;stroke:#000000;stroke-width:0.50507629"
       d="m 90.668728,264.88612 v -14.14214 h 89.398502 89.3985 v 14.14214 14.14214 h -89.3985 -89.398502 z"
       id="path219"
       inkscape:connector-curvature="0"
       transform="matrix(0.26458333,0,0,0.26458333,0,201.74997)" />
  </g>
</svg>
